<mxfile host="app.diagrams.net" modified="2021-01-26T08:06:51.048Z" agent="5.0 (Macintosh; Intel Mac OS X 10_15_6) AppleWebKit/537.36 (KHTML, like Gecko) Chrome/88.0.4324.96 Safari/537.36" etag="tki45iR-1_OIbcMHDJPp" version="14.2.7" type="github">
  <diagram id="TBKng6sE-Jx8A-JH2uSp" name="Page-1">
    <mxGraphModel dx="684" dy="383" grid="0" gridSize="10" guides="1" tooltips="1" connect="1" arrows="1" fold="1" page="1" pageScale="1" pageWidth="900" pageHeight="400" math="0" shadow="0">
      <root>
        <mxCell id="0" />
        <mxCell id="1" parent="0" />
        <mxCell id="OhbVSFWdRjhHsJU15Zuy-4" style="edgeStyle=orthogonalEdgeStyle;rounded=0;orthogonalLoop=1;jettySize=auto;html=1;exitX=1;exitY=0.5;exitDx=0;exitDy=0;strokeColor=#7EA6E0;entryX=0;entryY=0.5;entryDx=0;entryDy=0;fontFamily=Manrope;fontSource=https%3A%2F%2Ffonts.googleapis.com%2Fcss%3Ffamily%3DManrope;" parent="1" source="OhbVSFWdRjhHsJU15Zuy-5" target="OhbVSFWdRjhHsJU15Zuy-32" edge="1">
          <mxGeometry relative="1" as="geometry">
            <mxPoint x="240" y="138.68" as="targetPoint" />
          </mxGeometry>
        </mxCell>
        <mxCell id="OhbVSFWdRjhHsJU15Zuy-5" value="" style="shape=image;verticalLabelPosition=bottom;labelBackgroundColor=#ffffff;verticalAlign=top;aspect=fixed;imageAspect=0;image=data:image/png,iVBORw0KGgoAAAANSUhEUgAAAk8AAAJPCAYAAABlxzBuAAAQ/HpUWHRSYXcgcHJvZmlsZSB0eXBlIGV4aWYAAHjarZppdlwpkEb/s4peAhAMwXIYgnN6B738vvFSklW2ymWXS2kr05kveRDDN4CD/d//3vA//NTYNJTatY3WIj9llJEnLzR++7G359d7KZbn9/tPevudwpcfZJ6FZ3m92cvbp/L2/vv17eOZgb74INXvviAft8mfb9zn2/s55r/MqOwk8fOPfvt779F77bW6WRphaK9FvW4R3ofhwsVQ8nyt8ej8rbzuz2Pw0DjjTiWeuOPisdNImVvfVNIJaaabLB2ed9rMsWTLneecd5bnPZWeR94SJUnxR7q5y5AjKll2NhEpQfLHXNJz3/HcbyflzidxaU4MlvjKTx/hny74lce9OxKjlFh9eosV88rZ85A8jOK/uYyEpPuWt/oE+P3x8RM+JVbIYH3CrCxwxvUaYtX0rbbkKQDhusrzq75SP561/FRJ4d6VySQhBbElqaml2HPuKRXJSoImM89S8iIDqdZ8mGQuIo3cKHXEvflOT8+1uebX+7QK+anSpJObIZNklVKpn16UGppVaqm1ttqr1lFnaNJKq6213rznZpdeeu2t96599KmiRas27ao6dI48hJaso40+dIwxJ/ecJcw6+fbkijlXXrLKqqutvnSNNTfls8uuu+2+dY89Tz5yyqmnnX70jDMtGaUUrFi1Zt3Uhs1LrV255dbbbr96x50fWXvL6g+P38haestafjLl1/WPrPFu7z7QM0RynKmeMzKWSyLj3TNAQWfPWdRUSvbMec7iyHRFzUyyem5OijOkRgqLpVxv+sjdt8z9ct4Csf6nvOVfyVzw1P0HmcvB5Lu8fZG140i4n4y9utBjGoXuu9Fm1pnXCcIk/aVy8Z88hz8d4PcGWrPeWK9mu2u3O0c5pEhkg5m7pju0hL3G5i21U/epnYhAZZv48JylN5CYV9XWPY2uKlydDy/ytG2VYc+Ne9USbpQ2LuEf/fbaruRCvCkTMNsK1Sfn2qi7kKDU7yrFB94673xenW6Qy9Zw6pVZM3+owXOUrA6jjit/mpfP85I5/cNz+NUL//bZo0EsAsF4D8UrEGsrZfHEqHX6dqS1KrQ3qS1bYFi79BHvqNqS23T4NTXcMvyi86yXPlvWC+vPz0BvF315TS1iMZ3CgG/pPwqFPpmOf/AcfvFC1nXPsKc4SrNThHUSgEm6nziF+yqa7+KUJ+Uh2ek8ndbtJOGavGzwXO/yAVeW2jelcQvRCz+7pEzt9OocN72yVBfQ+lRG/P45/N0Hv/v8aSBf1V1yXpV7DtO5x6ukgi0/i1KrdVmIzfOYZW5gJ/driMrjz+vVb6DnvOOwdl0/uyKc/BRX7JXhXllaLf8+koTf/cKiOXfsoIoZbEXrljNB1jA6BKLohF267QZoo5Wb7b1pi3iXz5RJbofTJbBN31XviomEypp3Aw66ewwDkC9PgDNRIsFnodSIX92j9HOopbZs9oEeHyBZn6MrDNSHlHPgsQNr9TzDFjMGnkzPuGmmDb9oVarWhPUUCMhkgkxex4SyIjuPs0mgH/sUuaeW2xP5pgxINFHYMqgA7m652ARtbULeZUxZdc8F8dVzkKi3zT0OFkJmg6aAy7SKEsovcvzKsNmeexoabB1t205OfUBp+I+Rwm4I16rjgQ5I7gCrBmsm0wH39iisAQHncGooY3Ryb1KdLCVdhQOORdIQEICdAElbgjzddg9qQe6alF9xdaAzlZ2ZxVZA+TgKoRPOuioscsPH80qvYZW9h9TVXVpcMzrUSDtQPxf3rjqL5tYVIENVIOFRDS1pjupV4b2vD/MEFIwntdmd0nRxqcHtujFcF0HqqEJJiPdIm6PVkfsY1ggAU7RdkRB6cxnBZluYFIM9rJR9ckX2/4tOCT98sPpsVAtL96BH8gPt2SWv/CRXb408EqtjrKwhI+4m0CFO4p/RU4iTiYhGHR2UVNynOyS0c1ZLdpRhO3iDv5mS2r4unIB7nJGRui1hACGLFY3mlT2rJmcYSHzEQokvxxs5dXa6ouSjr7m3/D2sBzmrWxJaka7L1Kn2tdHz1rjdXhR/MWSZt6Fe1Fiatx9pyKd86PPerSLtJzHCDNTI/WdHPo5bRCmDCDusdneGDVduCDUa34DugxhoGxGJpkMkXpTZ6xbB78GgqD3QE7WSBFS43QaaI4EoLAMNW/mFqECJCIm/ddP9jVVwnzm8wGERq4cmq4Pftfe0cKu0EOCt8jAKwNHpVqJ6DdByt6nt7TvUFZoD4O4jYIhQlwvfw7/XMUCf0hsjFxrS7+v6dvBlWgiNPVDOqNq++LBM6rqOaF1WC4pGftUr8DEmX2cIYd4dAb7SreglRK8zTa9Dv5Q5iC0NZSH5LywJAGzUgquRdhKNj4luFSknB4O/km3UdfcJiqTsQov01kcSlnZKoBpXYlJ6wO5pACsSZNFA+kg+rtYu5hTmS14H3X+87trlX4lCowdYqAZX5rsZ+QcTAUsmD9YdRb8RzvrqupJ/lNDTO5fiAan51g4ySfV7M83u+CMX5sCK9DL8zp3uLzMd1/Ga6HEafkXo5u59Z3S8p6SDI91AeUUxPqcW4JxJ7rlIAEx7iYplm+EBWnKFL7aGoZBOGzT/HPmP8sfpokQhrpTb8fzEZljirVAAdM49XecMvsTtSAIVFqleV81MaUKBSpdJoJsJZuXzvK7RGJDCRQOncSAwZZVg/MTWUGeIG4S2RFCvC+ZuQXaHGiAXN1RDFXMXQwseLzt8UgN+dwf2aEtgeENOqd0xm+Me8hFNtRGkg8/XWglmFiobLT8yrfSmZC0N5/SnPUqiNFgYlaBOmyk+cjQWMIyImSL0oxlNNzIxcohx8RPjl5fT4R9jfxv5GSEbfYk9oOhneAbYgr5ShBVZr00As8eBRIeBzMsZB1BhC6jDRvb4aYD374fvBkCUwurA5rNpAevCPtsHnCBgEco8F1gD3zuulNaYbFHKqmBFEw11mxRAgBtBQ29/6FdC5w72GIpk0AcTJx6lqKFJKbdieURkr6vG19I+1gAEf6ziiwW7UKbGEQCf1+aaU8JXwflq2C+C8wzw/v3wewNMdS1B4gGQAaum2CkSkm7P0j6y/mXOP9fTk3XxYU8HgNSpARybu4YZgZqM3wPt4MLb40bj+abjRKLJxBEY6mOjM+ib1bCilrlw0zcF6tm0OrpKwl0s4ZjrlOKmnyompDflUuENFoRyaAAePYnWiAg9gKwrXNmZb0uw89OUofmOA/oiJbgKtzz2eooMBEarMSStJh0KGRMaTxWgpJDwfJSZAGOIvJLbigFF73swQx0qEQ0EEMyCHeBZpui7JchPrnRfHFND8WZg2gUtmDo3scPA1xQMiu7og5sR2cBlPURlarnNN/NcOkn0HRVK3uUV7Uv/H64AKsEIGA/Ih0YDpXt82+klBcRzQXQBerADlRU9RshY+nqvDBUffgkUsDpwZ2QnDoe8EvZN6hTiArQTJbQqHt8Lqt3iPi5TxwqOwrOoogVJ0ZGYRPjFANDNICTaQnWUe4CjSEUdz7oRSiCWekn5JgDiFUNAomhHEuyksOi8DcmIQiQHibF7MKKb6VpqHpQkuDpOBHQ1YtjgLvw1VdzRzq6n3MSQMkLH/PJBpdHmhAuEpIYoxQFzPZWCQCaImZW5kHOta+7eqeoVxaWegctHBy7trOEu8eBqaoUgfTP1Qs7IgjLWOenoqx0Log7gLBFCpsafnRDSoK+m+n7iT6/53N0LI3dg+OhgwQR9T+VGgH7y4kRUT8JU0Xw6n17EaZTs6AlfyA1jcjlw6Fstiaz65vyiKd2D349pkYpvE3tN67tJhY9wPlNyzRHTpwnFr6bE0lDA3e2PlGfPEDzafqOR1L3D24Dr84AFFs2KM0ICFt/7xGGCqWvsU+r7VgAsGsYGFTwv1lssivWoGDoKPHFlfCFXYwaOzj9bbvhqvX9dbqs+vXp/Hrnwdeh+P3LhLXSf8umI/WT0SahvUXyd0r/WWviVYvtLrf0wvdfkwvel5pIm4onHYWlo4IiPfHWp6/BHV+YGu4In0S0i7YVcvSucDivRXFcL3s9owrYWz+D1BCxwVkgpQXxhGY2gYDD7LTis4/od5dVgh+g2i7cAc5vq+2eYFXP/jiPBuiqqkXaprk8dtRsczrgHhcx0D2rk4IbSwe4fsobmw6t0LICWRITpuIKvwSHjAp+NTCrtAMeAFTPq7oGBNMZWVGM01CvWNuSuC3eCwr1YoOpGOR+Xw1ifvGuK/oR2U7KnFYGbgb4xFxrYel76vtP1445Wd98SHYBRvb5dUZ+SYGWC3Iy5aYJgRqYbgF+oA4StAvgzEZaCiQBMzXeFN24ib14IulQNZ4XUZumT8GJ0rh4XyWsiohamhyQQuRzS6Ml8y2JjaE1mwxXiw5BZIw9jGbgS6szLCFatJNkzggZAZ2RUPHCYGxKVYLdIu1K1YL2TEp4EpZzy/jv3itZvADdUwzvF6UJdjZAOhFPFMcChJB9XgoO9LrFd9gspwTrhSUdHyUyon2/panyj7xMr8t2QxyegPHw/EqqldkaOWg0bV1spDQWfS/OK6sj/gouBy5GY2x0rzLlfJcLMqLBwfNMGzeL7IQvYg63dtsxzIvgEbS4MPCLSN1O30aN4Uvh063TFVfR9pyTY9p2iU65v3m/MZrkZxkb2HEAO7kJ4wNd+b8RWpD0rb1GmlAl11XGYeACLWIiI/kVOuBEhJFQ21tJQeF1AiFqIxPXdKuZhfnokI+Hr0Quftm0AotDO11bVfSphkVKXO9Wjm3EShZP7wb1TtQ38MkUrE8OKhVh+NqAATXZhBlZ1GNJyRucBWkaz4tcacoBPMk5I3SLVOFhQMVFvevTeRGjRpMk3HMTNvTak4vTZ+k7+e68hYJTasooZwkQn9b0FuAdnpVQ+DiCHAj41kACdAgBio6gU/HzGQr0q8pRf2oAPf7Oh7rXLDOMgaTiltq5j514tglWAHdJXpIGxzcXrHSd0QJP+gGMevD4ZFrhu3Y8AKspqJhxJnXvSK/9UwyESF/V9eIz7XmajI0aru02EXX0kGeY2gg9oZ0w8y1TX3m0Px2hgH44trmLMK3hQeuI7rgtdF55NT2/z7Ju9q+6C6HzAzANbH9qR7UcE3QGTb7rcv6igzgQKrpUkoNQC4pBOgUx9ezh9vVOLzPUt4OOKvPjOS/IldPKQEdr+tVLCOvCMuicDwqgJsK80dyqsittCW24hquNZx8K5GG9Fe1X1U6uV6JQMF2gYEKQ39ro/OZfZi7pb4wip8FfiVgGRn7Dxzho7Af7UFPLPdzZapDidj4uzgRMdBEfOplHiKUNzBeKRHUnI2G6TqOgHgUR30O9wwY9F406x9BrBhYWjqX4wbXAoxNBjHQRDVz3oHKoDBn5QK6TbYS5WU2BC8/9EgcC/3Jc6Wu4cVvJNKeEDd7lgGm3J+1gbkAYqedtHDf/qyOG3DzN/cs6Gzn9OZHw7j7wQo09HMr6D5ZvwGH0/NSJM43Xo+H7k+Bw4+mGnvk4cvx1LMtDXl/hBlu8LMdzbeSTG82fHiOGPzh9/GOjtQPJPziPD5wPJPzmPDJ8PJP/kPDL8i4PLL0/awucDyT85jwyfDyT/5Dwy/Bfnjz8Z6B/OI4Hn7fq6L70x+wYoqhZ9OTaSAJvuG9G1I/Jil7G5ZIHQYymdPkF48S3cV60g098qwYPvzja8l4L/3wLf/CENwDFi/cwDSbYBrcHX8I41bWVExJw7L7SE75tEV7n+/03CGYi4cz6O+OevH/H/5Tn8R632bwaiwqjH8P/KHqSHM8IirwAAAAZiS0dEAP8A/wD/oL2nkwAAAAlwSFlzAAAuIwAALiMBeKU/dgAAAAd0SU1FB+QEHQ4iBlK9FKkAACAASURBVHja7d17/OZznf/x53zHaTIMKYaRxDrEzI4ialONFC2m4+ZQcthyiorKpiMpHVbFViJqQyLaosiitZFasSp+QzksKcXQyaCMU35/XO+paczh+n6/1+FzuN9vt/etw62mvq/P5/t5P+ZzXdfnmpDVnxOAMVguyZPKmlTWSmWtWP5xhUXW8uW/t2BNLGtkoTWhrAUeL+vPC63Hynp0ofVIkocXWfOTPFT+cX6SB8v6U1mPOozAWC5+AAubnGTdsqYlWaesqWWtleSpSVZrwM96b5LfJLk7ydyy7izr10l+VdYDTgtAPEG7f+83LOsZZa2f5OllPbVFs1itrI2W8Z/7TZJflHV7kp+XdWtZ7mBBi0zwsh001tQkm5a1cVkblTXBeHrm8SS3lHVzWTeWNdd4QDwB1TM5yYyypifZPMlmJZ4YrrlJfprkhiTXJ5lTlpcBQTwBA/KUJM8qa2ZZmxtL7dyQ5LqyflLWb40FxBMwPssn2TrJVmVtmeSZxtJYP0vyoyTXlHV1Op8gBMQTsATTkjy3rG1KOK1oLK31UAmoq5L8sKxfGwuIJ2izDZI8f6E13UhYhuuT/GChdZuRgHiCJpuW5IULrc2MhHH6aZLvLbTcmQLxBLW2fJIXJ9murK2NhD67Osl3y/rveM8UiCeogU2SvKSs7ZOsYiQMyf1JLk3yX2XdZCQgnqAqtkuyQ1nPNg4q6sdJLinru8YB4gkGaaUkOyV5WVlPMxJq5o4kF5V1YTpfmgyIJ+ipKUl2XmhNMRIaYl6Sby+05hkJiCcYq1WSvDzJ7CS7JFnZSGi4Pya5IMn5Sb6VzvumAPEESzUxySuTvKKsVY2ElrovyTfLOi/JY0YC4gkWtn2SVyd5VZK1jQP+xl1Jzk3yjXQ+wQfiCVpqepJ/KtE0wzigK3NKRP1HOk88B/EEDTc5ya5JXpvOJ+WAsbsoydeSnJPkAeNAPEGzvCDJbiWcnmoc0FO/KQF1dpIrjAPxBPW1WpI9kuyeznfJAf33vSRfTXJWknuNA/EE9bB1kteXcHKXCYbjNyWgvpLOd+6BeIIK2qNE085GAZXy7RJRZxkF4gmGb+0keyV5Q5LNjQMq7YYkX05yejqPPwDxBAP07CR7l3BazTigVu4tAXVaOl9YDOIJ+miHJPum8yZwoP6+muRLSS4xCsQT9NZuJZp2NApopItLRJ1tFIgnGJ83lvU8o4BWuDLJF8sC8QRdWinJm8qaaRzQStcl+UJZ840D8QSLt3KS/ZPsl+SZxgEk+VmSU5KcnOSPxoF4gr+NpgOSbGIcwGLclOTzIgrxRNutWILpwLjTBHTnZ0lOKiH1kHEgnmiTA5IcFO9pAsbmuiQnlogC8USjvaFEk0/PAb1wZYmoLxsF4ommeXmSg9N5yCVAr12S5IQk3zIKxBN1t22SQ9J5yCVAv52d5LNJvm8U9MvETJpmCvTDJkmOSueNndONAxiQ6Un+OclTktyW5HdGgnii6lZN8s4STdsZBzAkWyfZNZ1P9V4Xn8xDPFFR+6Tzxs3Xp/PsJoBhWjnJi5O8rMTTtUaCeKIqZiU5Psm7kqxtHEDFrJ3klUmelWRuktuNBPHEsKyX5Mh07jZtahxAxW2aZO8kU9J52OY8I0E8MUgHlWjaOckE4wBqYkI6z5nbJcmjSa4xEsQT/bZdkk8neXuSNYwDqKk1yl/+toyX8hBP9MlTk7w/nYfQbWYcQENskmSPdN5c/v+S/MlIEE/0wh4lmnZNMtE4gMbthZ0H+r44yf1JrjcSxBNjtWmSjyU5Jsk6xgE03DpJXpPkaUluTvJbI0E8MRoHpvMVB9sbBdAyz07yj0kejjeUsxi+245FPSvJ4em8VAd9N2vbLcf137933v25ds7NBkm/nJXk2CQ/MQrEE4vzliT/kmRdo2BQHv/91eP671/+gx9n1uwDDZJ++lWSf03yGaMgSUaMgHTuNn01nUcQCCeAv7VuuT5+tVwvEU+03EFJzk2ym1EALNVu5Xp5kFGIJ9pp0ySnJvlckqcbB0BXnl6um6fG11KJJ1plzyT/kc53PAEwenuX6+ieRiGeaLY1kxyX5MtJNjcOgHHZvFxPjyvXV8QTDbNDkrOTHGoUAD11aLm+7mAU4onmODydT4nMMgqAvphVrrOHG4V4ot42TXJaOs8nWd04APpq9XK9PS3eTC6eqKVXJzkjyV5GATBQe5Xr76uNQjxRDxOSvLf84m5pHABDsWW5Dr+3XJcRT1TUpklOT/LhJJOMA2CoJpXr8enxMp54opJmp/PQNs8cAaiWPcv1ebZRiCeq47AkX0qyjVEAVNI25Tp9mFGIJ4ZrrXS+5ftTSdYwDoBKW6Ncrz9Trt+IJ4bwt5gvJDnEKABq5ZBy/fZqgXhigHZNckqSXYwCoJZ2KdfxXY1CPNF/70hycpIZRgFQazPK9fwdRiGe6I/V03mt/BNJphgHQCNMKdf1T8U3QYgnemrzJCfGpzQAmuqwcp3f3CjEE+O3fZLPJdnNKAAabbdyvd/eKMQTY/e6JCckeaFRALTCC8t1/3VGIZ4Yvbel8yyQTYwCoFU2Kdf/txmFeKI7yyf5UJLjkzzZOABa6cllH/hQ2RcQTyzBWuWX5X1GAUDZD46PJ5KLJxZrkyTHJXmzUQCwkDeX/cHbOMQTC9kmnWd87GEUACzGHmWf8JUu4okkL0nnAWk7GQUAS7FT2S9eYhTiqc1eVX4RtjUKALqwbdk3XmUU4qmN9kzyr0lmGgUAozCz7B97GoV4apP9k3w8yd8ZBQBj8HdlH9nfKMRTG7w1yceSrGMUAIzDOmU/eatRiKcmOzzJR+ObswHojdXLvnK4UYinJnpvko8keZJRANBDTyr7y3uNQjw1yVFJPpxkOaMAoA+WK/vMUUYhnupuYjrfS3SkUQAwAEeWfWeiUYinOlo+ydHxPXUADNb7yv7jC4X7xMtI/bFCqf/3GAUAQ7Bg//lgkoeNo7fceepPkAonAKoQUEfGjRLxVHEThBMAFQyoCUYhnqrqyHiPEwDV8r744JJ4cnICgL/ci6d6e1c8WwOAajuq7FeIp6E7tBS9Z2oAUGUTy351qFGIp2E6sJyIk4wCgBqYVPatA41CPA3DXuUEXM0oAKiR1cr+tZdRiKdBek058aYaBQA1NLXsY68xCvE0CDuWE24DowCgxjYo+9mORiGe+ukfyok2wygAaIAZZV/7B6MQT/2weZIPJHmeUQDQIM8r+9vmRiGeemmdcmK5tQlAE+1Y9rl1jEI89cJK6dzS3NUoAGiwXct+t5JRiKfxOjLJ/sYAQAvsH181Jp7G6R1JjjAGAFrkiLL/IZ5Gba90Xv8FgLb5QDxEUzyN0svKibOqUQDQQquWffBlRiGeurFFOWE2NAoAWmzDsh9uYRTiaWnWSvL+eJYTAKTsh+8v+yPiabHen+TVxgAAf/Hqsj8inp7giCQHGwMAPMHB8elz8bSIPVU1ACzV+8t+KZ6MIC9I8r4kTzIKAFiiJ5X98gXiqd3WKyW9id8JAFimTcq+uZ54aq/3JXmp3wUA6NpLy/4pnlroiCT7+R0AgFHbLy1+A3lb4+mfkrzXuQ8AY/besp+KpxaYmc7txsnOewAYs8llP50pnpptUinlmc55ABi3mWVfnSSemus9SV7rXAeAnnlt2V/FUwO9Pt7nBAD98N6yz4qnBtmiVPEE5zcA9NyEss9uIZ6aYblyQDdzbgNA32xW9tvlxFP9eZ8TAAxGK97/1PR4emWSdzuXAWBg3l32X/FUQ+un8/TTlZzHADAwK5X9d33xVD9HJNnGOQwAA7dNGvz1LU2Np/2THODcBYChOaDsx+KpBrZMi7+sEAAq5IiyL4unintXkmc4XwFg6J5R9mXxVGHvjMcSAECVvLbsz+KpgrZtYt0CQAO8q+zT4qlCJpYD8xTnJwBUzlPKPj1RPFXHvyTZxbkJAJW1S9mvxVMFvCDJ4c5JAKi8w8u+LZ4qcCBWdz4CQOWtngbc8Kh7PL0zyWznIgDUxuzU/NN3dY6nreLlOgCoo8PLPi6eBuydSdZ0/gFA7ayZGt99qms87Z9kN+ceANTWbqnpd9/VMZ42SPIO5xwA1N47yr4unvrs7Uk2dr4BQO1tXPZ18dRHL09ysHMNABrj4LK/i6c+WKGOdQoALNPbyz4vnnrssCQvcn4BQOO8qOzz4qmHpic51LkFAI11aNnvxVMPBzrVeQUAjTU1NblRUod4ekWSNzqnAKDx3lj2ffE0Tm9zLgFAa1R+3696PL01yXbOIwBoje3K/i+exuBpcdcJANrobaUDxNMovSU1fGQ7ADBuG5QOEE+jsHUqfssOAOirt5YeEE9dekuSFZ03ANBaK6aid5+qGE+7JNnTOQMArbdn6QLxtAyHOFcAgKp2QdXiae8kOzpPAIBix9IH4mkxJiZ5s3MEAFjEm0sniKfFDGZr5wcAsIitU6EbLFWJpylx1wkAWLI3l14QT8VBSTZ1XgAAS7Bp6QXxlGRqVYYBAFTaQaUbWh9PByZZz/kAACzDeqUbWh1P6yY5wLkAAHTpgNIPrY2nA1KB228AQG1MzZBvvAwznp6WZH/nAAAwSvuXjmhdPO2XZE3HHwAYpTVLR7QqntYZ5g8NANTefqUnWhNPb4r3OgEAYze19EQr4mmNYf2wAECjvKl0RePj6Y0Z4pu8AIDGeFrpikbH00pJ/tmxBgB65J9LXzQ2nvZNsonjDAD0yCalLxobT+46AQC17otBxtMeSbZyfAGAHtuqdEbj4mkfxxYAqHtnDCqeXppkB8cVAOiTHUpvNCae9nZMAYAm9MYg4ml6ktc7ngBAn72+dEft42kvxxIAGJC+d0e/42m1JG9wHAGAAXlD6Y/axtOe8QXAAMDgTC39Uet4AgAYpNrG005JtnH8AIAB26Z0SO3i6XWOHQAwJH3rkH7F09+JJwBgyPH0d3WKpz2STHDcAIAhmZA+fd9dv+Jpd8cMABiyvvRIP+LpVUk2c7wAgCHbrHRJ5eNpN8cKAKiInndJr+Np/SS7Ok4AQEXsWvqksvG0a7xRHACojgnp8Y2dXsfTax0jAKBietonvYynWUm2cnyg2raYsXG2mLGxQfTBoQftkdWmrGIQUD1blU6pXDy9xrGB6ofTZeeflMvOP0lA9dipJxyZ4445LJedf5KAgmrqWaf0Kp5WEE9Qj3CasurkTFl1soDqcTjtvcfOSZKZ0zcSUFDdeFqhSvH06iRrOy5Q/XBaQED1PpwWEFBQSWuXXqlMPL3KMYH6hJOA6l84CSiotJ70Si/iaS3xBPULJwHVv3ASUFDpeFqrCvH0yiTLOx5Qv3ASUP0LJwEFlbR86ZZKxBNQ03ASUP0LJwEFlTT0eHpGkpc5DlDvcBJQ/QsnAQWV87LSL0OLp5c7BtCMcBJQ/QsnAQWVM65+GW88zTZ/aE44Caj+hZOAgkoZV7+MJ542TLK9+UOzwklA9S+cBBRUxvalYwYeT7uYPVTDUe/ar6fhJKD6F04LB9Q+r3MZhSEa8y/geOJpJ3OHatjn4KNz3fW39OXPbmtA9TOckuS0s76d4088y8kLwzPmjhlrPK2bZAdzh2q4d979mTX7QAFVo3Da5+APOnFhuHYoPTOweHLXCQSUcBJOUHdj6pmxxpNnO4GAEk7CCepuTD0zlnhaNck/mjcIKOEknKDm/rF0Td/jacckK5k3CKimBJRwgtZaqXRN3+PJG8VBQDUmoIQTtN6ou0Y8gYBqbUAJJ2AQ8fT8JOuZMwiougeUcAKK9Urf9C2eXmrGIKDqHlDCCRhP34w2nnyXHQioWgeUcALG2zejiae1k2xrviCg6hpQwglYgm1L5/Q8nl5stiCg6hpQwgnoVeeMJp62M1cQUHUMKOEE9LJzRhNPs8wVBFTdAko4Ab3unG7j6e+TbGiuIKDqFFDCCRiFDUvv9CyeXmSmIKDqFFDCCRiDrnqn23h6oXmCgKpLQAknYIy66p1u4+kF5gkCqg4BJZyAceiqd7qJp+ckWcs8QUBVPaCEEzBOa5XuGXc8Pd8sQUBVPaCEE9Ajy+we8QTUPqCEEzDIeJqQ1Zd5d+rXSdYxS2if1aasksvOPykzp2/Ulz9/3n0PZMqqk8f1Z9x9z++y1pprCCegV+5MMm1p/4Fl3XmaIZygvQZxB2q8hBPQY+uU/hlzPD3PDEFA9TOgqko4Qas9bzzx9FzzA9oWUMIJWu+544mnrc0PaFNACSdgWf2ztHiammRz8wPaElDCCSg2Lx006nh6jtkBbQko4QR020FLi6etzA1oQ0AJJ2A0HSSegFYHlHACehlPW5ob0OSAEk7AWDpoSfG0UXwZMNDggBJOwDKsVXqo63h6lpkBTQ0o4QR06VniCWh9QAknoF/xNNO8gKYFlHACRmmmeAJaG1DCCehnPD0tnW8UBmhEQAknYIzWKV20zHiaYVbVcPxH3p59XreLQSCghBMtsdqUVXLeGcdmixkbG0Z1zOgmnqab0/CdesKReduBu+dLn/2AgEJACSdaEk6XnX9SXrHTi3LZ+ScJqOqYLp5qEk5777HzX/61gEJACSfaEU4zp3ceKzRl1ckCqmbxtJk5VSecBBQCSjjRrnBaQEBVxmbiqYbhJKAQUMKJdoWTgKpXPG2SZJI5VS+cBBQCSjjRrnASUJUxqfTREuNpUzOqbjgJKASUcKJd4SSgKmNT8VTjcBJQCCjhRLvCSUBVP54ckRqEk4BCQAkn2hVOAmroNhZPDQgnAYWAEk60K5wEVHXjaSPzqU84CSjaHFDCiTaGk4Aamo2WFE9PTrKW+dQrnAQUbQwo4USbw0lADcVapZOeEE8bmk09wwnaFFDCCQTUkGy4uHjawFzqG077HnJ0Tj3zAoOm0QElnGjyXwwEVOVtIJ6EE9RqoxFOCCgBVcV4Wt9chBNUcaMRTggoAVUBf+mkCVn9OQv++cVJdjAb4QRVsdqUVbLP63bJ8SeeZRg06rzuxxvIF5h33wOZNfvAXDvnZsPurUuS7LhoPN2YRb67BeEEgIAiSXJTypPGF37Zbj1zEU4A9J+X8GrpL520IJ6mpvOtwQgnAAQUTzSp9NJf4mldMxFOAAgolmpd8SScABBQjDGe1jEP4QSAgGKp1hFPwgkAAcUY42lt8xBOAAgolmrtheNpqnkIJwAEFEs1VTwJJwAEFGOMpzXNQzgBIKBYqjXFk3ACQEAJqDHE02pJVjAP4QSAgGKpVkgyeSTJU8xCOAEgoARUd+MaSbKGOQgnAASUgOrKqiNJnmwOwgkAASWguo+n1c1BOAEgoARUV1YRT8IJAAEloEYZT1PMQTgBIKAEVFdWFk/CCQABJaBGGU+rmoNwAkBACaju42kV4SScABBQAqork0aSTBZOwgkAASWguvKkkSQrCyfhBICAElBdWam18SScABBQAmqs8TRJOAknAASUgOrKiq2LJ+EEgIASUOONp5WEk3ACQEAJqK6sMJJkReEknAAQUAKqK8uPJFlBOAknAASUgOrKchOy+nPuS4MflNnvcIIm+ODHT8lRHz/FIJbh8d9fbQiwFPPueyCzZh+Ya+fc3OQf8z9HkiwnnACA8WrJHaiJjY0n4QQAAqpf8TQinAAAAdWVkcbFk3ACAAHVRxNGkkwQTgCAgOo+noQTACCgujSS5HHhBAAIqK48PpLkz3X+CbaYsbFwAoAaBNTxH3m7eKqCa+fcnH0POdpZCQAVdt31t+SVex7ehB/lzyNJHq37T3HqmRcIKACocDjNmn1g7p13fxN+nMcaEU8CCgCE0yDj6ZGm/DQCCgCEU589OpLk4Sb9RAIKAIRTv+Ppoab9VAIKAIRTnzwykmR+E38yAQUAwqkPHl4uyYNN/elOPfOCJMmXPvuBvv1v3H3P73LjLb/w20Kt3X7HXYbQhct/8GNDoNYmrzwpM2dsnOUmThROY/dQo+NpEAG11ppr5KJLf5h9Dv6g30pouFmzDzQEamuLGRvnsvNPEk49iKeJmTRt9yQbNPmnvHbOzfnFHXfllTu9qG8n5DPWWyfnXXi5304AKhtOU1adLJzG74qJmTTtNUk2bfpPKqAAEE7CqQe+OzGTpu2S5O/b8NMKKACEk3Aap4snZtK0lybZqi0/sYACQDgJp3H49sRMmvbCJM9v008toAAQTsJpjM6dmEnTtk6yfdt+cgEFgHASTmNw9sRMmvb3SXZq408voAAQTsJplM6YmEnTNkrymrZOQEABIJyE0yh8YWImTVs3yevbPAUBBYBwEk5d+tzETJq2RpI3tX0SAgoA4SScuvCpiZk0bVKSt5qFgAJAOAmnZfroxEya9uckR5iFgAJAOAmnZTpyYiZNm5/kPUkmmoeAAkA4CaclejjJByZm0rQkOSDJqmYioAAQTsJpie5KctyCeNozydpmIqAAEE7CaYn+L8nJC+LpFUk2MhMBBYBwYol+kuTMBfG0fZJnmYmAAkA4sURXJPnWgnjaOskLzURAASCcWKILk/z3gnjaNMnOZiKgABBOLNHZSf53QTxNS7K7mQgoAIQTS/SFJDcuiKfJSfY3EwEFgHBiiT6Z5M4F8fTnJO80EwEFgHBiiY5M8sCCeHogybuSLG8uAgoA4cQTPJjk3UmyIJ6S5A1JnmI2AgoA4cQT3Jbks4vG0+wkG5qNgAJAOPEEP05yxqLx9IIkW5qNgAJAOPEElya5IElGFvo3bzeX8Tn1zAuy7yFH9+3P33uPnXPqCUcaNK3bVFabsophIJyE07D9pZMWjqfbzEVAQdU2lRc9/9kCCuEknKrgNvEkoKA2m8rM6RsJKISTcKpkPN1qLgIKqrqpCCiEk3AaslsXF0+/T3K32QgoqOqmIqAQTsJpSO4unfSEeEqSW8xHQEGVNxUBhXASTkPwN320aDzdbD4CCqq+qQgohJNwGrC/6aOFn/OUJM9M8hIz6r1BPAdq9Smr5KJLrzRsWrGpTF1zjfzjS/4hX/3GdzL/oYcNkspaf72188PvfEk41dvZSX6w4F8seufpRvPpn37egZp33wM59awLDJlW/W3cHSjq4PZf3pXzvt2fBxwLp4H5mz4STw0IqHn3PZBZsw/MtXO86kp7wklAUSf7HPzBnHbWt4VTQ+PppnS+NZiaBJRwos3hJKBoa0AJp4F6sPTREuMpSX5qTvUIKOGEcBJQtC+ghNPAPaGLxFNNA0o4IZwEFO0LKOFUjXha9NN2SbJRkpea1WCM5VN4wgnhtGQ+hUcdnHfh5XnGeutkixkbC6fqOzMLfdJuSfE0JcnrzaqaASWcEE4CivYFlHAaquOzyEMyFxdP85McZlbVCyjhhHASULQvoITT0L07yX0L/xuLe8/THUnuNKvBW9p7oIQTwmn0vAeKOljae6CE09DdWbrobyzuzlPSecr4RmY2eIu7AyWcEE5j5w4UdbC4O1DCqRK+n+Qr3cbT9CTbmtnwA0o4IZwEFO0LKOFUGV9Pcumi/+aErP6cxf2Hd03ne1wYolfu/KLc/su7hBPCqUdsSNTBoQftkVPPvMB5Wg27JTmn23jaKIt8gzBAncNJQAFjsHEW+aRdsvg3jKf8B+82M6BJ4ZR4EznQtbsXF05Li6ck+ZG5AU0KJwEFjMISO2hp8XSNuQFNCycBBXTpGvEECCcBBfQ5nv7X3ICmhpOAApbhf8cST3OT3GB2QFPDSUABS3BD6aBRx1OSXG1+QJPDSUABo+2fZcXTD80PaHo4CShgNP2zrHi60vyANoSTgAK67Z9lxdOcdL5RGBBOjQ8nAQWU7pkznnhKkv8xRxBOVQ2nRx97TEABvbTM7ukmnn5gjiCc+uG6628Z/58x5+bMu+8BAQX0yjK7RzwBQwunWbMPHPef88AfH8ys2QcKKKBS8fS/8SXBIJz6EE73zru/J3/etXNuFlBAL9ydLh4SPtLlH3aFeYJwqmI4CSigh7rqnW7j6XvmCcKpquEkoIAe6ap3uo2ny80ThFOVw0lAAT3QVe90G0//L8mtZgrCqcrhJKCAcbi19E7P4ilJLjNXEE5VDycBBYxR150zmnj6rrmCcKpDOAkoYAy67pzRxNN/mysIp7qEk4ACRqnrzhlNPN2V5PtmC8KpLuEkoIAufb90Ts/jKUkuNV8QTnUKJwEF9LpvRhtP3zFfEE51CycBBfSyb0YbTz9I8kszBuFUt3ASUMAS/DKj/B7fkTH8j1xiziCc6hhOAgroRdeIJxBOrQonAQUMI54uTjLfrEE41TWcBBRQzC9d0/d4ui/Jf5o3CKc6h5OAAkrP3DeIeEqSi8wbhFPdw0lAQeuNqWfGGk8XmjcIpyYRUNBKY+qZscbTr+KN4yCcGkZAQatcUnpmYPE05loDhJOAElBQAWPumPHE0wXmDsJJQAkoqKkxd8x44unW+K47qISj3rWfcKphQM3a9tlOXhiOS0vHDDyekuR884fh2+fgo3Pd9bcIpxoF1L6HHJ3zvn25kxeGY1z9Mt54+pb5w/DdO+/+zJp9YE8Dqu3h1M+A2veQo3Pqmd75AEM0rn4Zbzz9PJ75BI0LKOHUv4ASTjB0F5V+GVo8Jcl5jgM0J6CEU/8CSjhBJYy7W3oVT484FlD/gBJO/Qso4QSV8EhV4unuJOc6HlDvgBJO/Qso4QSVcW7plqHHU8QT1DughFP/Ako4QeXiadx6FU/fSHKXYwL1Cyjh1L+AEk5QKXeVXqlMPD2c5OuOC9QroIRT/wJKOEHlfL30SmXiKeIJ6hVQwql/ASWcoLLx1BO9jKfLklzj2ED1A0o49S+ghBNU0jWlU3piuR7/n/takq0cI6h2QC345/Q2oNaf+QpzhWr6Wi//sJEe/587J8njjhFUO6Bs8P2bLVA5j5c+qWw83d7r/4MAAONwTumTysZTkpztOAEAFdHzLulHPJ2b5KeOFQAwZD9NHx7kPdKn/7NfdbwAgCHrS4/0K57ODsXSLAAADmBJREFUijeOAwDD83jpkdrE0/8lOdNxAwCG5MzSI7WJp4gnAGDI8dQX/YynC5Nc5dgBAAN2VemQ2sVTkpzh+AEAA9bX/hhEPM11DAGAAZlb93i6N8mXHUcAYEC+XPqjtvGUJKc7jgDAgPS9OwYRT9cn+YpjCQD02VdKd9Q+npLkNMcTAGhCbwwqnr6T5BLHFADok0tKbzQmnpLkVMcVAKh7Zwwyns5Kco1jCwD02DXp0/fYDTuekuTfHV8AoM59Meh4+lKSmxxjAKBHbip90dh4mh93nwCA3vn30heNjack+WKSOxxrAGCc7ihdMVDDiKffJfmC4w0AjNMXSlc0Pp4W/LC+MBgAGKu5GdLNmGHF051JTnHcAYAxOqX0RGviacEPfY9jDwCM0j0Z4k2YYcbTHUlOdvwBgFE6OUP88NnIkH/4z8d7nwCA7s0t/TA0w46nXw17AABArXy+9ENr4ylJTkryS+cCALAMvyzdMFRViKe5SU50PgAAy3BiKvB2n5EKDeNG5wQAsAQ3piI3W6oST/OSfM55AQAswedKL4inRYZytXMDAFjE1anQTZYqxdNjcfcJAHiiz5VOEE+LcVqSi50jAEBxcemDyhip4JA+6zwBAKraBVWMpwuSnOFcAYDWO6N0gXjqwmeSPOScAYDWeqj0QOVUNZ6uTvJp5w0AtNanU9FP4Y9UeGifSXKbcwcAWue2VPSuU9Xj6Y4k/+b8AYDW+bfSAeJpDD6d5LvOIQBoje+m4m/dGanBEN19AoD2qPy+X4d4+maSLzqXAKDxvlj2ffHUA8cnmeucAoDGmlv2+8qrSzxdX5eBAgBjcnzZ78VTDx2X5HLnFgA0zuVln6+FOsXTw0k+5fwCgMb5VNnnxVMffCvJCc4xAGiME8r+XhsjNRzyp5Lc7FwDgNq7OTV8VamO8XRbkk863wCg9j6ZGn4V20hNh31ykrOdcwBQW2eX/bx2Rmo89E8kuce5BwC1c0/Zx2upzvF0TZJjnX8AUDvHln1cPA3BJ5Kc7xwEgNo4PzW+69SEeFpQr39wLgJA5f0hDXjVqAnxdEW8fAcAdXBs2bfFUwX8a5ILnJMAUFkXlP269poST48l+XiS3zo3AaByflv26cfEU7V8vxwYAKBaPl726UYYadjB+USSrzlHAaAyvpaaf7qu6fG0oG5/7lwFgKH7eRr4qlAT4+lHST7mfAWAoftY2ZfFUw2cnOTzzlkAGJrPp6bfXdfWeFpQu1c5dwFg4K5Kg18FanI83V4O3HznMAAMzPyy/94unurpvCQfdR4DwMB8tOy/jTXSgoP4kXh8AQAMwtfKvttobYinR8uB/KlzGgD65qdlv31UPDXDteWAPu7cBoCee7zss9e24YcdadGB/UqSY5zfANBzx5R9thVGWnZwvf8JAHqrFe9zanM8PVjq+DrnOgCM23VlX31QPDX/QH84yQPOeQAYswfKftq6GxIjLT3g/xHvfwKA8Tim7KetM9Lig/6xJKc49wFg1E5Jg79+RTwt3YeTfMfvAAB07Ttl/2yttsfTL5N8KMlNfhcAYJluKvvmL8VTu11RCvpPRgEAS/Snsl9e0fZBiKeOM0pJAwCL96GyX7aeePqrjyU5wRgA4AlOSIvfIC6ell3V3zAGAPiLb8SrM+JpKe4uJ8iVRgEAubLsi3cbhXhammuTHJ3kVqMAoMVuLfvhtUYhnrpxUTlh7jMKAFrovrIPXmQU4mk0Ti8nDgC0zdFlH0Q8jdon49MFALTLx8r+h3gasw8mOdkYAGiBk8u+h3gal/nlRDrHKABosHPKfjffKMRTL9yZzuu/FxsFAA10cdnn7jQK8dRLN5QTyzOgAGiSK8v+doNRiKd++J90bmnOMQoAGmBO2df+xyjEUz9dXE6024wCgBq7rexn3pIingbi6+WEm2sUANTQ3LKPfd0oxNMgnV5OvHuNAoAaubfsXx6CKZ6G4qRyAj5oFADUwINl3zrJKMTTMB1fTsTHjAKACnus7FfHG4V4qoKPJznKGACosKPKfoV4qowPxyPtAaimD5Z9CvHk5AQAf7kXT3X2eDlBP2IUAFTAR8q+9LhRiKcqe1RAAVChcHrUKHprOSPoi4fz1zeQv8c4ABhCOB2V5BGj6D13nvrnkSQfiPdAATBYHy77j3AST7X0WJL3xxv1ABiMD5Z9x7MHxVPtHZXkffG6MwD98WjZZ44yCvHUJMek8/6nPxkFAD30p7K/HGMU4qmJjk3y7iR/MAoAeuAPZV851ijEU5N9OskRSe40CgDG4c6yn3zaKMRTG5yc5F1J/s8oABiD/yv7yMlGIZ7a5Iwk/5LkOqMAYBSuK/vHGUYhntro3CTvTPJ9owCgC98v+8a5RiGe2uy/yi/ChUYBwFJcWPaL/zIK8URyVZK3JznLKABYjLPKPnGVUYgn/uqmJIcl+ZxRALCQz5X94SajEE880d1JDo3vwwOg48NlX7jbKMQTS/ZIOt9LdGiS3xsHQCv9vuwD748v+BVPdO3fkrwlbtMCtM1N5fr/b0Yhnhi9M5McnOR7RgHQCt8r1/0zjUI8MXaXJnlzkrONAqDRzi7X+0uNQjwxfjckOSjJcUYB0EjHlev8DUYhnuidP6TzjI93JplnHACNMK9c199ervOIJ/rgk0n2TzLHKABqbU65nn/SKMQT/XdOkv2SXGAUALV0QbmOn2MU4onBuSrJm5J81igAauWz5frtq1bEE0NwdzrPAnl7kt8ZB0Cl/a5cr98STwwXTwzdcUn29bcYgMq6qlynfWpaPFEh5yfZJ8kZRgFQKWeU6/P5RiGeqJ4bk+yV5H1JHjQOgKF6sFyP9yrXZ8QTFfV4kmOS7JnkR8YBMBQ/KtfhY8p1GfFEDXyj/OKebhQAA3V6uf5+wyjEE/VzY5K9k/xLPLkWoN/+UK63e8fLdOKJ2js2ye5JLjMKgL64rFxnjzUK8URzXJJktyTHGwVATx1frq+XGIV4onnuSXJYkjfEN3cDjNcN5Xp6WLm+Ip5osDOS/FOS04wCYExOK9dRz9YTT7TIjek8tO3NSX5hHABd+UW5bu4TbwoXT7TWiUleleRsowBYqrPL9fJEoxBP8JN0PiXy1iS/Mg6Av/Grcn3cvVwvEU/wF59J8vIkZxkFQFKuhy8v10cQTyzWT5K8LslBSW41DqClbi3XwdfF3SYWMSGrP8cUWJJNk7wzyRuNAmiRLyb5RLwhnCWYmEnTTIEl+W2SbyW5Ocn6SdYxEqDBflT+wviRcv0D8cSYXZ/k3CSPJdk6yUQjARrk4XS+VuWQJFcZB+KJXvlTkkuT/CDJk5NsYiRAA5xfoukL5ToH4omeuz2dT5/ck2TjJGsYCVBDtyR5f5J3lOsaiCf67pok3yz//LlJJhgJUAOPp/NFvm9O5246iCcGal6Si5NcnmT1dD6dB1BV30zn8QOfL9cvEE8Mze1JvprOdz49PcnaRgJUyE+SvCfJEfESHeKJirk2nfdD/THJ9CQrGwkwRPck+Wg6L9H5FB3iicp6KMkV6XyCJek82gBg0D6bzkt055brEognKu93Sf4znTdkrpzOnSiAfjs7f31f0++Mg37w9SwMysuTHJxkB6MA+uCSJCek860IIJ5olDeUvxU+zyiAHrgyyYlJvmwUiCea7oASUTONAhiD60o0fd4oEE+0yYolog5M8kzjALrwsyQnlWjyRnDEE621cpL9S0j5zjxgcW4qwXRyOo9DAfEEC0XUfnEnCuj4WZJTRBPiCZZupSRvKst7oqCdrkvyhbLmGwfiCbr3xrJ8Og/a4cokXywLxBOMw25J9k2yo1FAI12c5EvpPOQSxBP00A4lonY3CmiEr5ZousQoEE/QX89OsneSvZKsZhxQK/cmOT3JaUl+bByIJxistUtAvSHJ5sYBlXZDOk8CPz3JXcaBeILh2yPJ65PsbBRQKd9O8pUkZxkF4gmqaesSUXskeapxwFD8psTSV5JcbRyIJ6iH1UpA7Z7khcYBA/G9dN4EflY6720C8QQ19YJ0Hnewa9yNgl77TZJz0nnMwBXGgXiCZplcAuq1SV5mHDAuFyX5WgmnB4wD8QTNNz3JPyV5dZIZxgFdmZPkG0n+I8n1xoF4gvbavkTUq9J5/AHwV3clObdE06XGgXgST7CwiUlemeQVZa1qJLTUfUm+WdZ5SR4zEhBPsCyrJHl5ktlJdkmyspHQcH9MckGS85N8K8n9RgLiCcZqSjoP31ywphgJDTEvnYdYLljzjATEE/TaSkl2SufTei9L8jQjoWbuSOeTchcluTDJfCMB8QSDtF2SHcp6tnFQUT9OcklZ3zUOEE9QFZskeUlZ26fzvikYhvvT+WTcf5V1k5GAeIKqWz7Ji9O5M7VdOt+5B/10dTp3lb6b5L+TPGIkIJ6gzqal8x17C9ZmRsI4/TSd75JbsH5tJCCeoMk2SPL8hdZ0I2EZrk/yg4XWbUYC4gnabFqS55a1TTov861oLK31UDovw12V5IdlubME4glYiuVLQG1V1pZJnmksjfWzJD9Kck1ZV8d7lkA8AeP2lCTPKmtmWZsbS+3ckOS6sn5S1m+NBcQTMBiTk8woa3qJqc2STDWaoZubzpu6b0jn/UpzynrAaEA8AdUzNcmmZW1c1kZlTTCennk8yS1l3VzWjWXNNR4QT0D9LZdkw7KeUdb6SZ5e1lON6Al+k+QXZd2e5Odl3VrWo0YE4glor8lJ1i1rWpJ1yppa1lolsFZrwM96bwmju9O5SzQ3yZ1l/TrJr8ryMhsgnoBxWzGdN7A/JcmTy1qtrCllrVJibHKSlZM8KcmkdL5cecWyli9ruSQTk4yUtcCfy3osnTs8j5T1UFnzkzyY5E9J/lhC54F0vp5kXln3lvX7sn5b1kMOIzBayxkBMEYPpXN3xrOHgFb5/3PElIRugQnVAAAAAElFTkSuQmCC;fontFamily=Manrope;fontSource=https%3A%2F%2Ffonts.googleapis.com%2Fcss%3Ffamily%3DManrope;" parent="1" vertex="1">
          <mxGeometry x="148" y="108.56" width="28.16" height="28.16" as="geometry" />
        </mxCell>
        <mxCell id="OhbVSFWdRjhHsJU15Zuy-6" style="edgeStyle=orthogonalEdgeStyle;rounded=0;orthogonalLoop=1;jettySize=auto;html=1;exitX=1;exitY=0.5;exitDx=0;exitDy=0;entryX=0;entryY=0.5;entryDx=0;entryDy=0;strokeColor=#7EA6E0;fontFamily=Manrope;fontSource=https%3A%2F%2Ffonts.googleapis.com%2Fcss%3Ffamily%3DManrope;" parent="1" source="OhbVSFWdRjhHsJU15Zuy-7" target="OhbVSFWdRjhHsJU15Zuy-32" edge="1">
          <mxGeometry relative="1" as="geometry">
            <mxPoint x="240" y="138.68" as="targetPoint" />
          </mxGeometry>
        </mxCell>
        <mxCell id="OhbVSFWdRjhHsJU15Zuy-7" value="" style="shape=image;verticalLabelPosition=bottom;labelBackgroundColor=#ffffff;verticalAlign=top;aspect=fixed;imageAspect=0;image=data:image/png,iVBORw0KGgoAAAANSUhEUgAAAk8AAAJPCAYAAABlxzBuAAAQ/HpUWHRSYXcgcHJvZmlsZSB0eXBlIGV4aWYAAHjarZppdlwpkEb/s4peAhAMwXIYgnN6B738vvFSklW2ymWXS2kr05kveRDDN4CD/d//3vA//NTYNJTatY3WIj9llJEnLzR++7G359d7KZbn9/tPevudwpcfZJ6FZ3m92cvbp/L2/vv17eOZgb74INXvviAft8mfb9zn2/s55r/MqOwk8fOPfvt779F77bW6WRphaK9FvW4R3ofhwsVQ8nyt8ej8rbzuz2Pw0DjjTiWeuOPisdNImVvfVNIJaaabLB2ed9rMsWTLneecd5bnPZWeR94SJUnxR7q5y5AjKll2NhEpQfLHXNJz3/HcbyflzidxaU4MlvjKTx/hny74lce9OxKjlFh9eosV88rZ85A8jOK/uYyEpPuWt/oE+P3x8RM+JVbIYH3CrCxwxvUaYtX0rbbkKQDhusrzq75SP561/FRJ4d6VySQhBbElqaml2HPuKRXJSoImM89S8iIDqdZ8mGQuIo3cKHXEvflOT8+1uebX+7QK+anSpJObIZNklVKpn16UGppVaqm1ttqr1lFnaNJKq6213rznZpdeeu2t96599KmiRas27ao6dI48hJaso40+dIwxJ/ecJcw6+fbkijlXXrLKqqutvnSNNTfls8uuu+2+dY89Tz5yyqmnnX70jDMtGaUUrFi1Zt3Uhs1LrV255dbbbr96x50fWXvL6g+P38haestafjLl1/WPrPFu7z7QM0RynKmeMzKWSyLj3TNAQWfPWdRUSvbMec7iyHRFzUyyem5OijOkRgqLpVxv+sjdt8z9ct4Csf6nvOVfyVzw1P0HmcvB5Lu8fZG140i4n4y9utBjGoXuu9Fm1pnXCcIk/aVy8Z88hz8d4PcGWrPeWK9mu2u3O0c5pEhkg5m7pju0hL3G5i21U/epnYhAZZv48JylN5CYV9XWPY2uKlydDy/ytG2VYc+Ne9USbpQ2LuEf/fbaruRCvCkTMNsK1Sfn2qi7kKDU7yrFB94673xenW6Qy9Zw6pVZM3+owXOUrA6jjit/mpfP85I5/cNz+NUL//bZo0EsAsF4D8UrEGsrZfHEqHX6dqS1KrQ3qS1bYFi79BHvqNqS23T4NTXcMvyi86yXPlvWC+vPz0BvF315TS1iMZ3CgG/pPwqFPpmOf/AcfvFC1nXPsKc4SrNThHUSgEm6nziF+yqa7+KUJ+Uh2ek8ndbtJOGavGzwXO/yAVeW2jelcQvRCz+7pEzt9OocN72yVBfQ+lRG/P45/N0Hv/v8aSBf1V1yXpV7DtO5x6ukgi0/i1KrdVmIzfOYZW5gJ/driMrjz+vVb6DnvOOwdl0/uyKc/BRX7JXhXllaLf8+koTf/cKiOXfsoIoZbEXrljNB1jA6BKLohF267QZoo5Wb7b1pi3iXz5RJbofTJbBN31XviomEypp3Aw66ewwDkC9PgDNRIsFnodSIX92j9HOopbZs9oEeHyBZn6MrDNSHlHPgsQNr9TzDFjMGnkzPuGmmDb9oVarWhPUUCMhkgkxex4SyIjuPs0mgH/sUuaeW2xP5pgxINFHYMqgA7m652ARtbULeZUxZdc8F8dVzkKi3zT0OFkJmg6aAy7SKEsovcvzKsNmeexoabB1t205OfUBp+I+Rwm4I16rjgQ5I7gCrBmsm0wH39iisAQHncGooY3Ryb1KdLCVdhQOORdIQEICdAElbgjzddg9qQe6alF9xdaAzlZ2ZxVZA+TgKoRPOuioscsPH80qvYZW9h9TVXVpcMzrUSDtQPxf3rjqL5tYVIENVIOFRDS1pjupV4b2vD/MEFIwntdmd0nRxqcHtujFcF0HqqEJJiPdIm6PVkfsY1ggAU7RdkRB6cxnBZluYFIM9rJR9ckX2/4tOCT98sPpsVAtL96BH8gPt2SWv/CRXb408EqtjrKwhI+4m0CFO4p/RU4iTiYhGHR2UVNynOyS0c1ZLdpRhO3iDv5mS2r4unIB7nJGRui1hACGLFY3mlT2rJmcYSHzEQokvxxs5dXa6ouSjr7m3/D2sBzmrWxJaka7L1Kn2tdHz1rjdXhR/MWSZt6Fe1Fiatx9pyKd86PPerSLtJzHCDNTI/WdHPo5bRCmDCDusdneGDVduCDUa34DugxhoGxGJpkMkXpTZ6xbB78GgqD3QE7WSBFS43QaaI4EoLAMNW/mFqECJCIm/ddP9jVVwnzm8wGERq4cmq4Pftfe0cKu0EOCt8jAKwNHpVqJ6DdByt6nt7TvUFZoD4O4jYIhQlwvfw7/XMUCf0hsjFxrS7+v6dvBlWgiNPVDOqNq++LBM6rqOaF1WC4pGftUr8DEmX2cIYd4dAb7SreglRK8zTa9Dv5Q5iC0NZSH5LywJAGzUgquRdhKNj4luFSknB4O/km3UdfcJiqTsQov01kcSlnZKoBpXYlJ6wO5pACsSZNFA+kg+rtYu5hTmS14H3X+87trlX4lCowdYqAZX5rsZ+QcTAUsmD9YdRb8RzvrqupJ/lNDTO5fiAan51g4ySfV7M83u+CMX5sCK9DL8zp3uLzMd1/Ga6HEafkXo5u59Z3S8p6SDI91AeUUxPqcW4JxJ7rlIAEx7iYplm+EBWnKFL7aGoZBOGzT/HPmP8sfpokQhrpTb8fzEZljirVAAdM49XecMvsTtSAIVFqleV81MaUKBSpdJoJsJZuXzvK7RGJDCRQOncSAwZZVg/MTWUGeIG4S2RFCvC+ZuQXaHGiAXN1RDFXMXQwseLzt8UgN+dwf2aEtgeENOqd0xm+Me8hFNtRGkg8/XWglmFiobLT8yrfSmZC0N5/SnPUqiNFgYlaBOmyk+cjQWMIyImSL0oxlNNzIxcohx8RPjl5fT4R9jfxv5GSEbfYk9oOhneAbYgr5ShBVZr00As8eBRIeBzMsZB1BhC6jDRvb4aYD374fvBkCUwurA5rNpAevCPtsHnCBgEco8F1gD3zuulNaYbFHKqmBFEw11mxRAgBtBQ29/6FdC5w72GIpk0AcTJx6lqKFJKbdieURkr6vG19I+1gAEf6ziiwW7UKbGEQCf1+aaU8JXwflq2C+C8wzw/v3wewNMdS1B4gGQAaum2CkSkm7P0j6y/mXOP9fTk3XxYU8HgNSpARybu4YZgZqM3wPt4MLb40bj+abjRKLJxBEY6mOjM+ib1bCilrlw0zcF6tm0OrpKwl0s4ZjrlOKmnyompDflUuENFoRyaAAePYnWiAg9gKwrXNmZb0uw89OUofmOA/oiJbgKtzz2eooMBEarMSStJh0KGRMaTxWgpJDwfJSZAGOIvJLbigFF73swQx0qEQ0EEMyCHeBZpui7JchPrnRfHFND8WZg2gUtmDo3scPA1xQMiu7og5sR2cBlPURlarnNN/NcOkn0HRVK3uUV7Uv/H64AKsEIGA/Ih0YDpXt82+klBcRzQXQBerADlRU9RshY+nqvDBUffgkUsDpwZ2QnDoe8EvZN6hTiArQTJbQqHt8Lqt3iPi5TxwqOwrOoogVJ0ZGYRPjFANDNICTaQnWUe4CjSEUdz7oRSiCWekn5JgDiFUNAomhHEuyksOi8DcmIQiQHibF7MKKb6VpqHpQkuDpOBHQ1YtjgLvw1VdzRzq6n3MSQMkLH/PJBpdHmhAuEpIYoxQFzPZWCQCaImZW5kHOta+7eqeoVxaWegctHBy7trOEu8eBqaoUgfTP1Qs7IgjLWOenoqx0Log7gLBFCpsafnRDSoK+m+n7iT6/53N0LI3dg+OhgwQR9T+VGgH7y4kRUT8JU0Xw6n17EaZTs6AlfyA1jcjlw6Fstiaz65vyiKd2D349pkYpvE3tN67tJhY9wPlNyzRHTpwnFr6bE0lDA3e2PlGfPEDzafqOR1L3D24Dr84AFFs2KM0ICFt/7xGGCqWvsU+r7VgAsGsYGFTwv1lssivWoGDoKPHFlfCFXYwaOzj9bbvhqvX9dbqs+vXp/Hrnwdeh+P3LhLXSf8umI/WT0SahvUXyd0r/WWviVYvtLrf0wvdfkwvel5pIm4onHYWlo4IiPfHWp6/BHV+YGu4In0S0i7YVcvSucDivRXFcL3s9owrYWz+D1BCxwVkgpQXxhGY2gYDD7LTis4/od5dVgh+g2i7cAc5vq+2eYFXP/jiPBuiqqkXaprk8dtRsczrgHhcx0D2rk4IbSwe4fsobmw6t0LICWRITpuIKvwSHjAp+NTCrtAMeAFTPq7oGBNMZWVGM01CvWNuSuC3eCwr1YoOpGOR+Xw1ifvGuK/oR2U7KnFYGbgb4xFxrYel76vtP1445Wd98SHYBRvb5dUZ+SYGWC3Iy5aYJgRqYbgF+oA4StAvgzEZaCiQBMzXeFN24ib14IulQNZ4XUZumT8GJ0rh4XyWsiohamhyQQuRzS6Ml8y2JjaE1mwxXiw5BZIw9jGbgS6szLCFatJNkzggZAZ2RUPHCYGxKVYLdIu1K1YL2TEp4EpZzy/jv3itZvADdUwzvF6UJdjZAOhFPFMcChJB9XgoO9LrFd9gspwTrhSUdHyUyon2/panyj7xMr8t2QxyegPHw/EqqldkaOWg0bV1spDQWfS/OK6sj/gouBy5GY2x0rzLlfJcLMqLBwfNMGzeL7IQvYg63dtsxzIvgEbS4MPCLSN1O30aN4Uvh063TFVfR9pyTY9p2iU65v3m/MZrkZxkb2HEAO7kJ4wNd+b8RWpD0rb1GmlAl11XGYeACLWIiI/kVOuBEhJFQ21tJQeF1AiFqIxPXdKuZhfnokI+Hr0Quftm0AotDO11bVfSphkVKXO9Wjm3EShZP7wb1TtQ38MkUrE8OKhVh+NqAATXZhBlZ1GNJyRucBWkaz4tcacoBPMk5I3SLVOFhQMVFvevTeRGjRpMk3HMTNvTak4vTZ+k7+e68hYJTasooZwkQn9b0FuAdnpVQ+DiCHAj41kACdAgBio6gU/HzGQr0q8pRf2oAPf7Oh7rXLDOMgaTiltq5j514tglWAHdJXpIGxzcXrHSd0QJP+gGMevD4ZFrhu3Y8AKspqJhxJnXvSK/9UwyESF/V9eIz7XmajI0aru02EXX0kGeY2gg9oZ0w8y1TX3m0Px2hgH44trmLMK3hQeuI7rgtdF55NT2/z7Ju9q+6C6HzAzANbH9qR7UcE3QGTb7rcv6igzgQKrpUkoNQC4pBOgUx9ezh9vVOLzPUt4OOKvPjOS/IldPKQEdr+tVLCOvCMuicDwqgJsK80dyqsittCW24hquNZx8K5GG9Fe1X1U6uV6JQMF2gYEKQ39ro/OZfZi7pb4wip8FfiVgGRn7Dxzho7Af7UFPLPdzZapDidj4uzgRMdBEfOplHiKUNzBeKRHUnI2G6TqOgHgUR30O9wwY9F406x9BrBhYWjqX4wbXAoxNBjHQRDVz3oHKoDBn5QK6TbYS5WU2BC8/9EgcC/3Jc6Wu4cVvJNKeEDd7lgGm3J+1gbkAYqedtHDf/qyOG3DzN/cs6Gzn9OZHw7j7wQo09HMr6D5ZvwGH0/NSJM43Xo+H7k+Bw4+mGnvk4cvx1LMtDXl/hBlu8LMdzbeSTG82fHiOGPzh9/GOjtQPJPziPD5wPJPzmPDJ8PJP/kPDL8i4PLL0/awucDyT85jwyfDyT/5Dwy/Bfnjz8Z6B/OI4Hn7fq6L70x+wYoqhZ9OTaSAJvuG9G1I/Jil7G5ZIHQYymdPkF48S3cV60g098qwYPvzja8l4L/3wLf/CENwDFi/cwDSbYBrcHX8I41bWVExJw7L7SE75tEV7n+/03CGYi4cz6O+OevH/H/5Tn8R632bwaiwqjH8P/KHqSHM8IirwAAAAZiS0dEAP8A/wD/oL2nkwAAAAlwSFlzAAAuIwAALiMBeKU/dgAAAAd0SU1FB+QEHQ4iBlK9FKkAACAASURBVHja7d17/OZznf/x53zHaTIMKYaRxDrEzI4ialONFC2m4+ZQcthyiorKpiMpHVbFViJqQyLaosiitZFasSp+QzksKcXQyaCMU35/XO+paczh+n6/1+FzuN9vt/etw62mvq/P5/t5P+ZzXdfnmpDVnxOAMVguyZPKmlTWSmWtWP5xhUXW8uW/t2BNLGtkoTWhrAUeL+vPC63Hynp0ofVIkocXWfOTPFT+cX6SB8v6U1mPOozAWC5+AAubnGTdsqYlWaesqWWtleSpSVZrwM96b5LfJLk7ydyy7izr10l+VdYDTgtAPEG7f+83LOsZZa2f5OllPbVFs1itrI2W8Z/7TZJflHV7kp+XdWtZ7mBBi0zwsh001tQkm5a1cVkblTXBeHrm8SS3lHVzWTeWNdd4QDwB1TM5yYyypifZPMlmJZ4YrrlJfprkhiTXJ5lTlpcBQTwBA/KUJM8qa2ZZmxtL7dyQ5LqyflLWb40FxBMwPssn2TrJVmVtmeSZxtJYP0vyoyTXlHV1Op8gBMQTsATTkjy3rG1KOK1oLK31UAmoq5L8sKxfGwuIJ2izDZI8f6E13UhYhuuT/GChdZuRgHiCJpuW5IULrc2MhHH6aZLvLbTcmQLxBLW2fJIXJ9murK2NhD67Osl3y/rveM8UiCeogU2SvKSs7ZOsYiQMyf1JLk3yX2XdZCQgnqAqtkuyQ1nPNg4q6sdJLinru8YB4gkGaaUkOyV5WVlPMxJq5o4kF5V1YTpfmgyIJ+ipKUl2XmhNMRIaYl6Sby+05hkJiCcYq1WSvDzJ7CS7JFnZSGi4Pya5IMn5Sb6VzvumAPEESzUxySuTvKKsVY2ElrovyTfLOi/JY0YC4gkWtn2SVyd5VZK1jQP+xl1Jzk3yjXQ+wQfiCVpqepJ/KtE0wzigK3NKRP1HOk88B/EEDTc5ya5JXpvOJ+WAsbsoydeSnJPkAeNAPEGzvCDJbiWcnmoc0FO/KQF1dpIrjAPxBPW1WpI9kuyeznfJAf33vSRfTXJWknuNA/EE9bB1kteXcHKXCYbjNyWgvpLOd+6BeIIK2qNE085GAZXy7RJRZxkF4gmGb+0keyV5Q5LNjQMq7YYkX05yejqPPwDxBAP07CR7l3BazTigVu4tAXVaOl9YDOIJ+miHJPum8yZwoP6+muRLSS4xCsQT9NZuJZp2NApopItLRJ1tFIgnGJ83lvU8o4BWuDLJF8sC8QRdWinJm8qaaRzQStcl+UJZ840D8QSLt3KS/ZPsl+SZxgEk+VmSU5KcnOSPxoF4gr+NpgOSbGIcwGLclOTzIgrxRNutWILpwLjTBHTnZ0lOKiH1kHEgnmiTA5IcFO9pAsbmuiQnlogC8USjvaFEk0/PAb1wZYmoLxsF4ommeXmSg9N5yCVAr12S5IQk3zIKxBN1t22SQ9J5yCVAv52d5LNJvm8U9MvETJpmCvTDJkmOSueNndONAxiQ6Un+OclTktyW5HdGgnii6lZN8s4STdsZBzAkWyfZNZ1P9V4Xn8xDPFFR+6Tzxs3Xp/PsJoBhWjnJi5O8rMTTtUaCeKIqZiU5Psm7kqxtHEDFrJ3klUmelWRuktuNBPHEsKyX5Mh07jZtahxAxW2aZO8kU9J52OY8I0E8MUgHlWjaOckE4wBqYkI6z5nbJcmjSa4xEsQT/bZdkk8neXuSNYwDqKk1yl/+toyX8hBP9MlTk7w/nYfQbWYcQENskmSPdN5c/v+S/MlIEE/0wh4lmnZNMtE4gMbthZ0H+r44yf1JrjcSxBNjtWmSjyU5Jsk6xgE03DpJXpPkaUluTvJbI0E8MRoHpvMVB9sbBdAyz07yj0kejjeUsxi+245FPSvJ4em8VAd9N2vbLcf137933v25ds7NBkm/nJXk2CQ/MQrEE4vzliT/kmRdo2BQHv/91eP671/+gx9n1uwDDZJ++lWSf03yGaMgSUaMgHTuNn01nUcQCCeAv7VuuT5+tVwvEU+03EFJzk2ym1EALNVu5Xp5kFGIJ9pp0ySnJvlckqcbB0BXnl6um6fG11KJJ1plzyT/kc53PAEwenuX6+ieRiGeaLY1kxyX5MtJNjcOgHHZvFxPjyvXV8QTDbNDkrOTHGoUAD11aLm+7mAU4onmODydT4nMMgqAvphVrrOHG4V4ot42TXJaOs8nWd04APpq9XK9PS3eTC6eqKVXJzkjyV5GATBQe5Xr76uNQjxRDxOSvLf84m5pHABDsWW5Dr+3XJcRT1TUpklOT/LhJJOMA2CoJpXr8enxMp54opJmp/PQNs8cAaiWPcv1ebZRiCeq47AkX0qyjVEAVNI25Tp9mFGIJ4ZrrXS+5ftTSdYwDoBKW6Ncrz9Trt+IJ4bwt5gvJDnEKABq5ZBy/fZqgXhigHZNckqSXYwCoJZ2KdfxXY1CPNF/70hycpIZRgFQazPK9fwdRiGe6I/V03mt/BNJphgHQCNMKdf1T8U3QYgnemrzJCfGpzQAmuqwcp3f3CjEE+O3fZLPJdnNKAAabbdyvd/eKMQTY/e6JCckeaFRALTCC8t1/3VGIZ4Yvbel8yyQTYwCoFU2Kdf/txmFeKI7yyf5UJLjkzzZOABa6cllH/hQ2RcQTyzBWuWX5X1GAUDZD46PJ5KLJxZrkyTHJXmzUQCwkDeX/cHbOMQTC9kmnWd87GEUACzGHmWf8JUu4okkL0nnAWk7GQUAS7FT2S9eYhTiqc1eVX4RtjUKALqwbdk3XmUU4qmN9kzyr0lmGgUAozCz7B97GoV4apP9k3w8yd8ZBQBj8HdlH9nfKMRTG7w1yceSrGMUAIzDOmU/eatRiKcmOzzJR+ObswHojdXLvnK4UYinJnpvko8keZJRANBDTyr7y3uNQjw1yVFJPpxkOaMAoA+WK/vMUUYhnupuYjrfS3SkUQAwAEeWfWeiUYinOlo+ydHxPXUADNb7yv7jC4X7xMtI/bFCqf/3GAUAQ7Bg//lgkoeNo7fceepPkAonAKoQUEfGjRLxVHEThBMAFQyoCUYhnqrqyHiPEwDV8r744JJ4cnICgL/ci6d6e1c8WwOAajuq7FeIp6E7tBS9Z2oAUGUTy351qFGIp2E6sJyIk4wCgBqYVPatA41CPA3DXuUEXM0oAKiR1cr+tZdRiKdBek058aYaBQA1NLXsY68xCvE0CDuWE24DowCgxjYo+9mORiGe+ukfyok2wygAaIAZZV/7B6MQT/2weZIPJHmeUQDQIM8r+9vmRiGeemmdcmK5tQlAE+1Y9rl1jEI89cJK6dzS3NUoAGiwXct+t5JRiKfxOjLJ/sYAQAvsH181Jp7G6R1JjjAGAFrkiLL/IZ5Gba90Xv8FgLb5QDxEUzyN0svKibOqUQDQQquWffBlRiGeurFFOWE2NAoAWmzDsh9uYRTiaWnWSvL+eJYTAKTsh+8v+yPiabHen+TVxgAAf/Hqsj8inp7giCQHGwMAPMHB8elz8bSIPVU1ACzV+8t+KZ6MIC9I8r4kTzIKAFiiJ5X98gXiqd3WKyW9id8JAFimTcq+uZ54aq/3JXmp3wUA6NpLy/4pnlroiCT7+R0AgFHbLy1+A3lb4+mfkrzXuQ8AY/besp+KpxaYmc7txsnOewAYs8llP50pnpptUinlmc55ABi3mWVfnSSemus9SV7rXAeAnnlt2V/FUwO9Pt7nBAD98N6yz4qnBtmiVPEE5zcA9NyEss9uIZ6aYblyQDdzbgNA32xW9tvlxFP9eZ8TAAxGK97/1PR4emWSdzuXAWBg3l32X/FUQ+un8/TTlZzHADAwK5X9d33xVD9HJNnGOQwAA7dNGvz1LU2Np/2THODcBYChOaDsx+KpBrZMi7+sEAAq5IiyL4unintXkmc4XwFg6J5R9mXxVGHvjMcSAECVvLbsz+KpgrZtYt0CQAO8q+zT4qlCJpYD8xTnJwBUzlPKPj1RPFXHvyTZxbkJAJW1S9mvxVMFvCDJ4c5JAKi8w8u+LZ4qcCBWdz4CQOWtngbc8Kh7PL0zyWznIgDUxuzU/NN3dY6nreLlOgCoo8PLPi6eBuydSdZ0/gFA7ayZGt99qms87Z9kN+ceANTWbqnpd9/VMZ42SPIO5xwA1N47yr4unvrs7Uk2dr4BQO1tXPZ18dRHL09ysHMNABrj4LK/i6c+WKGOdQoALNPbyz4vnnrssCQvcn4BQOO8qOzz4qmHpic51LkFAI11aNnvxVMPBzrVeQUAjTU1NblRUod4ekWSNzqnAKDx3lj2ffE0Tm9zLgFAa1R+3696PL01yXbOIwBoje3K/i+exuBpcdcJANrobaUDxNMovSU1fGQ7ADBuG5QOEE+jsHUqfssOAOirt5YeEE9dekuSFZ03ANBaK6aid5+qGE+7JNnTOQMArbdn6QLxtAyHOFcAgKp2QdXiae8kOzpPAIBix9IH4mkxJiZ5s3MEAFjEm0sniKfFDGZr5wcAsIitU6EbLFWJpylx1wkAWLI3l14QT8VBSTZ1XgAAS7Bp6QXxlGRqVYYBAFTaQaUbWh9PByZZz/kAACzDeqUbWh1P6yY5wLkAAHTpgNIPrY2nA1KB228AQG1MzZBvvAwznp6WZH/nAAAwSvuXjmhdPO2XZE3HHwAYpTVLR7QqntYZ5g8NANTefqUnWhNPb4r3OgEAYze19EQr4mmNYf2wAECjvKl0RePj6Y0Z4pu8AIDGeFrpikbH00pJ/tmxBgB65J9LXzQ2nvZNsonjDAD0yCalLxobT+46AQC17otBxtMeSbZyfAGAHtuqdEbj4mkfxxYAqHtnDCqeXppkB8cVAOiTHUpvNCae9nZMAYAm9MYg4ml6ktc7ngBAn72+dEft42kvxxIAGJC+d0e/42m1JG9wHAGAAXlD6Y/axtOe8QXAAMDgTC39Uet4AgAYpNrG005JtnH8AIAB26Z0SO3i6XWOHQAwJH3rkH7F09+JJwBgyPH0d3WKpz2STHDcAIAhmZA+fd9dv+Jpd8cMABiyvvRIP+LpVUk2c7wAgCHbrHRJ5eNpN8cKAKiInndJr+Np/SS7Ok4AQEXsWvqksvG0a7xRHACojgnp8Y2dXsfTax0jAKBietonvYynWUm2cnyg2raYsXG2mLGxQfTBoQftkdWmrGIQUD1blU6pXDy9xrGB6ofTZeeflMvOP0lA9dipJxyZ4445LJedf5KAgmrqWaf0Kp5WEE9Qj3CasurkTFl1soDqcTjtvcfOSZKZ0zcSUFDdeFqhSvH06iRrOy5Q/XBaQED1PpwWEFBQSWuXXqlMPL3KMYH6hJOA6l84CSiotJ70Si/iaS3xBPULJwHVv3ASUFDpeFqrCvH0yiTLOx5Qv3ASUP0LJwEFlbR86ZZKxBNQ03ASUP0LJwEFlTT0eHpGkpc5DlDvcBJQ/QsnAQWV87LSL0OLp5c7BtCMcBJQ/QsnAQWVM65+GW88zTZ/aE44Caj+hZOAgkoZV7+MJ542TLK9+UOzwklA9S+cBBRUxvalYwYeT7uYPVTDUe/ar6fhJKD6F04LB9Q+r3MZhSEa8y/geOJpJ3OHatjn4KNz3fW39OXPbmtA9TOckuS0s76d4088y8kLwzPmjhlrPK2bZAdzh2q4d979mTX7QAFVo3Da5+APOnFhuHYoPTOweHLXCQSUcBJOUHdj6pmxxpNnO4GAEk7CCepuTD0zlnhaNck/mjcIKOEknKDm/rF0Td/jacckK5k3CKimBJRwgtZaqXRN3+PJG8VBQDUmoIQTtN6ou0Y8gYBqbUAJJ2AQ8fT8JOuZMwiougeUcAKK9Urf9C2eXmrGIKDqHlDCCRhP34w2nnyXHQioWgeUcALG2zejiae1k2xrviCg6hpQwglYgm1L5/Q8nl5stiCg6hpQwgnoVeeMJp62M1cQUHUMKOEE9LJzRhNPs8wVBFTdAko4Ab3unG7j6e+TbGiuIKDqFFDCCRiFDUvv9CyeXmSmIKDqFFDCCRiDrnqn23h6oXmCgKpLQAknYIy66p1u4+kF5gkCqg4BJZyAceiqd7qJp+ckWcs8QUBVPaCEEzBOa5XuGXc8Pd8sQUBVPaCEE9Ajy+we8QTUPqCEEzDIeJqQ1Zd5d+rXSdYxS2if1aasksvOPykzp2/Ulz9/3n0PZMqqk8f1Z9x9z++y1pprCCegV+5MMm1p/4Fl3XmaIZygvQZxB2q8hBPQY+uU/hlzPD3PDEFA9TOgqko4Qas9bzzx9FzzA9oWUMIJWu+544mnrc0PaFNACSdgWf2ztHiammRz8wPaElDCCSg2Lx006nh6jtkBbQko4QR020FLi6etzA1oQ0AJJ2A0HSSegFYHlHACehlPW5ob0OSAEk7AWDpoSfG0UXwZMNDggBJOwDKsVXqo63h6lpkBTQ0o4QR06VniCWh9QAknoF/xNNO8gKYFlHACRmmmeAJaG1DCCehnPD0tnW8UBmhEQAknYIzWKV20zHiaYVbVcPxH3p59XreLQSCghBMtsdqUVXLeGcdmixkbG0Z1zOgmnqab0/CdesKReduBu+dLn/2AgEJACSdaEk6XnX9SXrHTi3LZ+ScJqOqYLp5qEk5777HzX/61gEJACSfaEU4zp3ceKzRl1ckCqmbxtJk5VSecBBQCSjjRrnBaQEBVxmbiqYbhJKAQUMKJdoWTgKpXPG2SZJI5VS+cBBQCSjjRrnASUJUxqfTREuNpUzOqbjgJKASUcKJd4SSgKmNT8VTjcBJQCCjhRLvCSUBVP54ckRqEk4BCQAkn2hVOAmroNhZPDQgnAYWAEk60K5wEVHXjaSPzqU84CSjaHFDCiTaGk4Aamo2WFE9PTrKW+dQrnAQUbQwo4USbw0lADcVapZOeEE8bmk09wwnaFFDCCQTUkGy4uHjawFzqG077HnJ0Tj3zAoOm0QElnGjyXwwEVOVtIJ6EE9RqoxFOCCgBVcV4Wt9chBNUcaMRTggoAVUBf+mkCVn9OQv++cVJdjAb4QRVsdqUVbLP63bJ8SeeZRg06rzuxxvIF5h33wOZNfvAXDvnZsPurUuS7LhoPN2YRb67BeEEgIAiSXJTypPGF37Zbj1zEU4A9J+X8GrpL520IJ6mpvOtwQgnAAQUTzSp9NJf4mldMxFOAAgolmpd8SScABBQjDGe1jEP4QSAgGKp1hFPwgkAAcUY42lt8xBOAAgolmrtheNpqnkIJwAEFEs1VTwJJwAEFGOMpzXNQzgBIKBYqjXFk3ACQEAJqDHE02pJVjAP4QSAgGKpVkgyeSTJU8xCOAEgoARUd+MaSbKGOQgnAASUgOrKqiNJnmwOwgkAASWguo+n1c1BOAEgoARUV1YRT8IJAAEloEYZT1PMQTgBIKAEVFdWFk/CCQABJaBGGU+rmoNwAkBACaju42kV4SScABBQAqork0aSTBZOwgkAASWguvKkkSQrCyfhBICAElBdWam18SScABBQAmqs8TRJOAknAASUgOrKiq2LJ+EEgIASUOONp5WEk3ACQEAJqK6sMJJkReEknAAQUAKqK8uPJFlBOAknAASUgOrKchOy+nPuS4MflNnvcIIm+ODHT8lRHz/FIJbh8d9fbQiwFPPueyCzZh+Ya+fc3OQf8z9HkiwnnACA8WrJHaiJjY0n4QQAAqpf8TQinAAAAdWVkcbFk3ACAAHVRxNGkkwQTgCAgOo+noQTACCgujSS5HHhBAAIqK48PpLkz3X+CbaYsbFwAoAaBNTxH3m7eKqCa+fcnH0POdpZCQAVdt31t+SVex7ehB/lzyNJHq37T3HqmRcIKACocDjNmn1g7p13fxN+nMcaEU8CCgCE0yDj6ZGm/DQCCgCEU589OpLk4Sb9RAIKAIRTv+Ppoab9VAIKAIRTnzwykmR+E38yAQUAwqkPHl4uyYNN/elOPfOCJMmXPvuBvv1v3H3P73LjLb/w20Kt3X7HXYbQhct/8GNDoNYmrzwpM2dsnOUmThROY/dQo+NpEAG11ppr5KJLf5h9Dv6g30pouFmzDzQEamuLGRvnsvNPEk49iKeJmTRt9yQbNPmnvHbOzfnFHXfllTu9qG8n5DPWWyfnXXi5304AKhtOU1adLJzG74qJmTTtNUk2bfpPKqAAEE7CqQe+OzGTpu2S5O/b8NMKKACEk3Aap4snZtK0lybZqi0/sYACQDgJp3H49sRMmvbCJM9v008toAAQTsJpjM6dmEnTtk6yfdt+cgEFgHASTmNw9sRMmvb3SXZq408voAAQTsJplM6YmEnTNkrymrZOQEABIJyE0yh8YWImTVs3yevbPAUBBYBwEk5d+tzETJq2RpI3tX0SAgoA4SScuvCpiZk0bVKSt5qFgAJAOAmnZfroxEya9uckR5iFgAJAOAmnZTpyYiZNm5/kPUkmmoeAAkA4CaclejjJByZm0rQkOSDJqmYioAAQTsJpie5KctyCeNozydpmIqAAEE7CaYn+L8nJC+LpFUk2MhMBBYBwYol+kuTMBfG0fZJnmYmAAkA4sURXJPnWgnjaOskLzURAASCcWKILk/z3gnjaNMnOZiKgABBOLNHZSf53QTxNS7K7mQgoAIQTS/SFJDcuiKfJSfY3EwEFgHBiiT6Z5M4F8fTnJO80EwEFgHBiiY5M8sCCeHogybuSLG8uAgoA4cQTPJjk3UmyIJ6S5A1JnmI2AgoA4cQT3Jbks4vG0+wkG5qNgAJAOPEEP05yxqLx9IIkW5qNgAJAOPEElya5IElGFvo3bzeX8Tn1zAuy7yFH9+3P33uPnXPqCUcaNK3bVFabsophIJyE07D9pZMWjqfbzEVAQdU2lRc9/9kCCuEknKrgNvEkoKA2m8rM6RsJKISTcKpkPN1qLgIKqrqpCCiEk3AaslsXF0+/T3K32QgoqOqmIqAQTsJpSO4unfSEeEqSW8xHQEGVNxUBhXASTkPwN320aDzdbD4CCqq+qQgohJNwGrC/6aOFn/OUJM9M8hIz6r1BPAdq9Smr5KJLrzRsWrGpTF1zjfzjS/4hX/3GdzL/oYcNkspaf72188PvfEk41dvZSX6w4F8seufpRvPpn37egZp33wM59awLDJlW/W3cHSjq4PZf3pXzvt2fBxwLp4H5mz4STw0IqHn3PZBZsw/MtXO86kp7wklAUSf7HPzBnHbWt4VTQ+PppnS+NZiaBJRwos3hJKBoa0AJp4F6sPTREuMpSX5qTvUIKOGEcBJQtC+ghNPAPaGLxFNNA0o4IZwEFO0LKOFUjXha9NN2SbJRkpea1WCM5VN4wgnhtGQ+hUcdnHfh5XnGeutkixkbC6fqOzMLfdJuSfE0JcnrzaqaASWcEE4CivYFlHAaquOzyEMyFxdP85McZlbVCyjhhHASULQvoITT0L07yX0L/xuLe8/THUnuNKvBW9p7oIQTwmn0vAeKOljae6CE09DdWbrobyzuzlPSecr4RmY2eIu7AyWcEE5j5w4UdbC4O1DCqRK+n+Qr3cbT9CTbmtnwA0o4IZwEFO0LKOFUGV9Pcumi/+aErP6cxf2Hd03ne1wYolfu/KLc/su7hBPCqUdsSNTBoQftkVPPvMB5Wg27JTmn23jaKIt8gzBAncNJQAFjsHEW+aRdsvg3jKf8B+82M6BJ4ZR4EznQtbsXF05Li6ck+ZG5AU0KJwEFjMISO2hp8XSNuQFNCycBBXTpGvEECCcBBfQ5nv7X3ICmhpOAApbhf8cST3OT3GB2QFPDSUABS3BD6aBRx1OSXG1+QJPDSUABo+2fZcXTD80PaHo4CShgNP2zrHi60vyANoSTgAK67Z9lxdOcdL5RGBBOjQ8nAQWU7pkznnhKkv8xRxBOVQ2nRx97TEABvbTM7ukmnn5gjiCc+uG6628Z/58x5+bMu+8BAQX0yjK7RzwBQwunWbMPHPef88AfH8ys2QcKKKBS8fS/8SXBIJz6EE73zru/J3/etXNuFlBAL9ydLh4SPtLlH3aFeYJwqmI4CSigh7rqnW7j6XvmCcKpquEkoIAe6ap3uo2ny80ThFOVw0lAAT3QVe90G0//L8mtZgrCqcrhJKCAcbi19E7P4ilJLjNXEE5VDycBBYxR150zmnj6rrmCcKpDOAkoYAy67pzRxNN/mysIp7qEk4ACRqnrzhlNPN2V5PtmC8KpLuEkoIAufb90Ts/jKUkuNV8QTnUKJwEF9LpvRhtP3zFfEE51CycBBfSyb0YbTz9I8kszBuFUt3ASUMAS/DKj/B7fkTH8j1xiziCc6hhOAgroRdeIJxBOrQonAQUMI54uTjLfrEE41TWcBBRQzC9d0/d4ui/Jf5o3CKc6h5OAAkrP3DeIeEqSi8wbhFPdw0lAQeuNqWfGGk8XmjcIpyYRUNBKY+qZscbTr+KN4yCcGkZAQatcUnpmYPE05loDhJOAElBQAWPumPHE0wXmDsJJQAkoqKkxd8x44unW+K47qISj3rWfcKphQM3a9tlOXhiOS0vHDDyekuR884fh2+fgo3Pd9bcIpxoF1L6HHJ3zvn25kxeGY1z9Mt54+pb5w/DdO+/+zJp9YE8Dqu3h1M+A2veQo3Pqmd75AEM0rn4Zbzz9PJ75BI0LKOHUv4ASTjB0F5V+GVo8Jcl5jgM0J6CEU/8CSjhBJYy7W3oVT484FlD/gBJO/Qso4QSV8EhV4unuJOc6HlDvgBJO/Qso4QSVcW7plqHHU8QT1DughFP/Ako4QeXiadx6FU/fSHKXYwL1Cyjh1L+AEk5QKXeVXqlMPD2c5OuOC9QroIRT/wJKOEHlfL30SmXiKeIJ6hVQwql/ASWcoLLx1BO9jKfLklzj2ED1A0o49S+ghBNU0jWlU3piuR7/n/takq0cI6h2QC345/Q2oNaf+QpzhWr6Wi//sJEe/587J8njjhFUO6Bs8P2bLVA5j5c+qWw83d7r/4MAAONwTumTysZTkpztOAEAFdHzLulHPJ2b5KeOFQAwZD9NHx7kPdKn/7NfdbwAgCHrS4/0K57ODsXSLAAADmBJREFUijeOAwDD83jpkdrE0/8lOdNxAwCG5MzSI7WJp4gnAGDI8dQX/YynC5Nc5dgBAAN2VemQ2sVTkpzh+AEAA9bX/hhEPM11DAGAAZlb93i6N8mXHUcAYEC+XPqjtvGUJKc7jgDAgPS9OwYRT9cn+YpjCQD02VdKd9Q+npLkNMcTAGhCbwwqnr6T5BLHFADok0tKbzQmnpLkVMcVAKh7Zwwyns5Kco1jCwD02DXp0/fYDTuekuTfHV8AoM59Meh4+lKSmxxjAKBHbip90dh4mh93nwCA3vn30heNjack+WKSOxxrAGCc7ihdMVDDiKffJfmC4w0AjNMXSlc0Pp4W/LC+MBgAGKu5GdLNmGHF051JTnHcAYAxOqX0RGviacEPfY9jDwCM0j0Z4k2YYcbTHUlOdvwBgFE6OUP88NnIkH/4z8d7nwCA7s0t/TA0w46nXw17AABArXy+9ENr4ylJTkryS+cCALAMvyzdMFRViKe5SU50PgAAy3BiKvB2n5EKDeNG5wQAsAQ3piI3W6oST/OSfM55AQAswedKL4inRYZytXMDAFjE1anQTZYqxdNjcfcJAHiiz5VOEE+LcVqSi50jAEBxcemDyhip4JA+6zwBAKraBVWMpwuSnOFcAYDWO6N0gXjqwmeSPOScAYDWeqj0QOVUNZ6uTvJp5w0AtNanU9FP4Y9UeGifSXKbcwcAWue2VPSuU9Xj6Y4k/+b8AYDW+bfSAeJpDD6d5LvOIQBoje+m4m/dGanBEN19AoD2qPy+X4d4+maSLzqXAKDxvlj2ffHUA8cnmeucAoDGmlv2+8qrSzxdX5eBAgBjcnzZ78VTDx2X5HLnFgA0zuVln6+FOsXTw0k+5fwCgMb5VNnnxVMffCvJCc4xAGiME8r+XhsjNRzyp5Lc7FwDgNq7OTV8VamO8XRbkk863wCg9j6ZGn4V20hNh31ykrOdcwBQW2eX/bx2Rmo89E8kuce5BwC1c0/Zx2upzvF0TZJjnX8AUDvHln1cPA3BJ5Kc7xwEgNo4PzW+69SEeFpQr39wLgJA5f0hDXjVqAnxdEW8fAcAdXBs2bfFUwX8a5ILnJMAUFkXlP269poST48l+XiS3zo3AaByflv26cfEU7V8vxwYAKBaPl726UYYadjB+USSrzlHAaAyvpaaf7qu6fG0oG5/7lwFgKH7eRr4qlAT4+lHST7mfAWAoftY2ZfFUw2cnOTzzlkAGJrPp6bfXdfWeFpQu1c5dwFg4K5Kg18FanI83V4O3HznMAAMzPyy/94unurpvCQfdR4DwMB8tOy/jTXSgoP4kXh8AQAMwtfKvttobYinR8uB/KlzGgD65qdlv31UPDXDteWAPu7cBoCee7zss9e24YcdadGB/UqSY5zfANBzx5R9thVGWnZwvf8JAHqrFe9zanM8PVjq+DrnOgCM23VlX31QPDX/QH84yQPOeQAYswfKftq6GxIjLT3g/xHvfwKA8Tim7KetM9Lig/6xJKc49wFg1E5Jg79+RTwt3YeTfMfvAAB07Ttl/2yttsfTL5N8KMlNfhcAYJluKvvmL8VTu11RCvpPRgEAS/Snsl9e0fZBiKeOM0pJAwCL96GyX7aeePqrjyU5wRgA4AlOSIvfIC6ell3V3zAGAPiLb8SrM+JpKe4uJ8iVRgEAubLsi3cbhXhammuTHJ3kVqMAoMVuLfvhtUYhnrpxUTlh7jMKAFrovrIPXmQU4mk0Ti8nDgC0zdFlH0Q8jdon49MFALTLx8r+h3gasw8mOdkYAGiBk8u+h3gal/nlRDrHKABosHPKfjffKMRTL9yZzuu/FxsFAA10cdnn7jQK8dRLN5QTyzOgAGiSK8v+doNRiKd++J90bmnOMQoAGmBO2df+xyjEUz9dXE6024wCgBq7rexn3pIingbi6+WEm2sUANTQ3LKPfd0oxNMgnV5OvHuNAoAaubfsXx6CKZ6G4qRyAj5oFADUwINl3zrJKMTTMB1fTsTHjAKACnus7FfHG4V4qoKPJznKGACosKPKfoV4qowPxyPtAaimD5Z9CvHk5AQAf7kXT3X2eDlBP2IUAFTAR8q+9LhRiKcqe1RAAVChcHrUKHprOSPoi4fz1zeQv8c4ABhCOB2V5BGj6D13nvrnkSQfiPdAATBYHy77j3AST7X0WJL3xxv1ABiMD5Z9x7MHxVPtHZXkffG6MwD98WjZZ44yCvHUJMek8/6nPxkFAD30p7K/HGMU4qmJjk3y7iR/MAoAeuAPZV851ijEU5N9OskRSe40CgDG4c6yn3zaKMRTG5yc5F1J/s8oABiD/yv7yMlGIZ7a5Iwk/5LkOqMAYBSuK/vHGUYhntro3CTvTPJ9owCgC98v+8a5RiGe2uy/yi/ChUYBwFJcWPaL/zIK8URyVZK3JznLKABYjLPKPnGVUYgn/uqmJIcl+ZxRALCQz5X94SajEE880d1JDo3vwwOg48NlX7jbKMQTS/ZIOt9LdGiS3xsHQCv9vuwD748v+BVPdO3fkrwlbtMCtM1N5fr/b0Yhnhi9M5McnOR7RgHQCt8r1/0zjUI8MXaXJnlzkrONAqDRzi7X+0uNQjwxfjckOSjJcUYB0EjHlev8DUYhnuidP6TzjI93JplnHACNMK9c199ervOIJ/rgk0n2TzLHKABqbU65nn/SKMQT/XdOkv2SXGAUALV0QbmOn2MU4onBuSrJm5J81igAauWz5frtq1bEE0NwdzrPAnl7kt8ZB0Cl/a5cr98STwwXTwzdcUn29bcYgMq6qlynfWpaPFEh5yfZJ8kZRgFQKWeU6/P5RiGeqJ4bk+yV5H1JHjQOgKF6sFyP9yrXZ8QTFfV4kmOS7JnkR8YBMBQ/KtfhY8p1GfFEDXyj/OKebhQAA3V6uf5+wyjEE/VzY5K9k/xLPLkWoN/+UK63e8fLdOKJ2js2ye5JLjMKgL64rFxnjzUK8URzXJJktyTHGwVATx1frq+XGIV4onnuSXJYkjfEN3cDjNcN5Xp6WLm+Ip5osDOS/FOS04wCYExOK9dRz9YTT7TIjek8tO3NSX5hHABd+UW5bu4TbwoXT7TWiUleleRsowBYqrPL9fJEoxBP8JN0PiXy1iS/Mg6Av/Grcn3cvVwvEU/wF59J8vIkZxkFQFKuhy8v10cQTyzWT5K8LslBSW41DqClbi3XwdfF3SYWMSGrP8cUWJJNk7wzyRuNAmiRLyb5RLwhnCWYmEnTTIEl+W2SbyW5Ocn6SdYxEqDBflT+wviRcv0D8cSYXZ/k3CSPJdk6yUQjARrk4XS+VuWQJFcZB+KJXvlTkkuT/CDJk5NsYiRAA5xfoukL5ToH4omeuz2dT5/ck2TjJGsYCVBDtyR5f5J3lOsaiCf67pok3yz//LlJJhgJUAOPp/NFvm9O5246iCcGal6Si5NcnmT1dD6dB1BV30zn8QOfL9cvEE8Mze1JvprOdz49PcnaRgJUyE+SvCfJEfESHeKJirk2nfdD/THJ9CQrGwkwRPck+Wg6L9H5FB3iicp6KMkV6XyCJek82gBg0D6bzkt055brEognKu93Sf4znTdkrpzOnSiAfjs7f31f0++Mg37w9SwMysuTHJxkB6MA+uCSJCek860IIJ5olDeUvxU+zyiAHrgyyYlJvmwUiCea7oASUTONAhiD60o0fd4oEE+0yYolog5M8kzjALrwsyQnlWjyRnDEE621cpL9S0j5zjxgcW4qwXRyOo9DAfEEC0XUfnEnCuj4WZJTRBPiCZZupSRvKst7oqCdrkvyhbLmGwfiCbr3xrJ8Og/a4cokXywLxBOMw25J9k2yo1FAI12c5EvpPOQSxBP00A4lonY3CmiEr5ZousQoEE/QX89OsneSvZKsZhxQK/cmOT3JaUl+bByIJxistUtAvSHJ5sYBlXZDOk8CPz3JXcaBeILh2yPJ65PsbBRQKd9O8pUkZxkF4gmqaesSUXskeapxwFD8psTSV5JcbRyIJ6iH1UpA7Z7khcYBA/G9dN4EflY6720C8QQ19YJ0Hnewa9yNgl77TZJz0nnMwBXGgXiCZplcAuq1SV5mHDAuFyX5WgmnB4wD8QTNNz3JPyV5dZIZxgFdmZPkG0n+I8n1xoF4gvbavkTUq9J5/AHwV3clObdE06XGgXgST7CwiUlemeQVZa1qJLTUfUm+WdZ5SR4zEhBPsCyrJHl5ktlJdkmyspHQcH9MckGS85N8K8n9RgLiCcZqSjoP31ywphgJDTEvnYdYLljzjATEE/TaSkl2SufTei9L8jQjoWbuSOeTchcluTDJfCMB8QSDtF2SHcp6tnFQUT9OcklZ3zUOEE9QFZskeUlZ26fzvikYhvvT+WTcf5V1k5GAeIKqWz7Ji9O5M7VdOt+5B/10dTp3lb6b5L+TPGIkIJ6gzqal8x17C9ZmRsI4/TSd75JbsH5tJCCeoMk2SPL8hdZ0I2EZrk/yg4XWbUYC4gnabFqS55a1TTov861oLK31UDovw12V5IdlubME4glYiuVLQG1V1pZJnmksjfWzJD9Kck1ZV8d7lkA8AeP2lCTPKmtmWZsbS+3ckOS6sn5S1m+NBcQTMBiTk8woa3qJqc2STDWaoZubzpu6b0jn/UpzynrAaEA8AdUzNcmmZW1c1kZlTTCennk8yS1l3VzWjWXNNR4QT0D9LZdkw7KeUdb6SZ5e1lON6Al+k+QXZd2e5Odl3VrWo0YE4glor8lJ1i1rWpJ1yppa1lolsFZrwM96bwmju9O5SzQ3yZ1l/TrJr8ryMhsgnoBxWzGdN7A/JcmTy1qtrCllrVJibHKSlZM8KcmkdL5cecWyli9ruSQTk4yUtcCfy3osnTs8j5T1UFnzkzyY5E9J/lhC54F0vp5kXln3lvX7sn5b1kMOIzBayxkBMEYPpXN3xrOHgFb5/3PElIRugQnVAAAAAElFTkSuQmCC;fontFamily=Manrope;fontSource=https%3A%2F%2Ffonts.googleapis.com%2Fcss%3Ffamily%3DManrope;" parent="1" vertex="1">
          <mxGeometry x="148" y="140.24000000000007" width="28.16" height="28.16" as="geometry" />
        </mxCell>
        <mxCell id="OhbVSFWdRjhHsJU15Zuy-8" style="edgeStyle=orthogonalEdgeStyle;rounded=0;orthogonalLoop=1;jettySize=auto;html=1;exitX=1;exitY=0.5;exitDx=0;exitDy=0;entryX=0;entryY=0.5;entryDx=0;entryDy=0;strokeColor=#7EA6E0;fontFamily=Manrope;fontSource=https%3A%2F%2Ffonts.googleapis.com%2Fcss%3Ffamily%3DManrope;" parent="1" source="OhbVSFWdRjhHsJU15Zuy-9" target="OhbVSFWdRjhHsJU15Zuy-39" edge="1">
          <mxGeometry relative="1" as="geometry">
            <mxPoint x="240" y="207.82999999999998" as="targetPoint" />
          </mxGeometry>
        </mxCell>
        <mxCell id="OhbVSFWdRjhHsJU15Zuy-9" value="" style="shape=image;verticalLabelPosition=bottom;labelBackgroundColor=#ffffff;verticalAlign=top;aspect=fixed;imageAspect=0;image=data:image/png,iVBORw0KGgoAAAANSUhEUgAAAk8AAAJPCAYAAABlxzBuAAAQ/HpUWHRSYXcgcHJvZmlsZSB0eXBlIGV4aWYAAHjarZppdlwpkEb/s4peAhAMwXIYgnN6B738vvFSklW2ymWXS2kr05kveRDDN4CD/d//3vA//NTYNJTatY3WIj9llJEnLzR++7G359d7KZbn9/tPevudwpcfZJ6FZ3m92cvbp/L2/vv17eOZgb74INXvviAft8mfb9zn2/s55r/MqOwk8fOPfvt779F77bW6WRphaK9FvW4R3ofhwsVQ8nyt8ej8rbzuz2Pw0DjjTiWeuOPisdNImVvfVNIJaaabLB2ed9rMsWTLneecd5bnPZWeR94SJUnxR7q5y5AjKll2NhEpQfLHXNJz3/HcbyflzidxaU4MlvjKTx/hny74lce9OxKjlFh9eosV88rZ85A8jOK/uYyEpPuWt/oE+P3x8RM+JVbIYH3CrCxwxvUaYtX0rbbkKQDhusrzq75SP561/FRJ4d6VySQhBbElqaml2HPuKRXJSoImM89S8iIDqdZ8mGQuIo3cKHXEvflOT8+1uebX+7QK+anSpJObIZNklVKpn16UGppVaqm1ttqr1lFnaNJKq6213rznZpdeeu2t96599KmiRas27ao6dI48hJaso40+dIwxJ/ecJcw6+fbkijlXXrLKqqutvnSNNTfls8uuu+2+dY89Tz5yyqmnnX70jDMtGaUUrFi1Zt3Uhs1LrV255dbbbr96x50fWXvL6g+P38haestafjLl1/WPrPFu7z7QM0RynKmeMzKWSyLj3TNAQWfPWdRUSvbMec7iyHRFzUyyem5OijOkRgqLpVxv+sjdt8z9ct4Csf6nvOVfyVzw1P0HmcvB5Lu8fZG140i4n4y9utBjGoXuu9Fm1pnXCcIk/aVy8Z88hz8d4PcGWrPeWK9mu2u3O0c5pEhkg5m7pju0hL3G5i21U/epnYhAZZv48JylN5CYV9XWPY2uKlydDy/ytG2VYc+Ne9USbpQ2LuEf/fbaruRCvCkTMNsK1Sfn2qi7kKDU7yrFB94673xenW6Qy9Zw6pVZM3+owXOUrA6jjit/mpfP85I5/cNz+NUL//bZo0EsAsF4D8UrEGsrZfHEqHX6dqS1KrQ3qS1bYFi79BHvqNqS23T4NTXcMvyi86yXPlvWC+vPz0BvF315TS1iMZ3CgG/pPwqFPpmOf/AcfvFC1nXPsKc4SrNThHUSgEm6nziF+yqa7+KUJ+Uh2ek8ndbtJOGavGzwXO/yAVeW2jelcQvRCz+7pEzt9OocN72yVBfQ+lRG/P45/N0Hv/v8aSBf1V1yXpV7DtO5x6ukgi0/i1KrdVmIzfOYZW5gJ/driMrjz+vVb6DnvOOwdl0/uyKc/BRX7JXhXllaLf8+koTf/cKiOXfsoIoZbEXrljNB1jA6BKLohF267QZoo5Wb7b1pi3iXz5RJbofTJbBN31XviomEypp3Aw66ewwDkC9PgDNRIsFnodSIX92j9HOopbZs9oEeHyBZn6MrDNSHlHPgsQNr9TzDFjMGnkzPuGmmDb9oVarWhPUUCMhkgkxex4SyIjuPs0mgH/sUuaeW2xP5pgxINFHYMqgA7m652ARtbULeZUxZdc8F8dVzkKi3zT0OFkJmg6aAy7SKEsovcvzKsNmeexoabB1t205OfUBp+I+Rwm4I16rjgQ5I7gCrBmsm0wH39iisAQHncGooY3Ryb1KdLCVdhQOORdIQEICdAElbgjzddg9qQe6alF9xdaAzlZ2ZxVZA+TgKoRPOuioscsPH80qvYZW9h9TVXVpcMzrUSDtQPxf3rjqL5tYVIENVIOFRDS1pjupV4b2vD/MEFIwntdmd0nRxqcHtujFcF0HqqEJJiPdIm6PVkfsY1ggAU7RdkRB6cxnBZluYFIM9rJR9ckX2/4tOCT98sPpsVAtL96BH8gPt2SWv/CRXb408EqtjrKwhI+4m0CFO4p/RU4iTiYhGHR2UVNynOyS0c1ZLdpRhO3iDv5mS2r4unIB7nJGRui1hACGLFY3mlT2rJmcYSHzEQokvxxs5dXa6ouSjr7m3/D2sBzmrWxJaka7L1Kn2tdHz1rjdXhR/MWSZt6Fe1Fiatx9pyKd86PPerSLtJzHCDNTI/WdHPo5bRCmDCDusdneGDVduCDUa34DugxhoGxGJpkMkXpTZ6xbB78GgqD3QE7WSBFS43QaaI4EoLAMNW/mFqECJCIm/ddP9jVVwnzm8wGERq4cmq4Pftfe0cKu0EOCt8jAKwNHpVqJ6DdByt6nt7TvUFZoD4O4jYIhQlwvfw7/XMUCf0hsjFxrS7+v6dvBlWgiNPVDOqNq++LBM6rqOaF1WC4pGftUr8DEmX2cIYd4dAb7SreglRK8zTa9Dv5Q5iC0NZSH5LywJAGzUgquRdhKNj4luFSknB4O/km3UdfcJiqTsQov01kcSlnZKoBpXYlJ6wO5pACsSZNFA+kg+rtYu5hTmS14H3X+87trlX4lCowdYqAZX5rsZ+QcTAUsmD9YdRb8RzvrqupJ/lNDTO5fiAan51g4ySfV7M83u+CMX5sCK9DL8zp3uLzMd1/Ga6HEafkXo5u59Z3S8p6SDI91AeUUxPqcW4JxJ7rlIAEx7iYplm+EBWnKFL7aGoZBOGzT/HPmP8sfpokQhrpTb8fzEZljirVAAdM49XecMvsTtSAIVFqleV81MaUKBSpdJoJsJZuXzvK7RGJDCRQOncSAwZZVg/MTWUGeIG4S2RFCvC+ZuQXaHGiAXN1RDFXMXQwseLzt8UgN+dwf2aEtgeENOqd0xm+Me8hFNtRGkg8/XWglmFiobLT8yrfSmZC0N5/SnPUqiNFgYlaBOmyk+cjQWMIyImSL0oxlNNzIxcohx8RPjl5fT4R9jfxv5GSEbfYk9oOhneAbYgr5ShBVZr00As8eBRIeBzMsZB1BhC6jDRvb4aYD374fvBkCUwurA5rNpAevCPtsHnCBgEco8F1gD3zuulNaYbFHKqmBFEw11mxRAgBtBQ29/6FdC5w72GIpk0AcTJx6lqKFJKbdieURkr6vG19I+1gAEf6ziiwW7UKbGEQCf1+aaU8JXwflq2C+C8wzw/v3wewNMdS1B4gGQAaum2CkSkm7P0j6y/mXOP9fTk3XxYU8HgNSpARybu4YZgZqM3wPt4MLb40bj+abjRKLJxBEY6mOjM+ib1bCilrlw0zcF6tm0OrpKwl0s4ZjrlOKmnyompDflUuENFoRyaAAePYnWiAg9gKwrXNmZb0uw89OUofmOA/oiJbgKtzz2eooMBEarMSStJh0KGRMaTxWgpJDwfJSZAGOIvJLbigFF73swQx0qEQ0EEMyCHeBZpui7JchPrnRfHFND8WZg2gUtmDo3scPA1xQMiu7og5sR2cBlPURlarnNN/NcOkn0HRVK3uUV7Uv/H64AKsEIGA/Ih0YDpXt82+klBcRzQXQBerADlRU9RshY+nqvDBUffgkUsDpwZ2QnDoe8EvZN6hTiArQTJbQqHt8Lqt3iPi5TxwqOwrOoogVJ0ZGYRPjFANDNICTaQnWUe4CjSEUdz7oRSiCWekn5JgDiFUNAomhHEuyksOi8DcmIQiQHibF7MKKb6VpqHpQkuDpOBHQ1YtjgLvw1VdzRzq6n3MSQMkLH/PJBpdHmhAuEpIYoxQFzPZWCQCaImZW5kHOta+7eqeoVxaWegctHBy7trOEu8eBqaoUgfTP1Qs7IgjLWOenoqx0Log7gLBFCpsafnRDSoK+m+n7iT6/53N0LI3dg+OhgwQR9T+VGgH7y4kRUT8JU0Xw6n17EaZTs6AlfyA1jcjlw6Fstiaz65vyiKd2D349pkYpvE3tN67tJhY9wPlNyzRHTpwnFr6bE0lDA3e2PlGfPEDzafqOR1L3D24Dr84AFFs2KM0ICFt/7xGGCqWvsU+r7VgAsGsYGFTwv1lssivWoGDoKPHFlfCFXYwaOzj9bbvhqvX9dbqs+vXp/Hrnwdeh+P3LhLXSf8umI/WT0SahvUXyd0r/WWviVYvtLrf0wvdfkwvel5pIm4onHYWlo4IiPfHWp6/BHV+YGu4In0S0i7YVcvSucDivRXFcL3s9owrYWz+D1BCxwVkgpQXxhGY2gYDD7LTis4/od5dVgh+g2i7cAc5vq+2eYFXP/jiPBuiqqkXaprk8dtRsczrgHhcx0D2rk4IbSwe4fsobmw6t0LICWRITpuIKvwSHjAp+NTCrtAMeAFTPq7oGBNMZWVGM01CvWNuSuC3eCwr1YoOpGOR+Xw1ifvGuK/oR2U7KnFYGbgb4xFxrYel76vtP1445Wd98SHYBRvb5dUZ+SYGWC3Iy5aYJgRqYbgF+oA4StAvgzEZaCiQBMzXeFN24ib14IulQNZ4XUZumT8GJ0rh4XyWsiohamhyQQuRzS6Ml8y2JjaE1mwxXiw5BZIw9jGbgS6szLCFatJNkzggZAZ2RUPHCYGxKVYLdIu1K1YL2TEp4EpZzy/jv3itZvADdUwzvF6UJdjZAOhFPFMcChJB9XgoO9LrFd9gspwTrhSUdHyUyon2/panyj7xMr8t2QxyegPHw/EqqldkaOWg0bV1spDQWfS/OK6sj/gouBy5GY2x0rzLlfJcLMqLBwfNMGzeL7IQvYg63dtsxzIvgEbS4MPCLSN1O30aN4Uvh063TFVfR9pyTY9p2iU65v3m/MZrkZxkb2HEAO7kJ4wNd+b8RWpD0rb1GmlAl11XGYeACLWIiI/kVOuBEhJFQ21tJQeF1AiFqIxPXdKuZhfnokI+Hr0Quftm0AotDO11bVfSphkVKXO9Wjm3EShZP7wb1TtQ38MkUrE8OKhVh+NqAATXZhBlZ1GNJyRucBWkaz4tcacoBPMk5I3SLVOFhQMVFvevTeRGjRpMk3HMTNvTak4vTZ+k7+e68hYJTasooZwkQn9b0FuAdnpVQ+DiCHAj41kACdAgBio6gU/HzGQr0q8pRf2oAPf7Oh7rXLDOMgaTiltq5j514tglWAHdJXpIGxzcXrHSd0QJP+gGMevD4ZFrhu3Y8AKspqJhxJnXvSK/9UwyESF/V9eIz7XmajI0aru02EXX0kGeY2gg9oZ0w8y1TX3m0Px2hgH44trmLMK3hQeuI7rgtdF55NT2/z7Ju9q+6C6HzAzANbH9qR7UcE3QGTb7rcv6igzgQKrpUkoNQC4pBOgUx9ezh9vVOLzPUt4OOKvPjOS/IldPKQEdr+tVLCOvCMuicDwqgJsK80dyqsittCW24hquNZx8K5GG9Fe1X1U6uV6JQMF2gYEKQ39ro/OZfZi7pb4wip8FfiVgGRn7Dxzho7Af7UFPLPdzZapDidj4uzgRMdBEfOplHiKUNzBeKRHUnI2G6TqOgHgUR30O9wwY9F406x9BrBhYWjqX4wbXAoxNBjHQRDVz3oHKoDBn5QK6TbYS5WU2BC8/9EgcC/3Jc6Wu4cVvJNKeEDd7lgGm3J+1gbkAYqedtHDf/qyOG3DzN/cs6Gzn9OZHw7j7wQo09HMr6D5ZvwGH0/NSJM43Xo+H7k+Bw4+mGnvk4cvx1LMtDXl/hBlu8LMdzbeSTG82fHiOGPzh9/GOjtQPJPziPD5wPJPzmPDJ8PJP/kPDL8i4PLL0/awucDyT85jwyfDyT/5Dwy/Bfnjz8Z6B/OI4Hn7fq6L70x+wYoqhZ9OTaSAJvuG9G1I/Jil7G5ZIHQYymdPkF48S3cV60g098qwYPvzja8l4L/3wLf/CENwDFi/cwDSbYBrcHX8I41bWVExJw7L7SE75tEV7n+/03CGYi4cz6O+OevH/H/5Tn8R632bwaiwqjH8P/KHqSHM8IirwAAAAZiS0dEAP8A/wD/oL2nkwAAAAlwSFlzAAAuIwAALiMBeKU/dgAAAAd0SU1FB+QEHQ4iBlK9FKkAACAASURBVHja7d17/OZznf/x53zHaTIMKYaRxDrEzI4ialONFC2m4+ZQcthyiorKpiMpHVbFViJqQyLaosiitZFasSp+QzksKcXQyaCMU35/XO+paczh+n6/1+FzuN9vt/etw62mvq/P5/t5P+ZzXdfnmpDVnxOAMVguyZPKmlTWSmWtWP5xhUXW8uW/t2BNLGtkoTWhrAUeL+vPC63Hynp0ofVIkocXWfOTPFT+cX6SB8v6U1mPOozAWC5+AAubnGTdsqYlWaesqWWtleSpSVZrwM96b5LfJLk7ydyy7izr10l+VdYDTgtAPEG7f+83LOsZZa2f5OllPbVFs1itrI2W8Z/7TZJflHV7kp+XdWtZ7mBBi0zwsh001tQkm5a1cVkblTXBeHrm8SS3lHVzWTeWNdd4QDwB1TM5yYyypifZPMlmJZ4YrrlJfprkhiTXJ5lTlpcBQTwBA/KUJM8qa2ZZmxtL7dyQ5LqyflLWb40FxBMwPssn2TrJVmVtmeSZxtJYP0vyoyTXlHV1Op8gBMQTsATTkjy3rG1KOK1oLK31UAmoq5L8sKxfGwuIJ2izDZI8f6E13UhYhuuT/GChdZuRgHiCJpuW5IULrc2MhHH6aZLvLbTcmQLxBLW2fJIXJ9murK2NhD67Osl3y/rveM8UiCeogU2SvKSs7ZOsYiQMyf1JLk3yX2XdZCQgnqAqtkuyQ1nPNg4q6sdJLinru8YB4gkGaaUkOyV5WVlPMxJq5o4kF5V1YTpfmgyIJ+ipKUl2XmhNMRIaYl6Sby+05hkJiCcYq1WSvDzJ7CS7JFnZSGi4Pya5IMn5Sb6VzvumAPEESzUxySuTvKKsVY2ElrovyTfLOi/JY0YC4gkWtn2SVyd5VZK1jQP+xl1Jzk3yjXQ+wQfiCVpqepJ/KtE0wzigK3NKRP1HOk88B/EEDTc5ya5JXpvOJ+WAsbsoydeSnJPkAeNAPEGzvCDJbiWcnmoc0FO/KQF1dpIrjAPxBPW1WpI9kuyeznfJAf33vSRfTXJWknuNA/EE9bB1kteXcHKXCYbjNyWgvpLOd+6BeIIK2qNE085GAZXy7RJRZxkF4gmGb+0keyV5Q5LNjQMq7YYkX05yejqPPwDxBAP07CR7l3BazTigVu4tAXVaOl9YDOIJ+miHJPum8yZwoP6+muRLSS4xCsQT9NZuJZp2NApopItLRJ1tFIgnGJ83lvU8o4BWuDLJF8sC8QRdWinJm8qaaRzQStcl+UJZ840D8QSLt3KS/ZPsl+SZxgEk+VmSU5KcnOSPxoF4gr+NpgOSbGIcwGLclOTzIgrxRNutWILpwLjTBHTnZ0lOKiH1kHEgnmiTA5IcFO9pAsbmuiQnlogC8USjvaFEk0/PAb1wZYmoLxsF4ommeXmSg9N5yCVAr12S5IQk3zIKxBN1t22SQ9J5yCVAv52d5LNJvm8U9MvETJpmCvTDJkmOSueNndONAxiQ6Un+OclTktyW5HdGgnii6lZN8s4STdsZBzAkWyfZNZ1P9V4Xn8xDPFFR+6Tzxs3Xp/PsJoBhWjnJi5O8rMTTtUaCeKIqZiU5Psm7kqxtHEDFrJ3klUmelWRuktuNBPHEsKyX5Mh07jZtahxAxW2aZO8kU9J52OY8I0E8MUgHlWjaOckE4wBqYkI6z5nbJcmjSa4xEsQT/bZdkk8neXuSNYwDqKk1yl/+toyX8hBP9MlTk7w/nYfQbWYcQENskmSPdN5c/v+S/MlIEE/0wh4lmnZNMtE4gMbthZ0H+r44yf1JrjcSxBNjtWmSjyU5Jsk6xgE03DpJXpPkaUluTvJbI0E8MRoHpvMVB9sbBdAyz07yj0kejjeUsxi+245FPSvJ4em8VAd9N2vbLcf137933v25ds7NBkm/nJXk2CQ/MQrEE4vzliT/kmRdo2BQHv/91eP671/+gx9n1uwDDZJ++lWSf03yGaMgSUaMgHTuNn01nUcQCCeAv7VuuT5+tVwvEU+03EFJzk2ym1EALNVu5Xp5kFGIJ9pp0ySnJvlckqcbB0BXnl6um6fG11KJJ1plzyT/kc53PAEwenuX6+ieRiGeaLY1kxyX5MtJNjcOgHHZvFxPjyvXV8QTDbNDkrOTHGoUAD11aLm+7mAU4onmODydT4nMMgqAvphVrrOHG4V4ot42TXJaOs8nWd04APpq9XK9PS3eTC6eqKVXJzkjyV5GATBQe5Xr76uNQjxRDxOSvLf84m5pHABDsWW5Dr+3XJcRT1TUpklOT/LhJJOMA2CoJpXr8enxMp54opJmp/PQNs8cAaiWPcv1ebZRiCeq47AkX0qyjVEAVNI25Tp9mFGIJ4ZrrXS+5ftTSdYwDoBKW6Ncrz9Trt+IJ4bwt5gvJDnEKABq5ZBy/fZqgXhigHZNckqSXYwCoJZ2KdfxXY1CPNF/70hycpIZRgFQazPK9fwdRiGe6I/V03mt/BNJphgHQCNMKdf1T8U3QYgnemrzJCfGpzQAmuqwcp3f3CjEE+O3fZLPJdnNKAAabbdyvd/eKMQTY/e6JCckeaFRALTCC8t1/3VGIZ4Yvbel8yyQTYwCoFU2Kdf/txmFeKI7yyf5UJLjkzzZOABa6cllH/hQ2RcQTyzBWuWX5X1GAUDZD46PJ5KLJxZrkyTHJXmzUQCwkDeX/cHbOMQTC9kmnWd87GEUACzGHmWf8JUu4okkL0nnAWk7GQUAS7FT2S9eYhTiqc1eVX4RtjUKALqwbdk3XmUU4qmN9kzyr0lmGgUAozCz7B97GoV4apP9k3w8yd8ZBQBj8HdlH9nfKMRTG7w1yceSrGMUAIzDOmU/eatRiKcmOzzJR+ObswHojdXLvnK4UYinJnpvko8keZJRANBDTyr7y3uNQjw1yVFJPpxkOaMAoA+WK/vMUUYhnupuYjrfS3SkUQAwAEeWfWeiUYinOlo+ydHxPXUADNb7yv7jC4X7xMtI/bFCqf/3GAUAQ7Bg//lgkoeNo7fceepPkAonAKoQUEfGjRLxVHEThBMAFQyoCUYhnqrqyHiPEwDV8r744JJ4cnICgL/ci6d6e1c8WwOAajuq7FeIp6E7tBS9Z2oAUGUTy351qFGIp2E6sJyIk4wCgBqYVPatA41CPA3DXuUEXM0oAKiR1cr+tZdRiKdBek058aYaBQA1NLXsY68xCvE0CDuWE24DowCgxjYo+9mORiGe+ukfyok2wygAaIAZZV/7B6MQT/2weZIPJHmeUQDQIM8r+9vmRiGeemmdcmK5tQlAE+1Y9rl1jEI89cJK6dzS3NUoAGiwXct+t5JRiKfxOjLJ/sYAQAvsH181Jp7G6R1JjjAGAFrkiLL/IZ5Gba90Xv8FgLb5QDxEUzyN0svKibOqUQDQQquWffBlRiGeurFFOWE2NAoAWmzDsh9uYRTiaWnWSvL+eJYTAKTsh+8v+yPiabHen+TVxgAAf/Hqsj8inp7giCQHGwMAPMHB8elz8bSIPVU1ACzV+8t+KZ6MIC9I8r4kTzIKAFiiJ5X98gXiqd3WKyW9id8JAFimTcq+uZ54aq/3JXmp3wUA6NpLy/4pnlroiCT7+R0AgFHbLy1+A3lb4+mfkrzXuQ8AY/besp+KpxaYmc7txsnOewAYs8llP50pnpptUinlmc55ABi3mWVfnSSemus9SV7rXAeAnnlt2V/FUwO9Pt7nBAD98N6yz4qnBtmiVPEE5zcA9NyEss9uIZ6aYblyQDdzbgNA32xW9tvlxFP9eZ8TAAxGK97/1PR4emWSdzuXAWBg3l32X/FUQ+un8/TTlZzHADAwK5X9d33xVD9HJNnGOQwAA7dNGvz1LU2Np/2THODcBYChOaDsx+KpBrZMi7+sEAAq5IiyL4unintXkmc4XwFg6J5R9mXxVGHvjMcSAECVvLbsz+KpgrZtYt0CQAO8q+zT4qlCJpYD8xTnJwBUzlPKPj1RPFXHvyTZxbkJAJW1S9mvxVMFvCDJ4c5JAKi8w8u+LZ4qcCBWdz4CQOWtngbc8Kh7PL0zyWznIgDUxuzU/NN3dY6nreLlOgCoo8PLPi6eBuydSdZ0/gFA7ayZGt99qms87Z9kN+ceANTWbqnpd9/VMZ42SPIO5xwA1N47yr4unvrs7Uk2dr4BQO1tXPZ18dRHL09ysHMNABrj4LK/i6c+WKGOdQoALNPbyz4vnnrssCQvcn4BQOO8qOzz4qmHpic51LkFAI11aNnvxVMPBzrVeQUAjTU1NblRUod4ekWSNzqnAKDx3lj2ffE0Tm9zLgFAa1R+3696PL01yXbOIwBoje3K/i+exuBpcdcJANrobaUDxNMovSU1fGQ7ADBuG5QOEE+jsHUqfssOAOirt5YeEE9dekuSFZ03ANBaK6aid5+qGE+7JNnTOQMArbdn6QLxtAyHOFcAgKp2QdXiae8kOzpPAIBix9IH4mkxJiZ5s3MEAFjEm0sniKfFDGZr5wcAsIitU6EbLFWJpylx1wkAWLI3l14QT8VBSTZ1XgAAS7Bp6QXxlGRqVYYBAFTaQaUbWh9PByZZz/kAACzDeqUbWh1P6yY5wLkAAHTpgNIPrY2nA1KB228AQG1MzZBvvAwznp6WZH/nAAAwSvuXjmhdPO2XZE3HHwAYpTVLR7QqntYZ5g8NANTefqUnWhNPb4r3OgEAYze19EQr4mmNYf2wAECjvKl0RePj6Y0Z4pu8AIDGeFrpikbH00pJ/tmxBgB65J9LXzQ2nvZNsonjDAD0yCalLxobT+46AQC17otBxtMeSbZyfAGAHtuqdEbj4mkfxxYAqHtnDCqeXppkB8cVAOiTHUpvNCae9nZMAYAm9MYg4ml6ktc7ngBAn72+dEft42kvxxIAGJC+d0e/42m1JG9wHAGAAXlD6Y/axtOe8QXAAMDgTC39Uet4AgAYpNrG005JtnH8AIAB26Z0SO3i6XWOHQAwJH3rkH7F09+JJwBgyPH0d3WKpz2STHDcAIAhmZA+fd9dv+Jpd8cMABiyvvRIP+LpVUk2c7wAgCHbrHRJ5eNpN8cKAKiInndJr+Np/SS7Ok4AQEXsWvqksvG0a7xRHACojgnp8Y2dXsfTax0jAKBietonvYynWUm2cnyg2raYsXG2mLGxQfTBoQftkdWmrGIQUD1blU6pXDy9xrGB6ofTZeeflMvOP0lA9dipJxyZ4445LJedf5KAgmrqWaf0Kp5WEE9Qj3CasurkTFl1soDqcTjtvcfOSZKZ0zcSUFDdeFqhSvH06iRrOy5Q/XBaQED1PpwWEFBQSWuXXqlMPL3KMYH6hJOA6l84CSiotJ70Si/iaS3xBPULJwHVv3ASUFDpeFqrCvH0yiTLOx5Qv3ASUP0LJwEFlbR86ZZKxBNQ03ASUP0LJwEFlTT0eHpGkpc5DlDvcBJQ/QsnAQWV87LSL0OLp5c7BtCMcBJQ/QsnAQWVM65+GW88zTZ/aE44Caj+hZOAgkoZV7+MJ542TLK9+UOzwklA9S+cBBRUxvalYwYeT7uYPVTDUe/ar6fhJKD6F04LB9Q+r3MZhSEa8y/geOJpJ3OHatjn4KNz3fW39OXPbmtA9TOckuS0s76d4088y8kLwzPmjhlrPK2bZAdzh2q4d979mTX7QAFVo3Da5+APOnFhuHYoPTOweHLXCQSUcBJOUHdj6pmxxpNnO4GAEk7CCepuTD0zlnhaNck/mjcIKOEknKDm/rF0Td/jacckK5k3CKimBJRwgtZaqXRN3+PJG8VBQDUmoIQTtN6ou0Y8gYBqbUAJJ2AQ8fT8JOuZMwiougeUcAKK9Urf9C2eXmrGIKDqHlDCCRhP34w2nnyXHQioWgeUcALG2zejiae1k2xrviCg6hpQwglYgm1L5/Q8nl5stiCg6hpQwgnoVeeMJp62M1cQUHUMKOEE9LJzRhNPs8wVBFTdAko4Ab3unG7j6e+TbGiuIKDqFFDCCRiFDUvv9CyeXmSmIKDqFFDCCRiDrnqn23h6oXmCgKpLQAknYIy66p1u4+kF5gkCqg4BJZyAceiqd7qJp+ckWcs8QUBVPaCEEzBOa5XuGXc8Pd8sQUBVPaCEE9Ajy+we8QTUPqCEEzDIeJqQ1Zd5d+rXSdYxS2if1aasksvOPykzp2/Ulz9/3n0PZMqqk8f1Z9x9z++y1pprCCegV+5MMm1p/4Fl3XmaIZygvQZxB2q8hBPQY+uU/hlzPD3PDEFA9TOgqko4Qas9bzzx9FzzA9oWUMIJWu+544mnrc0PaFNACSdgWf2ztHiammRz8wPaElDCCSg2Lx006nh6jtkBbQko4QR020FLi6etzA1oQ0AJJ2A0HSSegFYHlHACehlPW5ob0OSAEk7AWDpoSfG0UXwZMNDggBJOwDKsVXqo63h6lpkBTQ0o4QR06VniCWh9QAknoF/xNNO8gKYFlHACRmmmeAJaG1DCCehnPD0tnW8UBmhEQAknYIzWKV20zHiaYVbVcPxH3p59XreLQSCghBMtsdqUVXLeGcdmixkbG0Z1zOgmnqab0/CdesKReduBu+dLn/2AgEJACSdaEk6XnX9SXrHTi3LZ+ScJqOqYLp5qEk5777HzX/61gEJACSfaEU4zp3ceKzRl1ckCqmbxtJk5VSecBBQCSjjRrnBaQEBVxmbiqYbhJKAQUMKJdoWTgKpXPG2SZJI5VS+cBBQCSjjRrnASUJUxqfTREuNpUzOqbjgJKASUcKJd4SSgKmNT8VTjcBJQCCjhRLvCSUBVP54ckRqEk4BCQAkn2hVOAmroNhZPDQgnAYWAEk60K5wEVHXjaSPzqU84CSjaHFDCiTaGk4Aamo2WFE9PTrKW+dQrnAQUbQwo4USbw0lADcVapZOeEE8bmk09wwnaFFDCCQTUkGy4uHjawFzqG077HnJ0Tj3zAoOm0QElnGjyXwwEVOVtIJ6EE9RqoxFOCCgBVcV4Wt9chBNUcaMRTggoAVUBf+mkCVn9OQv++cVJdjAb4QRVsdqUVbLP63bJ8SeeZRg06rzuxxvIF5h33wOZNfvAXDvnZsPurUuS7LhoPN2YRb67BeEEgIAiSXJTypPGF37Zbj1zEU4A9J+X8GrpL520IJ6mpvOtwQgnAAQUTzSp9NJf4mldMxFOAAgolmpd8SScABBQjDGe1jEP4QSAgGKp1hFPwgkAAcUY42lt8xBOAAgolmrtheNpqnkIJwAEFEs1VTwJJwAEFGOMpzXNQzgBIKBYqjXFk3ACQEAJqDHE02pJVjAP4QSAgGKpVkgyeSTJU8xCOAEgoARUd+MaSbKGOQgnAASUgOrKqiNJnmwOwgkAASWguo+n1c1BOAEgoARUV1YRT8IJAAEloEYZT1PMQTgBIKAEVFdWFk/CCQABJaBGGU+rmoNwAkBACaju42kV4SScABBQAqork0aSTBZOwgkAASWguvKkkSQrCyfhBICAElBdWam18SScABBQAmqs8TRJOAknAASUgOrKiq2LJ+EEgIASUOONp5WEk3ACQEAJqK6sMJJkReEknAAQUAKqK8uPJFlBOAknAASUgOrKchOy+nPuS4MflNnvcIIm+ODHT8lRHz/FIJbh8d9fbQiwFPPueyCzZh+Ya+fc3OQf8z9HkiwnnACA8WrJHaiJjY0n4QQAAqpf8TQinAAAAdWVkcbFk3ACAAHVRxNGkkwQTgCAgOo+noQTACCgujSS5HHhBAAIqK48PpLkz3X+CbaYsbFwAoAaBNTxH3m7eKqCa+fcnH0POdpZCQAVdt31t+SVex7ehB/lzyNJHq37T3HqmRcIKACocDjNmn1g7p13fxN+nMcaEU8CCgCE0yDj6ZGm/DQCCgCEU589OpLk4Sb9RAIKAIRTv+Ppoab9VAIKAIRTnzwykmR+E38yAQUAwqkPHl4uyYNN/elOPfOCJMmXPvuBvv1v3H3P73LjLb/w20Kt3X7HXYbQhct/8GNDoNYmrzwpM2dsnOUmThROY/dQo+NpEAG11ppr5KJLf5h9Dv6g30pouFmzDzQEamuLGRvnsvNPEk49iKeJmTRt9yQbNPmnvHbOzfnFHXfllTu9qG8n5DPWWyfnXXi5304AKhtOU1adLJzG74qJmTTtNUk2bfpPKqAAEE7CqQe+OzGTpu2S5O/b8NMKKACEk3Aap4snZtK0lybZqi0/sYACQDgJp3H49sRMmvbCJM9v008toAAQTsJpjM6dmEnTtk6yfdt+cgEFgHASTmNw9sRMmvb3SXZq408voAAQTsJplM6YmEnTNkrymrZOQEABIJyE0yh8YWImTVs3yevbPAUBBYBwEk5d+tzETJq2RpI3tX0SAgoA4SScuvCpiZk0bVKSt5qFgAJAOAmnZfroxEya9uckR5iFgAJAOAmnZTpyYiZNm5/kPUkmmoeAAkA4CaclejjJByZm0rQkOSDJqmYioAAQTsJpie5KctyCeNozydpmIqAAEE7CaYn+L8nJC+LpFUk2MhMBBYBwYol+kuTMBfG0fZJnmYmAAkA4sURXJPnWgnjaOskLzURAASCcWKILk/z3gnjaNMnOZiKgABBOLNHZSf53QTxNS7K7mQgoAIQTS/SFJDcuiKfJSfY3EwEFgHBiiT6Z5M4F8fTnJO80EwEFgHBiiY5M8sCCeHogybuSLG8uAgoA4cQTPJjk3UmyIJ6S5A1JnmI2AgoA4cQT3Jbks4vG0+wkG5qNgAJAOPEEP05yxqLx9IIkW5qNgAJAOPEElya5IElGFvo3bzeX8Tn1zAuy7yFH9+3P33uPnXPqCUcaNK3bVFabsophIJyE07D9pZMWjqfbzEVAQdU2lRc9/9kCCuEknKrgNvEkoKA2m8rM6RsJKISTcKpkPN1qLgIKqrqpCCiEk3AaslsXF0+/T3K32QgoqOqmIqAQTsJpSO4unfSEeEqSW8xHQEGVNxUBhXASTkPwN320aDzdbD4CCqq+qQgohJNwGrC/6aOFn/OUJM9M8hIz6r1BPAdq9Smr5KJLrzRsWrGpTF1zjfzjS/4hX/3GdzL/oYcNkspaf72188PvfEk41dvZSX6w4F8seufpRvPpn37egZp33wM59awLDJlW/W3cHSjq4PZf3pXzvt2fBxwLp4H5mz4STw0IqHn3PZBZsw/MtXO86kp7wklAUSf7HPzBnHbWt4VTQ+PppnS+NZiaBJRwos3hJKBoa0AJp4F6sPTREuMpSX5qTvUIKOGEcBJQtC+ghNPAPaGLxFNNA0o4IZwEFO0LKOFUjXha9NN2SbJRkpea1WCM5VN4wgnhtGQ+hUcdnHfh5XnGeutkixkbC6fqOzMLfdJuSfE0JcnrzaqaASWcEE4CivYFlHAaquOzyEMyFxdP85McZlbVCyjhhHASULQvoITT0L07yX0L/xuLe8/THUnuNKvBW9p7oIQTwmn0vAeKOljae6CE09DdWbrobyzuzlPSecr4RmY2eIu7AyWcEE5j5w4UdbC4O1DCqRK+n+Qr3cbT9CTbmtnwA0o4IZwEFO0LKOFUGV9Pcumi/+aErP6cxf2Hd03ne1wYolfu/KLc/su7hBPCqUdsSNTBoQftkVPPvMB5Wg27JTmn23jaKIt8gzBAncNJQAFjsHEW+aRdsvg3jKf8B+82M6BJ4ZR4EznQtbsXF05Li6ck+ZG5AU0KJwEFjMISO2hp8XSNuQFNCycBBXTpGvEECCcBBfQ5nv7X3ICmhpOAApbhf8cST3OT3GB2QFPDSUABS3BD6aBRx1OSXG1+QJPDSUABo+2fZcXTD80PaHo4CShgNP2zrHi60vyANoSTgAK67Z9lxdOcdL5RGBBOjQ8nAQWU7pkznnhKkv8xRxBOVQ2nRx97TEABvbTM7ukmnn5gjiCc+uG6628Z/58x5+bMu+8BAQX0yjK7RzwBQwunWbMPHPef88AfH8ys2QcKKKBS8fS/8SXBIJz6EE73zru/J3/etXNuFlBAL9ydLh4SPtLlH3aFeYJwqmI4CSigh7rqnW7j6XvmCcKpquEkoIAe6ap3uo2ny80ThFOVw0lAAT3QVe90G0//L8mtZgrCqcrhJKCAcbi19E7P4ilJLjNXEE5VDycBBYxR150zmnj6rrmCcKpDOAkoYAy67pzRxNN/mysIp7qEk4ACRqnrzhlNPN2V5PtmC8KpLuEkoIAufb90Ts/jKUkuNV8QTnUKJwEF9LpvRhtP3zFfEE51CycBBfSyb0YbTz9I8kszBuFUt3ASUMAS/DKj/B7fkTH8j1xiziCc6hhOAgroRdeIJxBOrQonAQUMI54uTjLfrEE41TWcBBRQzC9d0/d4ui/Jf5o3CKc6h5OAAkrP3DeIeEqSi8wbhFPdw0lAQeuNqWfGGk8XmjcIpyYRUNBKY+qZscbTr+KN4yCcGkZAQatcUnpmYPE05loDhJOAElBQAWPumPHE0wXmDsJJQAkoqKkxd8x44unW+K47qISj3rWfcKphQM3a9tlOXhiOS0vHDDyekuR884fh2+fgo3Pd9bcIpxoF1L6HHJ3zvn25kxeGY1z9Mt54+pb5w/DdO+/+zJp9YE8Dqu3h1M+A2veQo3Pqmd75AEM0rn4Zbzz9PJ75BI0LKOHUv4ASTjB0F5V+GVo8Jcl5jgM0J6CEU/8CSjhBJYy7W3oVT484FlD/gBJO/Qso4QSV8EhV4unuJOc6HlDvgBJO/Qso4QSVcW7plqHHU8QT1DughFP/Ako4QeXiadx6FU/fSHKXYwL1Cyjh1L+AEk5QKXeVXqlMPD2c5OuOC9QroIRT/wJKOEHlfL30SmXiKeIJ6hVQwql/ASWcoLLx1BO9jKfLklzj2ED1A0o49S+ghBNU0jWlU3piuR7/n/takq0cI6h2QC345/Q2oNaf+QpzhWr6Wi//sJEe/587J8njjhFUO6Bs8P2bLVA5j5c+qWw83d7r/4MAAONwTumTysZTkpztOAEAFdHzLulHPJ2b5KeOFQAwZD9NHx7kPdKn/7NfdbwAgCHrS4/0K57ODsXSLAAADmBJREFUijeOAwDD83jpkdrE0/8lOdNxAwCG5MzSI7WJp4gnAGDI8dQX/YynC5Nc5dgBAAN2VemQ2sVTkpzh+AEAA9bX/hhEPM11DAGAAZlb93i6N8mXHUcAYEC+XPqjtvGUJKc7jgDAgPS9OwYRT9cn+YpjCQD02VdKd9Q+npLkNMcTAGhCbwwqnr6T5BLHFADok0tKbzQmnpLkVMcVAKh7Zwwyns5Kco1jCwD02DXp0/fYDTuekuTfHV8AoM59Meh4+lKSmxxjAKBHbip90dh4mh93nwCA3vn30heNjack+WKSOxxrAGCc7ihdMVDDiKffJfmC4w0AjNMXSlc0Pp4W/LC+MBgAGKu5GdLNmGHF051JTnHcAYAxOqX0RGviacEPfY9jDwCM0j0Z4k2YYcbTHUlOdvwBgFE6OUP88NnIkH/4z8d7nwCA7s0t/TA0w46nXw17AABArXy+9ENr4ylJTkryS+cCALAMvyzdMFRViKe5SU50PgAAy3BiKvB2n5EKDeNG5wQAsAQ3piI3W6oST/OSfM55AQAswedKL4inRYZytXMDAFjE1anQTZYqxdNjcfcJAHiiz5VOEE+LcVqSi50jAEBxcemDyhip4JA+6zwBAKraBVWMpwuSnOFcAYDWO6N0gXjqwmeSPOScAYDWeqj0QOVUNZ6uTvJp5w0AtNanU9FP4Y9UeGifSXKbcwcAWue2VPSuU9Xj6Y4k/+b8AYDW+bfSAeJpDD6d5LvOIQBoje+m4m/dGanBEN19AoD2qPy+X4d4+maSLzqXAKDxvlj2ffHUA8cnmeucAoDGmlv2+8qrSzxdX5eBAgBjcnzZ78VTDx2X5HLnFgA0zuVln6+FOsXTw0k+5fwCgMb5VNnnxVMffCvJCc4xAGiME8r+XhsjNRzyp5Lc7FwDgNq7OTV8VamO8XRbkk863wCg9j6ZGn4V20hNh31ykrOdcwBQW2eX/bx2Rmo89E8kuce5BwC1c0/Zx2upzvF0TZJjnX8AUDvHln1cPA3BJ5Kc7xwEgNo4PzW+69SEeFpQr39wLgJA5f0hDXjVqAnxdEW8fAcAdXBs2bfFUwX8a5ILnJMAUFkXlP269poST48l+XiS3zo3AaByflv26cfEU7V8vxwYAKBaPl726UYYadjB+USSrzlHAaAyvpaaf7qu6fG0oG5/7lwFgKH7eRr4qlAT4+lHST7mfAWAoftY2ZfFUw2cnOTzzlkAGJrPp6bfXdfWeFpQu1c5dwFg4K5Kg18FanI83V4O3HznMAAMzPyy/94unurpvCQfdR4DwMB8tOy/jTXSgoP4kXh8AQAMwtfKvttobYinR8uB/KlzGgD65qdlv31UPDXDteWAPu7cBoCee7zss9e24YcdadGB/UqSY5zfANBzx5R9thVGWnZwvf8JAHqrFe9zanM8PVjq+DrnOgCM23VlX31QPDX/QH84yQPOeQAYswfKftq6GxIjLT3g/xHvfwKA8Tim7KetM9Lig/6xJKc49wFg1E5Jg79+RTwt3YeTfMfvAAB07Ttl/2yttsfTL5N8KMlNfhcAYJluKvvmL8VTu11RCvpPRgEAS/Snsl9e0fZBiKeOM0pJAwCL96GyX7aeePqrjyU5wRgA4AlOSIvfIC6ell3V3zAGAPiLb8SrM+JpKe4uJ8iVRgEAubLsi3cbhXhammuTHJ3kVqMAoMVuLfvhtUYhnrpxUTlh7jMKAFrovrIPXmQU4mk0Ti8nDgC0zdFlH0Q8jdon49MFALTLx8r+h3gasw8mOdkYAGiBk8u+h3gal/nlRDrHKABosHPKfjffKMRTL9yZzuu/FxsFAA10cdnn7jQK8dRLN5QTyzOgAGiSK8v+doNRiKd++J90bmnOMQoAGmBO2df+xyjEUz9dXE6024wCgBq7rexn3pIingbi6+WEm2sUANTQ3LKPfd0oxNMgnV5OvHuNAoAaubfsXx6CKZ6G4qRyAj5oFADUwINl3zrJKMTTMB1fTsTHjAKACnus7FfHG4V4qoKPJznKGACosKPKfoV4qowPxyPtAaimD5Z9CvHk5AQAf7kXT3X2eDlBP2IUAFTAR8q+9LhRiKcqe1RAAVChcHrUKHprOSPoi4fz1zeQv8c4ABhCOB2V5BGj6D13nvrnkSQfiPdAATBYHy77j3AST7X0WJL3xxv1ABiMD5Z9x7MHxVPtHZXkffG6MwD98WjZZ44yCvHUJMek8/6nPxkFAD30p7K/HGMU4qmJjk3y7iR/MAoAeuAPZV851ijEU5N9OskRSe40CgDG4c6yn3zaKMRTG5yc5F1J/s8oABiD/yv7yMlGIZ7a5Iwk/5LkOqMAYBSuK/vHGUYhntro3CTvTPJ9owCgC98v+8a5RiGe2uy/yi/ChUYBwFJcWPaL/zIK8URyVZK3JznLKABYjLPKPnGVUYgn/uqmJIcl+ZxRALCQz5X94SajEE880d1JDo3vwwOg48NlX7jbKMQTS/ZIOt9LdGiS3xsHQCv9vuwD748v+BVPdO3fkrwlbtMCtM1N5fr/b0Yhnhi9M5McnOR7RgHQCt8r1/0zjUI8MXaXJnlzkrONAqDRzi7X+0uNQjwxfjckOSjJcUYB0EjHlev8DUYhnuidP6TzjI93JplnHACNMK9c199ervOIJ/rgk0n2TzLHKABqbU65nn/SKMQT/XdOkv2SXGAUALV0QbmOn2MU4onBuSrJm5J81igAauWz5frtq1bEE0NwdzrPAnl7kt8ZB0Cl/a5cr98STwwXTwzdcUn29bcYgMq6qlynfWpaPFEh5yfZJ8kZRgFQKWeU6/P5RiGeqJ4bk+yV5H1JHjQOgKF6sFyP9yrXZ8QTFfV4kmOS7JnkR8YBMBQ/KtfhY8p1GfFEDXyj/OKebhQAA3V6uf5+wyjEE/VzY5K9k/xLPLkWoN/+UK63e8fLdOKJ2js2ye5JLjMKgL64rFxnjzUK8URzXJJktyTHGwVATx1frq+XGIV4onnuSXJYkjfEN3cDjNcN5Xp6WLm+Ip5osDOS/FOS04wCYExOK9dRz9YTT7TIjek8tO3NSX5hHABd+UW5bu4TbwoXT7TWiUleleRsowBYqrPL9fJEoxBP8JN0PiXy1iS/Mg6Av/Grcn3cvVwvEU/wF59J8vIkZxkFQFKuhy8v10cQTyzWT5K8LslBSW41DqClbi3XwdfF3SYWMSGrP8cUWJJNk7wzyRuNAmiRLyb5RLwhnCWYmEnTTIEl+W2SbyW5Ocn6SdYxEqDBflT+wviRcv0D8cSYXZ/k3CSPJdk6yUQjARrk4XS+VuWQJFcZB+KJXvlTkkuT/CDJk5NsYiRAA5xfoukL5ToH4omeuz2dT5/ck2TjJGsYCVBDtyR5f5J3lOsaiCf67pok3yz//LlJJhgJUAOPp/NFvm9O5246iCcGal6Si5NcnmT1dD6dB1BV30zn8QOfL9cvEE8Mze1JvprOdz49PcnaRgJUyE+SvCfJEfESHeKJirk2nfdD/THJ9CQrGwkwRPck+Wg6L9H5FB3iicp6KMkV6XyCJek82gBg0D6bzkt055brEognKu93Sf4znTdkrpzOnSiAfjs7f31f0++Mg37w9SwMysuTHJxkB6MA+uCSJCek860IIJ5olDeUvxU+zyiAHrgyyYlJvmwUiCea7oASUTONAhiD60o0fd4oEE+0yYolog5M8kzjALrwsyQnlWjyRnDEE621cpL9S0j5zjxgcW4qwXRyOo9DAfEEC0XUfnEnCuj4WZJTRBPiCZZupSRvKst7oqCdrkvyhbLmGwfiCbr3xrJ8Og/a4cokXywLxBOMw25J9k2yo1FAI12c5EvpPOQSxBP00A4lonY3CmiEr5ZousQoEE/QX89OsneSvZKsZhxQK/cmOT3JaUl+bByIJxistUtAvSHJ5sYBlXZDOk8CPz3JXcaBeILh2yPJ65PsbBRQKd9O8pUkZxkF4gmqaesSUXskeapxwFD8psTSV5JcbRyIJ6iH1UpA7Z7khcYBA/G9dN4EflY6720C8QQ19YJ0Hnewa9yNgl77TZJz0nnMwBXGgXiCZplcAuq1SV5mHDAuFyX5WgmnB4wD8QTNNz3JPyV5dZIZxgFdmZPkG0n+I8n1xoF4gvbavkTUq9J5/AHwV3clObdE06XGgXgST7CwiUlemeQVZa1qJLTUfUm+WdZ5SR4zEhBPsCyrJHl5ktlJdkmyspHQcH9MckGS85N8K8n9RgLiCcZqSjoP31ywphgJDTEvnYdYLljzjATEE/TaSkl2SufTei9L8jQjoWbuSOeTchcluTDJfCMB8QSDtF2SHcp6tnFQUT9OcklZ3zUOEE9QFZskeUlZ26fzvikYhvvT+WTcf5V1k5GAeIKqWz7Ji9O5M7VdOt+5B/10dTp3lb6b5L+TPGIkIJ6gzqal8x17C9ZmRsI4/TSd75JbsH5tJCCeoMk2SPL8hdZ0I2EZrk/yg4XWbUYC4gnabFqS55a1TTov861oLK31UDovw12V5IdlubME4glYiuVLQG1V1pZJnmksjfWzJD9Kck1ZV8d7lkA8AeP2lCTPKmtmWZsbS+3ckOS6sn5S1m+NBcQTMBiTk8woa3qJqc2STDWaoZubzpu6b0jn/UpzynrAaEA8AdUzNcmmZW1c1kZlTTCennk8yS1l3VzWjWXNNR4QT0D9LZdkw7KeUdb6SZ5e1lON6Al+k+QXZd2e5Odl3VrWo0YE4glor8lJ1i1rWpJ1yppa1lolsFZrwM96bwmju9O5SzQ3yZ1l/TrJr8ryMhsgnoBxWzGdN7A/JcmTy1qtrCllrVJibHKSlZM8KcmkdL5cecWyli9ruSQTk4yUtcCfy3osnTs8j5T1UFnzkzyY5E9J/lhC54F0vp5kXln3lvX7sn5b1kMOIzBayxkBMEYPpXN3xrOHgFb5/3PElIRugQnVAAAAAElFTkSuQmCC;fontFamily=Manrope;fontSource=https%3A%2F%2Ffonts.googleapis.com%2Fcss%3Ffamily%3DManrope;" parent="1" vertex="1">
          <mxGeometry x="148" y="179.44000000000005" width="28.16" height="28.16" as="geometry" />
        </mxCell>
        <mxCell id="OhbVSFWdRjhHsJU15Zuy-10" style="edgeStyle=orthogonalEdgeStyle;rounded=0;orthogonalLoop=1;jettySize=auto;html=1;exitX=1;exitY=0.5;exitDx=0;exitDy=0;strokeColor=#7EA6E0;entryX=0;entryY=0.5;entryDx=0;entryDy=0;fontFamily=Manrope;fontSource=https%3A%2F%2Ffonts.googleapis.com%2Fcss%3Ffamily%3DManrope;" parent="1" source="OhbVSFWdRjhHsJU15Zuy-11" target="OhbVSFWdRjhHsJU15Zuy-39" edge="1">
          <mxGeometry relative="1" as="geometry">
            <mxPoint x="240" y="207.82999999999998" as="targetPoint" />
          </mxGeometry>
        </mxCell>
        <mxCell id="OhbVSFWdRjhHsJU15Zuy-11" value="" style="shape=image;verticalLabelPosition=bottom;labelBackgroundColor=#ffffff;verticalAlign=top;aspect=fixed;imageAspect=0;image=data:image/png,iVBORw0KGgoAAAANSUhEUgAAAk8AAAJPCAYAAABlxzBuAAAQ/HpUWHRSYXcgcHJvZmlsZSB0eXBlIGV4aWYAAHjarZppdlwpkEb/s4peAhAMwXIYgnN6B738vvFSklW2ymWXS2kr05kveRDDN4CD/d//3vA//NTYNJTatY3WIj9llJEnLzR++7G359d7KZbn9/tPevudwpcfZJ6FZ3m92cvbp/L2/vv17eOZgb74INXvviAft8mfb9zn2/s55r/MqOwk8fOPfvt779F77bW6WRphaK9FvW4R3ofhwsVQ8nyt8ej8rbzuz2Pw0DjjTiWeuOPisdNImVvfVNIJaaabLB2ed9rMsWTLneecd5bnPZWeR94SJUnxR7q5y5AjKll2NhEpQfLHXNJz3/HcbyflzidxaU4MlvjKTx/hny74lce9OxKjlFh9eosV88rZ85A8jOK/uYyEpPuWt/oE+P3x8RM+JVbIYH3CrCxwxvUaYtX0rbbkKQDhusrzq75SP561/FRJ4d6VySQhBbElqaml2HPuKRXJSoImM89S8iIDqdZ8mGQuIo3cKHXEvflOT8+1uebX+7QK+anSpJObIZNklVKpn16UGppVaqm1ttqr1lFnaNJKq6213rznZpdeeu2t96599KmiRas27ao6dI48hJaso40+dIwxJ/ecJcw6+fbkijlXXrLKqqutvnSNNTfls8uuu+2+dY89Tz5yyqmnnX70jDMtGaUUrFi1Zt3Uhs1LrV255dbbbr96x50fWXvL6g+P38haestafjLl1/WPrPFu7z7QM0RynKmeMzKWSyLj3TNAQWfPWdRUSvbMec7iyHRFzUyyem5OijOkRgqLpVxv+sjdt8z9ct4Csf6nvOVfyVzw1P0HmcvB5Lu8fZG140i4n4y9utBjGoXuu9Fm1pnXCcIk/aVy8Z88hz8d4PcGWrPeWK9mu2u3O0c5pEhkg5m7pju0hL3G5i21U/epnYhAZZv48JylN5CYV9XWPY2uKlydDy/ytG2VYc+Ne9USbpQ2LuEf/fbaruRCvCkTMNsK1Sfn2qi7kKDU7yrFB94673xenW6Qy9Zw6pVZM3+owXOUrA6jjit/mpfP85I5/cNz+NUL//bZo0EsAsF4D8UrEGsrZfHEqHX6dqS1KrQ3qS1bYFi79BHvqNqS23T4NTXcMvyi86yXPlvWC+vPz0BvF315TS1iMZ3CgG/pPwqFPpmOf/AcfvFC1nXPsKc4SrNThHUSgEm6nziF+yqa7+KUJ+Uh2ek8ndbtJOGavGzwXO/yAVeW2jelcQvRCz+7pEzt9OocN72yVBfQ+lRG/P45/N0Hv/v8aSBf1V1yXpV7DtO5x6ukgi0/i1KrdVmIzfOYZW5gJ/driMrjz+vVb6DnvOOwdl0/uyKc/BRX7JXhXllaLf8+koTf/cKiOXfsoIoZbEXrljNB1jA6BKLohF267QZoo5Wb7b1pi3iXz5RJbofTJbBN31XviomEypp3Aw66ewwDkC9PgDNRIsFnodSIX92j9HOopbZs9oEeHyBZn6MrDNSHlHPgsQNr9TzDFjMGnkzPuGmmDb9oVarWhPUUCMhkgkxex4SyIjuPs0mgH/sUuaeW2xP5pgxINFHYMqgA7m652ARtbULeZUxZdc8F8dVzkKi3zT0OFkJmg6aAy7SKEsovcvzKsNmeexoabB1t205OfUBp+I+Rwm4I16rjgQ5I7gCrBmsm0wH39iisAQHncGooY3Ryb1KdLCVdhQOORdIQEICdAElbgjzddg9qQe6alF9xdaAzlZ2ZxVZA+TgKoRPOuioscsPH80qvYZW9h9TVXVpcMzrUSDtQPxf3rjqL5tYVIENVIOFRDS1pjupV4b2vD/MEFIwntdmd0nRxqcHtujFcF0HqqEJJiPdIm6PVkfsY1ggAU7RdkRB6cxnBZluYFIM9rJR9ckX2/4tOCT98sPpsVAtL96BH8gPt2SWv/CRXb408EqtjrKwhI+4m0CFO4p/RU4iTiYhGHR2UVNynOyS0c1ZLdpRhO3iDv5mS2r4unIB7nJGRui1hACGLFY3mlT2rJmcYSHzEQokvxxs5dXa6ouSjr7m3/D2sBzmrWxJaka7L1Kn2tdHz1rjdXhR/MWSZt6Fe1Fiatx9pyKd86PPerSLtJzHCDNTI/WdHPo5bRCmDCDusdneGDVduCDUa34DugxhoGxGJpkMkXpTZ6xbB78GgqD3QE7WSBFS43QaaI4EoLAMNW/mFqECJCIm/ddP9jVVwnzm8wGERq4cmq4Pftfe0cKu0EOCt8jAKwNHpVqJ6DdByt6nt7TvUFZoD4O4jYIhQlwvfw7/XMUCf0hsjFxrS7+v6dvBlWgiNPVDOqNq++LBM6rqOaF1WC4pGftUr8DEmX2cIYd4dAb7SreglRK8zTa9Dv5Q5iC0NZSH5LywJAGzUgquRdhKNj4luFSknB4O/km3UdfcJiqTsQov01kcSlnZKoBpXYlJ6wO5pACsSZNFA+kg+rtYu5hTmS14H3X+87trlX4lCowdYqAZX5rsZ+QcTAUsmD9YdRb8RzvrqupJ/lNDTO5fiAan51g4ySfV7M83u+CMX5sCK9DL8zp3uLzMd1/Ga6HEafkXo5u59Z3S8p6SDI91AeUUxPqcW4JxJ7rlIAEx7iYplm+EBWnKFL7aGoZBOGzT/HPmP8sfpokQhrpTb8fzEZljirVAAdM49XecMvsTtSAIVFqleV81MaUKBSpdJoJsJZuXzvK7RGJDCRQOncSAwZZVg/MTWUGeIG4S2RFCvC+ZuQXaHGiAXN1RDFXMXQwseLzt8UgN+dwf2aEtgeENOqd0xm+Me8hFNtRGkg8/XWglmFiobLT8yrfSmZC0N5/SnPUqiNFgYlaBOmyk+cjQWMIyImSL0oxlNNzIxcohx8RPjl5fT4R9jfxv5GSEbfYk9oOhneAbYgr5ShBVZr00As8eBRIeBzMsZB1BhC6jDRvb4aYD374fvBkCUwurA5rNpAevCPtsHnCBgEco8F1gD3zuulNaYbFHKqmBFEw11mxRAgBtBQ29/6FdC5w72GIpk0AcTJx6lqKFJKbdieURkr6vG19I+1gAEf6ziiwW7UKbGEQCf1+aaU8JXwflq2C+C8wzw/v3wewNMdS1B4gGQAaum2CkSkm7P0j6y/mXOP9fTk3XxYU8HgNSpARybu4YZgZqM3wPt4MLb40bj+abjRKLJxBEY6mOjM+ib1bCilrlw0zcF6tm0OrpKwl0s4ZjrlOKmnyompDflUuENFoRyaAAePYnWiAg9gKwrXNmZb0uw89OUofmOA/oiJbgKtzz2eooMBEarMSStJh0KGRMaTxWgpJDwfJSZAGOIvJLbigFF73swQx0qEQ0EEMyCHeBZpui7JchPrnRfHFND8WZg2gUtmDo3scPA1xQMiu7og5sR2cBlPURlarnNN/NcOkn0HRVK3uUV7Uv/H64AKsEIGA/Ih0YDpXt82+klBcRzQXQBerADlRU9RshY+nqvDBUffgkUsDpwZ2QnDoe8EvZN6hTiArQTJbQqHt8Lqt3iPi5TxwqOwrOoogVJ0ZGYRPjFANDNICTaQnWUe4CjSEUdz7oRSiCWekn5JgDiFUNAomhHEuyksOi8DcmIQiQHibF7MKKb6VpqHpQkuDpOBHQ1YtjgLvw1VdzRzq6n3MSQMkLH/PJBpdHmhAuEpIYoxQFzPZWCQCaImZW5kHOta+7eqeoVxaWegctHBy7trOEu8eBqaoUgfTP1Qs7IgjLWOenoqx0Log7gLBFCpsafnRDSoK+m+n7iT6/53N0LI3dg+OhgwQR9T+VGgH7y4kRUT8JU0Xw6n17EaZTs6AlfyA1jcjlw6Fstiaz65vyiKd2D349pkYpvE3tN67tJhY9wPlNyzRHTpwnFr6bE0lDA3e2PlGfPEDzafqOR1L3D24Dr84AFFs2KM0ICFt/7xGGCqWvsU+r7VgAsGsYGFTwv1lssivWoGDoKPHFlfCFXYwaOzj9bbvhqvX9dbqs+vXp/Hrnwdeh+P3LhLXSf8umI/WT0SahvUXyd0r/WWviVYvtLrf0wvdfkwvel5pIm4onHYWlo4IiPfHWp6/BHV+YGu4In0S0i7YVcvSucDivRXFcL3s9owrYWz+D1BCxwVkgpQXxhGY2gYDD7LTis4/od5dVgh+g2i7cAc5vq+2eYFXP/jiPBuiqqkXaprk8dtRsczrgHhcx0D2rk4IbSwe4fsobmw6t0LICWRITpuIKvwSHjAp+NTCrtAMeAFTPq7oGBNMZWVGM01CvWNuSuC3eCwr1YoOpGOR+Xw1ifvGuK/oR2U7KnFYGbgb4xFxrYel76vtP1445Wd98SHYBRvb5dUZ+SYGWC3Iy5aYJgRqYbgF+oA4StAvgzEZaCiQBMzXeFN24ib14IulQNZ4XUZumT8GJ0rh4XyWsiohamhyQQuRzS6Ml8y2JjaE1mwxXiw5BZIw9jGbgS6szLCFatJNkzggZAZ2RUPHCYGxKVYLdIu1K1YL2TEp4EpZzy/jv3itZvADdUwzvF6UJdjZAOhFPFMcChJB9XgoO9LrFd9gspwTrhSUdHyUyon2/panyj7xMr8t2QxyegPHw/EqqldkaOWg0bV1spDQWfS/OK6sj/gouBy5GY2x0rzLlfJcLMqLBwfNMGzeL7IQvYg63dtsxzIvgEbS4MPCLSN1O30aN4Uvh063TFVfR9pyTY9p2iU65v3m/MZrkZxkb2HEAO7kJ4wNd+b8RWpD0rb1GmlAl11XGYeACLWIiI/kVOuBEhJFQ21tJQeF1AiFqIxPXdKuZhfnokI+Hr0Quftm0AotDO11bVfSphkVKXO9Wjm3EShZP7wb1TtQ38MkUrE8OKhVh+NqAATXZhBlZ1GNJyRucBWkaz4tcacoBPMk5I3SLVOFhQMVFvevTeRGjRpMk3HMTNvTak4vTZ+k7+e68hYJTasooZwkQn9b0FuAdnpVQ+DiCHAj41kACdAgBio6gU/HzGQr0q8pRf2oAPf7Oh7rXLDOMgaTiltq5j514tglWAHdJXpIGxzcXrHSd0QJP+gGMevD4ZFrhu3Y8AKspqJhxJnXvSK/9UwyESF/V9eIz7XmajI0aru02EXX0kGeY2gg9oZ0w8y1TX3m0Px2hgH44trmLMK3hQeuI7rgtdF55NT2/z7Ju9q+6C6HzAzANbH9qR7UcE3QGTb7rcv6igzgQKrpUkoNQC4pBOgUx9ezh9vVOLzPUt4OOKvPjOS/IldPKQEdr+tVLCOvCMuicDwqgJsK80dyqsittCW24hquNZx8K5GG9Fe1X1U6uV6JQMF2gYEKQ39ro/OZfZi7pb4wip8FfiVgGRn7Dxzho7Af7UFPLPdzZapDidj4uzgRMdBEfOplHiKUNzBeKRHUnI2G6TqOgHgUR30O9wwY9F406x9BrBhYWjqX4wbXAoxNBjHQRDVz3oHKoDBn5QK6TbYS5WU2BC8/9EgcC/3Jc6Wu4cVvJNKeEDd7lgGm3J+1gbkAYqedtHDf/qyOG3DzN/cs6Gzn9OZHw7j7wQo09HMr6D5ZvwGH0/NSJM43Xo+H7k+Bw4+mGnvk4cvx1LMtDXl/hBlu8LMdzbeSTG82fHiOGPzh9/GOjtQPJPziPD5wPJPzmPDJ8PJP/kPDL8i4PLL0/awucDyT85jwyfDyT/5Dwy/Bfnjz8Z6B/OI4Hn7fq6L70x+wYoqhZ9OTaSAJvuG9G1I/Jil7G5ZIHQYymdPkF48S3cV60g098qwYPvzja8l4L/3wLf/CENwDFi/cwDSbYBrcHX8I41bWVExJw7L7SE75tEV7n+/03CGYi4cz6O+OevH/H/5Tn8R632bwaiwqjH8P/KHqSHM8IirwAAAAZiS0dEAP8A/wD/oL2nkwAAAAlwSFlzAAAuIwAALiMBeKU/dgAAAAd0SU1FB+QEHQ4iBlK9FKkAACAASURBVHja7d17/OZznf/x53zHaTIMKYaRxDrEzI4ialONFC2m4+ZQcthyiorKpiMpHVbFViJqQyLaosiitZFasSp+QzksKcXQyaCMU35/XO+paczh+n6/1+FzuN9vt/etw62mvq/P5/t5P+ZzXdfnmpDVnxOAMVguyZPKmlTWSmWtWP5xhUXW8uW/t2BNLGtkoTWhrAUeL+vPC63Hynp0ofVIkocXWfOTPFT+cX6SB8v6U1mPOozAWC5+AAubnGTdsqYlWaesqWWtleSpSVZrwM96b5LfJLk7ydyy7izr10l+VdYDTgtAPEG7f+83LOsZZa2f5OllPbVFs1itrI2W8Z/7TZJflHV7kp+XdWtZ7mBBi0zwsh001tQkm5a1cVkblTXBeHrm8SS3lHVzWTeWNdd4QDwB1TM5yYyypifZPMlmJZ4YrrlJfprkhiTXJ5lTlpcBQTwBA/KUJM8qa2ZZmxtL7dyQ5LqyflLWb40FxBMwPssn2TrJVmVtmeSZxtJYP0vyoyTXlHV1Op8gBMQTsATTkjy3rG1KOK1oLK31UAmoq5L8sKxfGwuIJ2izDZI8f6E13UhYhuuT/GChdZuRgHiCJpuW5IULrc2MhHH6aZLvLbTcmQLxBLW2fJIXJ9murK2NhD67Osl3y/rveM8UiCeogU2SvKSs7ZOsYiQMyf1JLk3yX2XdZCQgnqAqtkuyQ1nPNg4q6sdJLinru8YB4gkGaaUkOyV5WVlPMxJq5o4kF5V1YTpfmgyIJ+ipKUl2XmhNMRIaYl6Sby+05hkJiCcYq1WSvDzJ7CS7JFnZSGi4Pya5IMn5Sb6VzvumAPEESzUxySuTvKKsVY2ElrovyTfLOi/JY0YC4gkWtn2SVyd5VZK1jQP+xl1Jzk3yjXQ+wQfiCVpqepJ/KtE0wzigK3NKRP1HOk88B/EEDTc5ya5JXpvOJ+WAsbsoydeSnJPkAeNAPEGzvCDJbiWcnmoc0FO/KQF1dpIrjAPxBPW1WpI9kuyeznfJAf33vSRfTXJWknuNA/EE9bB1kteXcHKXCYbjNyWgvpLOd+6BeIIK2qNE085GAZXy7RJRZxkF4gmGb+0keyV5Q5LNjQMq7YYkX05yejqPPwDxBAP07CR7l3BazTigVu4tAXVaOl9YDOIJ+miHJPum8yZwoP6+muRLSS4xCsQT9NZuJZp2NApopItLRJ1tFIgnGJ83lvU8o4BWuDLJF8sC8QRdWinJm8qaaRzQStcl+UJZ840D8QSLt3KS/ZPsl+SZxgEk+VmSU5KcnOSPxoF4gr+NpgOSbGIcwGLclOTzIgrxRNutWILpwLjTBHTnZ0lOKiH1kHEgnmiTA5IcFO9pAsbmuiQnlogC8USjvaFEk0/PAb1wZYmoLxsF4ommeXmSg9N5yCVAr12S5IQk3zIKxBN1t22SQ9J5yCVAv52d5LNJvm8U9MvETJpmCvTDJkmOSueNndONAxiQ6Un+OclTktyW5HdGgnii6lZN8s4STdsZBzAkWyfZNZ1P9V4Xn8xDPFFR+6Tzxs3Xp/PsJoBhWjnJi5O8rMTTtUaCeKIqZiU5Psm7kqxtHEDFrJ3klUmelWRuktuNBPHEsKyX5Mh07jZtahxAxW2aZO8kU9J52OY8I0E8MUgHlWjaOckE4wBqYkI6z5nbJcmjSa4xEsQT/bZdkk8neXuSNYwDqKk1yl/+toyX8hBP9MlTk7w/nYfQbWYcQENskmSPdN5c/v+S/MlIEE/0wh4lmnZNMtE4gMbthZ0H+r44yf1JrjcSxBNjtWmSjyU5Jsk6xgE03DpJXpPkaUluTvJbI0E8MRoHpvMVB9sbBdAyz07yj0kejjeUsxi+245FPSvJ4em8VAd9N2vbLcf137933v25ds7NBkm/nJXk2CQ/MQrEE4vzliT/kmRdo2BQHv/91eP671/+gx9n1uwDDZJ++lWSf03yGaMgSUaMgHTuNn01nUcQCCeAv7VuuT5+tVwvEU+03EFJzk2ym1EALNVu5Xp5kFGIJ9pp0ySnJvlckqcbB0BXnl6um6fG11KJJ1plzyT/kc53PAEwenuX6+ieRiGeaLY1kxyX5MtJNjcOgHHZvFxPjyvXV8QTDbNDkrOTHGoUAD11aLm+7mAU4onmODydT4nMMgqAvphVrrOHG4V4ot42TXJaOs8nWd04APpq9XK9PS3eTC6eqKVXJzkjyV5GATBQe5Xr76uNQjxRDxOSvLf84m5pHABDsWW5Dr+3XJcRT1TUpklOT/LhJJOMA2CoJpXr8enxMp54opJmp/PQNs8cAaiWPcv1ebZRiCeq47AkX0qyjVEAVNI25Tp9mFGIJ4ZrrXS+5ftTSdYwDoBKW6Ncrz9Trt+IJ4bwt5gvJDnEKABq5ZBy/fZqgXhigHZNckqSXYwCoJZ2KdfxXY1CPNF/70hycpIZRgFQazPK9fwdRiGe6I/V03mt/BNJphgHQCNMKdf1T8U3QYgnemrzJCfGpzQAmuqwcp3f3CjEE+O3fZLPJdnNKAAabbdyvd/eKMQTY/e6JCckeaFRALTCC8t1/3VGIZ4Yvbel8yyQTYwCoFU2Kdf/txmFeKI7yyf5UJLjkzzZOABa6cllH/hQ2RcQTyzBWuWX5X1GAUDZD46PJ5KLJxZrkyTHJXmzUQCwkDeX/cHbOMQTC9kmnWd87GEUACzGHmWf8JUu4okkL0nnAWk7GQUAS7FT2S9eYhTiqc1eVX4RtjUKALqwbdk3XmUU4qmN9kzyr0lmGgUAozCz7B97GoV4apP9k3w8yd8ZBQBj8HdlH9nfKMRTG7w1yceSrGMUAIzDOmU/eatRiKcmOzzJR+ObswHojdXLvnK4UYinJnpvko8keZJRANBDTyr7y3uNQjw1yVFJPpxkOaMAoA+WK/vMUUYhnupuYjrfS3SkUQAwAEeWfWeiUYinOlo+ydHxPXUADNb7yv7jC4X7xMtI/bFCqf/3GAUAQ7Bg//lgkoeNo7fceepPkAonAKoQUEfGjRLxVHEThBMAFQyoCUYhnqrqyHiPEwDV8r744JJ4cnICgL/ci6d6e1c8WwOAajuq7FeIp6E7tBS9Z2oAUGUTy351qFGIp2E6sJyIk4wCgBqYVPatA41CPA3DXuUEXM0oAKiR1cr+tZdRiKdBek058aYaBQA1NLXsY68xCvE0CDuWE24DowCgxjYo+9mORiGe+ukfyok2wygAaIAZZV/7B6MQT/2weZIPJHmeUQDQIM8r+9vmRiGeemmdcmK5tQlAE+1Y9rl1jEI89cJK6dzS3NUoAGiwXct+t5JRiKfxOjLJ/sYAQAvsH181Jp7G6R1JjjAGAFrkiLL/IZ5Gba90Xv8FgLb5QDxEUzyN0svKibOqUQDQQquWffBlRiGeurFFOWE2NAoAWmzDsh9uYRTiaWnWSvL+eJYTAKTsh+8v+yPiabHen+TVxgAAf/Hqsj8inp7giCQHGwMAPMHB8elz8bSIPVU1ACzV+8t+KZ6MIC9I8r4kTzIKAFiiJ5X98gXiqd3WKyW9id8JAFimTcq+uZ54aq/3JXmp3wUA6NpLy/4pnlroiCT7+R0AgFHbLy1+A3lb4+mfkrzXuQ8AY/besp+KpxaYmc7txsnOewAYs8llP50pnpptUinlmc55ABi3mWVfnSSemus9SV7rXAeAnnlt2V/FUwO9Pt7nBAD98N6yz4qnBtmiVPEE5zcA9NyEss9uIZ6aYblyQDdzbgNA32xW9tvlxFP9eZ8TAAxGK97/1PR4emWSdzuXAWBg3l32X/FUQ+un8/TTlZzHADAwK5X9d33xVD9HJNnGOQwAA7dNGvz1LU2Np/2THODcBYChOaDsx+KpBrZMi7+sEAAq5IiyL4unintXkmc4XwFg6J5R9mXxVGHvjMcSAECVvLbsz+KpgrZtYt0CQAO8q+zT4qlCJpYD8xTnJwBUzlPKPj1RPFXHvyTZxbkJAJW1S9mvxVMFvCDJ4c5JAKi8w8u+LZ4qcCBWdz4CQOWtngbc8Kh7PL0zyWznIgDUxuzU/NN3dY6nreLlOgCoo8PLPi6eBuydSdZ0/gFA7ayZGt99qms87Z9kN+ceANTWbqnpd9/VMZ42SPIO5xwA1N47yr4unvrs7Uk2dr4BQO1tXPZ18dRHL09ysHMNABrj4LK/i6c+WKGOdQoALNPbyz4vnnrssCQvcn4BQOO8qOzz4qmHpic51LkFAI11aNnvxVMPBzrVeQUAjTU1NblRUod4ekWSNzqnAKDx3lj2ffE0Tm9zLgFAa1R+3696PL01yXbOIwBoje3K/i+exuBpcdcJANrobaUDxNMovSU1fGQ7ADBuG5QOEE+jsHUqfssOAOirt5YeEE9dekuSFZ03ANBaK6aid5+qGE+7JNnTOQMArbdn6QLxtAyHOFcAgKp2QdXiae8kOzpPAIBix9IH4mkxJiZ5s3MEAFjEm0sniKfFDGZr5wcAsIitU6EbLFWJpylx1wkAWLI3l14QT8VBSTZ1XgAAS7Bp6QXxlGRqVYYBAFTaQaUbWh9PByZZz/kAACzDeqUbWh1P6yY5wLkAAHTpgNIPrY2nA1KB228AQG1MzZBvvAwznp6WZH/nAAAwSvuXjmhdPO2XZE3HHwAYpTVLR7QqntYZ5g8NANTefqUnWhNPb4r3OgEAYze19EQr4mmNYf2wAECjvKl0RePj6Y0Z4pu8AIDGeFrpikbH00pJ/tmxBgB65J9LXzQ2nvZNsonjDAD0yCalLxobT+46AQC17otBxtMeSbZyfAGAHtuqdEbj4mkfxxYAqHtnDCqeXppkB8cVAOiTHUpvNCae9nZMAYAm9MYg4ml6ktc7ngBAn72+dEft42kvxxIAGJC+d0e/42m1JG9wHAGAAXlD6Y/axtOe8QXAAMDgTC39Uet4AgAYpNrG005JtnH8AIAB26Z0SO3i6XWOHQAwJH3rkH7F09+JJwBgyPH0d3WKpz2STHDcAIAhmZA+fd9dv+Jpd8cMABiyvvRIP+LpVUk2c7wAgCHbrHRJ5eNpN8cKAKiInndJr+Np/SS7Ok4AQEXsWvqksvG0a7xRHACojgnp8Y2dXsfTax0jAKBietonvYynWUm2cnyg2raYsXG2mLGxQfTBoQftkdWmrGIQUD1blU6pXDy9xrGB6ofTZeeflMvOP0lA9dipJxyZ4445LJedf5KAgmrqWaf0Kp5WEE9Qj3CasurkTFl1soDqcTjtvcfOSZKZ0zcSUFDdeFqhSvH06iRrOy5Q/XBaQED1PpwWEFBQSWuXXqlMPL3KMYH6hJOA6l84CSiotJ70Si/iaS3xBPULJwHVv3ASUFDpeFqrCvH0yiTLOx5Qv3ASUP0LJwEFlbR86ZZKxBNQ03ASUP0LJwEFlTT0eHpGkpc5DlDvcBJQ/QsnAQWV87LSL0OLp5c7BtCMcBJQ/QsnAQWVM65+GW88zTZ/aE44Caj+hZOAgkoZV7+MJ542TLK9+UOzwklA9S+cBBRUxvalYwYeT7uYPVTDUe/ar6fhJKD6F04LB9Q+r3MZhSEa8y/geOJpJ3OHatjn4KNz3fW39OXPbmtA9TOckuS0s76d4088y8kLwzPmjhlrPK2bZAdzh2q4d979mTX7QAFVo3Da5+APOnFhuHYoPTOweHLXCQSUcBJOUHdj6pmxxpNnO4GAEk7CCepuTD0zlnhaNck/mjcIKOEknKDm/rF0Td/jacckK5k3CKimBJRwgtZaqXRN3+PJG8VBQDUmoIQTtN6ou0Y8gYBqbUAJJ2AQ8fT8JOuZMwiougeUcAKK9Urf9C2eXmrGIKDqHlDCCRhP34w2nnyXHQioWgeUcALG2zejiae1k2xrviCg6hpQwglYgm1L5/Q8nl5stiCg6hpQwgnoVeeMJp62M1cQUHUMKOEE9LJzRhNPs8wVBFTdAko4Ab3unG7j6e+TbGiuIKDqFFDCCRiFDUvv9CyeXmSmIKDqFFDCCRiDrnqn23h6oXmCgKpLQAknYIy66p1u4+kF5gkCqg4BJZyAceiqd7qJp+ckWcs8QUBVPaCEEzBOa5XuGXc8Pd8sQUBVPaCEE9Ajy+we8QTUPqCEEzDIeJqQ1Zd5d+rXSdYxS2if1aasksvOPykzp2/Ulz9/3n0PZMqqk8f1Z9x9z++y1pprCCegV+5MMm1p/4Fl3XmaIZygvQZxB2q8hBPQY+uU/hlzPD3PDEFA9TOgqko4Qas9bzzx9FzzA9oWUMIJWu+544mnrc0PaFNACSdgWf2ztHiammRz8wPaElDCCSg2Lx006nh6jtkBbQko4QR020FLi6etzA1oQ0AJJ2A0HSSegFYHlHACehlPW5ob0OSAEk7AWDpoSfG0UXwZMNDggBJOwDKsVXqo63h6lpkBTQ0o4QR06VniCWh9QAknoF/xNNO8gKYFlHACRmmmeAJaG1DCCehnPD0tnW8UBmhEQAknYIzWKV20zHiaYVbVcPxH3p59XreLQSCghBMtsdqUVXLeGcdmixkbG0Z1zOgmnqab0/CdesKReduBu+dLn/2AgEJACSdaEk6XnX9SXrHTi3LZ+ScJqOqYLp5qEk5777HzX/61gEJACSfaEU4zp3ceKzRl1ckCqmbxtJk5VSecBBQCSjjRrnBaQEBVxmbiqYbhJKAQUMKJdoWTgKpXPG2SZJI5VS+cBBQCSjjRrnASUJUxqfTREuNpUzOqbjgJKASUcKJd4SSgKmNT8VTjcBJQCCjhRLvCSUBVP54ckRqEk4BCQAkn2hVOAmroNhZPDQgnAYWAEk60K5wEVHXjaSPzqU84CSjaHFDCiTaGk4Aamo2WFE9PTrKW+dQrnAQUbQwo4USbw0lADcVapZOeEE8bmk09wwnaFFDCCQTUkGy4uHjawFzqG077HnJ0Tj3zAoOm0QElnGjyXwwEVOVtIJ6EE9RqoxFOCCgBVcV4Wt9chBNUcaMRTggoAVUBf+mkCVn9OQv++cVJdjAb4QRVsdqUVbLP63bJ8SeeZRg06rzuxxvIF5h33wOZNfvAXDvnZsPurUuS7LhoPN2YRb67BeEEgIAiSXJTypPGF37Zbj1zEU4A9J+X8GrpL520IJ6mpvOtwQgnAAQUTzSp9NJf4mldMxFOAAgolmpd8SScABBQjDGe1jEP4QSAgGKp1hFPwgkAAcUY42lt8xBOAAgolmrtheNpqnkIJwAEFEs1VTwJJwAEFGOMpzXNQzgBIKBYqjXFk3ACQEAJqDHE02pJVjAP4QSAgGKpVkgyeSTJU8xCOAEgoARUd+MaSbKGOQgnAASUgOrKqiNJnmwOwgkAASWguo+n1c1BOAEgoARUV1YRT8IJAAEloEYZT1PMQTgBIKAEVFdWFk/CCQABJaBGGU+rmoNwAkBACaju42kV4SScABBQAqork0aSTBZOwgkAASWguvKkkSQrCyfhBICAElBdWam18SScABBQAmqs8TRJOAknAASUgOrKiq2LJ+EEgIASUOONp5WEk3ACQEAJqK6sMJJkReEknAAQUAKqK8uPJFlBOAknAASUgOrKchOy+nPuS4MflNnvcIIm+ODHT8lRHz/FIJbh8d9fbQiwFPPueyCzZh+Ya+fc3OQf8z9HkiwnnACA8WrJHaiJjY0n4QQAAqpf8TQinAAAAdWVkcbFk3ACAAHVRxNGkkwQTgCAgOo+noQTACCgujSS5HHhBAAIqK48PpLkz3X+CbaYsbFwAoAaBNTxH3m7eKqCa+fcnH0POdpZCQAVdt31t+SVex7ehB/lzyNJHq37T3HqmRcIKACocDjNmn1g7p13fxN+nMcaEU8CCgCE0yDj6ZGm/DQCCgCEU589OpLk4Sb9RAIKAIRTv+Ppoab9VAIKAIRTnzwykmR+E38yAQUAwqkPHl4uyYNN/elOPfOCJMmXPvuBvv1v3H3P73LjLb/w20Kt3X7HXYbQhct/8GNDoNYmrzwpM2dsnOUmThROY/dQo+NpEAG11ppr5KJLf5h9Dv6g30pouFmzDzQEamuLGRvnsvNPEk49iKeJmTRt9yQbNPmnvHbOzfnFHXfllTu9qG8n5DPWWyfnXXi5304AKhtOU1adLJzG74qJmTTtNUk2bfpPKqAAEE7CqQe+OzGTpu2S5O/b8NMKKACEk3Aap4snZtK0lybZqi0/sYACQDgJp3H49sRMmvbCJM9v008toAAQTsJpjM6dmEnTtk6yfdt+cgEFgHASTmNw9sRMmvb3SXZq408voAAQTsJplM6YmEnTNkrymrZOQEABIJyE0yh8YWImTVs3yevbPAUBBYBwEk5d+tzETJq2RpI3tX0SAgoA4SScuvCpiZk0bVKSt5qFgAJAOAmnZfroxEya9uckR5iFgAJAOAmnZTpyYiZNm5/kPUkmmoeAAkA4CaclejjJByZm0rQkOSDJqmYioAAQTsJpie5KctyCeNozydpmIqAAEE7CaYn+L8nJC+LpFUk2MhMBBYBwYol+kuTMBfG0fZJnmYmAAkA4sURXJPnWgnjaOskLzURAASCcWKILk/z3gnjaNMnOZiKgABBOLNHZSf53QTxNS7K7mQgoAIQTS/SFJDcuiKfJSfY3EwEFgHBiiT6Z5M4F8fTnJO80EwEFgHBiiY5M8sCCeHogybuSLG8uAgoA4cQTPJjk3UmyIJ6S5A1JnmI2AgoA4cQT3Jbks4vG0+wkG5qNgAJAOPEEP05yxqLx9IIkW5qNgAJAOPEElya5IElGFvo3bzeX8Tn1zAuy7yFH9+3P33uPnXPqCUcaNK3bVFabsophIJyE07D9pZMWjqfbzEVAQdU2lRc9/9kCCuEknKrgNvEkoKA2m8rM6RsJKISTcKpkPN1qLgIKqrqpCCiEk3AaslsXF0+/T3K32QgoqOqmIqAQTsJpSO4unfSEeEqSW8xHQEGVNxUBhXASTkPwN320aDzdbD4CCqq+qQgohJNwGrC/6aOFn/OUJM9M8hIz6r1BPAdq9Smr5KJLrzRsWrGpTF1zjfzjS/4hX/3GdzL/oYcNkspaf72188PvfEk41dvZSX6w4F8seufpRvPpn37egZp33wM59awLDJlW/W3cHSjq4PZf3pXzvt2fBxwLp4H5mz4STw0IqHn3PZBZsw/MtXO86kp7wklAUSf7HPzBnHbWt4VTQ+PppnS+NZiaBJRwos3hJKBoa0AJp4F6sPTREuMpSX5qTvUIKOGEcBJQtC+ghNPAPaGLxFNNA0o4IZwEFO0LKOFUjXha9NN2SbJRkpea1WCM5VN4wgnhtGQ+hUcdnHfh5XnGeutkixkbC6fqOzMLfdJuSfE0JcnrzaqaASWcEE4CivYFlHAaquOzyEMyFxdP85McZlbVCyjhhHASULQvoITT0L07yX0L/xuLe8/THUnuNKvBW9p7oIQTwmn0vAeKOljae6CE09DdWbrobyzuzlPSecr4RmY2eIu7AyWcEE5j5w4UdbC4O1DCqRK+n+Qr3cbT9CTbmtnwA0o4IZwEFO0LKOFUGV9Pcumi/+aErP6cxf2Hd03ne1wYolfu/KLc/su7hBPCqUdsSNTBoQftkVPPvMB5Wg27JTmn23jaKIt8gzBAncNJQAFjsHEW+aRdsvg3jKf8B+82M6BJ4ZR4EznQtbsXF05Li6ck+ZG5AU0KJwEFjMISO2hp8XSNuQFNCycBBXTpGvEECCcBBfQ5nv7X3ICmhpOAApbhf8cST3OT3GB2QFPDSUABS3BD6aBRx1OSXG1+QJPDSUABo+2fZcXTD80PaHo4CShgNP2zrHi60vyANoSTgAK67Z9lxdOcdL5RGBBOjQ8nAQWU7pkznnhKkv8xRxBOVQ2nRx97TEABvbTM7ukmnn5gjiCc+uG6628Z/58x5+bMu+8BAQX0yjK7RzwBQwunWbMPHPef88AfH8ys2QcKKKBS8fS/8SXBIJz6EE73zru/J3/etXNuFlBAL9ydLh4SPtLlH3aFeYJwqmI4CSigh7rqnW7j6XvmCcKpquEkoIAe6ap3uo2ny80ThFOVw0lAAT3QVe90G0//L8mtZgrCqcrhJKCAcbi19E7P4ilJLjNXEE5VDycBBYxR150zmnj6rrmCcKpDOAkoYAy67pzRxNN/mysIp7qEk4ACRqnrzhlNPN2V5PtmC8KpLuEkoIAufb90Ts/jKUkuNV8QTnUKJwEF9LpvRhtP3zFfEE51CycBBfSyb0YbTz9I8kszBuFUt3ASUMAS/DKj/B7fkTH8j1xiziCc6hhOAgroRdeIJxBOrQonAQUMI54uTjLfrEE41TWcBBRQzC9d0/d4ui/Jf5o3CKc6h5OAAkrP3DeIeEqSi8wbhFPdw0lAQeuNqWfGGk8XmjcIpyYRUNBKY+qZscbTr+KN4yCcGkZAQatcUnpmYPE05loDhJOAElBQAWPumPHE0wXmDsJJQAkoqKkxd8x44unW+K47qISj3rWfcKphQM3a9tlOXhiOS0vHDDyekuR884fh2+fgo3Pd9bcIpxoF1L6HHJ3zvn25kxeGY1z9Mt54+pb5w/DdO+/+zJp9YE8Dqu3h1M+A2veQo3Pqmd75AEM0rn4Zbzz9PJ75BI0LKOHUv4ASTjB0F5V+GVo8Jcl5jgM0J6CEU/8CSjhBJYy7W3oVT484FlD/gBJO/Qso4QSV8EhV4unuJOc6HlDvgBJO/Qso4QSVcW7plqHHU8QT1DughFP/Ako4QeXiadx6FU/fSHKXYwL1Cyjh1L+AEk5QKXeVXqlMPD2c5OuOC9QroIRT/wJKOEHlfL30SmXiKeIJ6hVQwql/ASWcoLLx1BO9jKfLklzj2ED1A0o49S+ghBNU0jWlU3piuR7/n/takq0cI6h2QC345/Q2oNaf+QpzhWr6Wi//sJEe/587J8njjhFUO6Bs8P2bLVA5j5c+qWw83d7r/4MAAONwTumTysZTkpztOAEAFdHzLulHPJ2b5KeOFQAwZD9NHx7kPdKn/7NfdbwAgCHrS4/0K57ODsXSLAAADmBJREFUijeOAwDD83jpkdrE0/8lOdNxAwCG5MzSI7WJp4gnAGDI8dQX/YynC5Nc5dgBAAN2VemQ2sVTkpzh+AEAA9bX/hhEPM11DAGAAZlb93i6N8mXHUcAYEC+XPqjtvGUJKc7jgDAgPS9OwYRT9cn+YpjCQD02VdKd9Q+npLkNMcTAGhCbwwqnr6T5BLHFADok0tKbzQmnpLkVMcVAKh7Zwwyns5Kco1jCwD02DXp0/fYDTuekuTfHV8AoM59Meh4+lKSmxxjAKBHbip90dh4mh93nwCA3vn30heNjack+WKSOxxrAGCc7ihdMVDDiKffJfmC4w0AjNMXSlc0Pp4W/LC+MBgAGKu5GdLNmGHF051JTnHcAYAxOqX0RGviacEPfY9jDwCM0j0Z4k2YYcbTHUlOdvwBgFE6OUP88NnIkH/4z8d7nwCA7s0t/TA0w46nXw17AABArXy+9ENr4ylJTkryS+cCALAMvyzdMFRViKe5SU50PgAAy3BiKvB2n5EKDeNG5wQAsAQ3piI3W6oST/OSfM55AQAswedKL4inRYZytXMDAFjE1anQTZYqxdNjcfcJAHiiz5VOEE+LcVqSi50jAEBxcemDyhip4JA+6zwBAKraBVWMpwuSnOFcAYDWO6N0gXjqwmeSPOScAYDWeqj0QOVUNZ6uTvJp5w0AtNanU9FP4Y9UeGifSXKbcwcAWue2VPSuU9Xj6Y4k/+b8AYDW+bfSAeJpDD6d5LvOIQBoje+m4m/dGanBEN19AoD2qPy+X4d4+maSLzqXAKDxvlj2ffHUA8cnmeucAoDGmlv2+8qrSzxdX5eBAgBjcnzZ78VTDx2X5HLnFgA0zuVln6+FOsXTw0k+5fwCgMb5VNnnxVMffCvJCc4xAGiME8r+XhsjNRzyp5Lc7FwDgNq7OTV8VamO8XRbkk863wCg9j6ZGn4V20hNh31ykrOdcwBQW2eX/bx2Rmo89E8kuce5BwC1c0/Zx2upzvF0TZJjnX8AUDvHln1cPA3BJ5Kc7xwEgNo4PzW+69SEeFpQr39wLgJA5f0hDXjVqAnxdEW8fAcAdXBs2bfFUwX8a5ILnJMAUFkXlP269poST48l+XiS3zo3AaByflv26cfEU7V8vxwYAKBaPl726UYYadjB+USSrzlHAaAyvpaaf7qu6fG0oG5/7lwFgKH7eRr4qlAT4+lHST7mfAWAoftY2ZfFUw2cnOTzzlkAGJrPp6bfXdfWeFpQu1c5dwFg4K5Kg18FanI83V4O3HznMAAMzPyy/94unurpvCQfdR4DwMB8tOy/jTXSgoP4kXh8AQAMwtfKvttobYinR8uB/KlzGgD65qdlv31UPDXDteWAPu7cBoCee7zss9e24YcdadGB/UqSY5zfANBzx5R9thVGWnZwvf8JAHqrFe9zanM8PVjq+DrnOgCM23VlX31QPDX/QH84yQPOeQAYswfKftq6GxIjLT3g/xHvfwKA8Tim7KetM9Lig/6xJKc49wFg1E5Jg79+RTwt3YeTfMfvAAB07Ttl/2yttsfTL5N8KMlNfhcAYJluKvvmL8VTu11RCvpPRgEAS/Snsl9e0fZBiKeOM0pJAwCL96GyX7aeePqrjyU5wRgA4AlOSIvfIC6ell3V3zAGAPiLb8SrM+JpKe4uJ8iVRgEAubLsi3cbhXhammuTHJ3kVqMAoMVuLfvhtUYhnrpxUTlh7jMKAFrovrIPXmQU4mk0Ti8nDgC0zdFlH0Q8jdon49MFALTLx8r+h3gasw8mOdkYAGiBk8u+h3gal/nlRDrHKABosHPKfjffKMRTL9yZzuu/FxsFAA10cdnn7jQK8dRLN5QTyzOgAGiSK8v+doNRiKd++J90bmnOMQoAGmBO2df+xyjEUz9dXE6024wCgBq7rexn3pIingbi6+WEm2sUANTQ3LKPfd0oxNMgnV5OvHuNAoAaubfsXx6CKZ6G4qRyAj5oFADUwINl3zrJKMTTMB1fTsTHjAKACnus7FfHG4V4qoKPJznKGACosKPKfoV4qowPxyPtAaimD5Z9CvHk5AQAf7kXT3X2eDlBP2IUAFTAR8q+9LhRiKcqe1RAAVChcHrUKHprOSPoi4fz1zeQv8c4ABhCOB2V5BGj6D13nvrnkSQfiPdAATBYHy77j3AST7X0WJL3xxv1ABiMD5Z9x7MHxVPtHZXkffG6MwD98WjZZ44yCvHUJMek8/6nPxkFAD30p7K/HGMU4qmJjk3y7iR/MAoAeuAPZV851ijEU5N9OskRSe40CgDG4c6yn3zaKMRTG5yc5F1J/s8oABiD/yv7yMlGIZ7a5Iwk/5LkOqMAYBSuK/vHGUYhntro3CTvTPJ9owCgC98v+8a5RiGe2uy/yi/ChUYBwFJcWPaL/zIK8URyVZK3JznLKABYjLPKPnGVUYgn/uqmJIcl+ZxRALCQz5X94SajEE880d1JDo3vwwOg48NlX7jbKMQTS/ZIOt9LdGiS3xsHQCv9vuwD748v+BVPdO3fkrwlbtMCtM1N5fr/b0Yhnhi9M5McnOR7RgHQCt8r1/0zjUI8MXaXJnlzkrONAqDRzi7X+0uNQjwxfjckOSjJcUYB0EjHlev8DUYhnuidP6TzjI93JplnHACNMK9c199ervOIJ/rgk0n2TzLHKABqbU65nn/SKMQT/XdOkv2SXGAUALV0QbmOn2MU4onBuSrJm5J81igAauWz5frtq1bEE0NwdzrPAnl7kt8ZB0Cl/a5cr98STwwXTwzdcUn29bcYgMq6qlynfWpaPFEh5yfZJ8kZRgFQKWeU6/P5RiGeqJ4bk+yV5H1JHjQOgKF6sFyP9yrXZ8QTFfV4kmOS7JnkR8YBMBQ/KtfhY8p1GfFEDXyj/OKebhQAA3V6uf5+wyjEE/VzY5K9k/xLPLkWoN/+UK63e8fLdOKJ2js2ye5JLjMKgL64rFxnjzUK8URzXJJktyTHGwVATx1frq+XGIV4onnuSXJYkjfEN3cDjNcN5Xp6WLm+Ip5osDOS/FOS04wCYExOK9dRz9YTT7TIjek8tO3NSX5hHABd+UW5bu4TbwoXT7TWiUleleRsowBYqrPL9fJEoxBP8JN0PiXy1iS/Mg6Av/Grcn3cvVwvEU/wF59J8vIkZxkFQFKuhy8v10cQTyzWT5K8LslBSW41DqClbi3XwdfF3SYWMSGrP8cUWJJNk7wzyRuNAmiRLyb5RLwhnCWYmEnTTIEl+W2SbyW5Ocn6SdYxEqDBflT+wviRcv0D8cSYXZ/k3CSPJdk6yUQjARrk4XS+VuWQJFcZB+KJXvlTkkuT/CDJk5NsYiRAA5xfoukL5ToH4omeuz2dT5/ck2TjJGsYCVBDtyR5f5J3lOsaiCf67pok3yz//LlJJhgJUAOPp/NFvm9O5246iCcGal6Si5NcnmT1dD6dB1BV30zn8QOfL9cvEE8Mze1JvprOdz49PcnaRgJUyE+SvCfJEfESHeKJirk2nfdD/THJ9CQrGwkwRPck+Wg6L9H5FB3iicp6KMkV6XyCJek82gBg0D6bzkt055brEognKu93Sf4znTdkrpzOnSiAfjs7f31f0++Mg37w9SwMysuTHJxkB6MA+uCSJCek860IIJ5olDeUvxU+zyiAHrgyyYlJvmwUiCea7oASUTONAhiD60o0fd4oEE+0yYolog5M8kzjALrwsyQnlWjyRnDEE621cpL9S0j5zjxgcW4qwXRyOo9DAfEEC0XUfnEnCuj4WZJTRBPiCZZupSRvKst7oqCdrkvyhbLmGwfiCbr3xrJ8Og/a4cokXywLxBOMw25J9k2yo1FAI12c5EvpPOQSxBP00A4lonY3CmiEr5ZousQoEE/QX89OsneSvZKsZhxQK/cmOT3JaUl+bByIJxistUtAvSHJ5sYBlXZDOk8CPz3JXcaBeILh2yPJ65PsbBRQKd9O8pUkZxkF4gmqaesSUXskeapxwFD8psTSV5JcbRyIJ6iH1UpA7Z7khcYBA/G9dN4EflY6720C8QQ19YJ0Hnewa9yNgl77TZJz0nnMwBXGgXiCZplcAuq1SV5mHDAuFyX5WgmnB4wD8QTNNz3JPyV5dZIZxgFdmZPkG0n+I8n1xoF4gvbavkTUq9J5/AHwV3clObdE06XGgXgST7CwiUlemeQVZa1qJLTUfUm+WdZ5SR4zEhBPsCyrJHl5ktlJdkmyspHQcH9MckGS85N8K8n9RgLiCcZqSjoP31ywphgJDTEvnYdYLljzjATEE/TaSkl2SufTei9L8jQjoWbuSOeTchcluTDJfCMB8QSDtF2SHcp6tnFQUT9OcklZ3zUOEE9QFZskeUlZ26fzvikYhvvT+WTcf5V1k5GAeIKqWz7Ji9O5M7VdOt+5B/10dTp3lb6b5L+TPGIkIJ6gzqal8x17C9ZmRsI4/TSd75JbsH5tJCCeoMk2SPL8hdZ0I2EZrk/yg4XWbUYC4gnabFqS55a1TTov861oLK31UDovw12V5IdlubME4glYiuVLQG1V1pZJnmksjfWzJD9Kck1ZV8d7lkA8AeP2lCTPKmtmWZsbS+3ckOS6sn5S1m+NBcQTMBiTk8woa3qJqc2STDWaoZubzpu6b0jn/UpzynrAaEA8AdUzNcmmZW1c1kZlTTCennk8yS1l3VzWjWXNNR4QT0D9LZdkw7KeUdb6SZ5e1lON6Al+k+QXZd2e5Odl3VrWo0YE4glor8lJ1i1rWpJ1yppa1lolsFZrwM96bwmju9O5SzQ3yZ1l/TrJr8ryMhsgnoBxWzGdN7A/JcmTy1qtrCllrVJibHKSlZM8KcmkdL5cecWyli9ruSQTk4yUtcCfy3osnTs8j5T1UFnzkzyY5E9J/lhC54F0vp5kXln3lvX7sn5b1kMOIzBayxkBMEYPpXN3xrOHgFb5/3PElIRugQnVAAAAAElFTkSuQmCC;fontFamily=Manrope;fontSource=https%3A%2F%2Ffonts.googleapis.com%2Fcss%3Ffamily%3DManrope;" parent="1" vertex="1">
          <mxGeometry x="148" y="209.60000000000002" width="28.16" height="28.16" as="geometry" />
        </mxCell>
        <mxCell id="OhbVSFWdRjhHsJU15Zuy-12" style="edgeStyle=orthogonalEdgeStyle;rounded=0;orthogonalLoop=1;jettySize=auto;html=1;exitX=1;exitY=0.5;exitDx=0;exitDy=0;strokeColor=#7EA6E0;entryX=0;entryY=0.5;entryDx=0;entryDy=0;fontFamily=Manrope;fontSource=https%3A%2F%2Ffonts.googleapis.com%2Fcss%3Ffamily%3DManrope;" parent="1" source="OhbVSFWdRjhHsJU15Zuy-13" target="OhbVSFWdRjhHsJU15Zuy-40" edge="1">
          <mxGeometry relative="1" as="geometry">
            <mxPoint x="240" y="278.68" as="targetPoint" />
          </mxGeometry>
        </mxCell>
        <mxCell id="OhbVSFWdRjhHsJU15Zuy-13" value="" style="shape=image;verticalLabelPosition=bottom;labelBackgroundColor=#ffffff;verticalAlign=top;aspect=fixed;imageAspect=0;image=data:image/png,iVBORw0KGgoAAAANSUhEUgAAAk8AAAJPCAYAAABlxzBuAAAQ/HpUWHRSYXcgcHJvZmlsZSB0eXBlIGV4aWYAAHjarZppdlwpkEb/s4peAhAMwXIYgnN6B738vvFSklW2ymWXS2kr05kveRDDN4CD/d//3vA//NTYNJTatY3WIj9llJEnLzR++7G359d7KZbn9/tPevudwpcfZJ6FZ3m92cvbp/L2/vv17eOZgb74INXvviAft8mfb9zn2/s55r/MqOwk8fOPfvt779F77bW6WRphaK9FvW4R3ofhwsVQ8nyt8ej8rbzuz2Pw0DjjTiWeuOPisdNImVvfVNIJaaabLB2ed9rMsWTLneecd5bnPZWeR94SJUnxR7q5y5AjKll2NhEpQfLHXNJz3/HcbyflzidxaU4MlvjKTx/hny74lce9OxKjlFh9eosV88rZ85A8jOK/uYyEpPuWt/oE+P3x8RM+JVbIYH3CrCxwxvUaYtX0rbbkKQDhusrzq75SP561/FRJ4d6VySQhBbElqaml2HPuKRXJSoImM89S8iIDqdZ8mGQuIo3cKHXEvflOT8+1uebX+7QK+anSpJObIZNklVKpn16UGppVaqm1ttqr1lFnaNJKq6213rznZpdeeu2t96599KmiRas27ao6dI48hJaso40+dIwxJ/ecJcw6+fbkijlXXrLKqqutvnSNNTfls8uuu+2+dY89Tz5yyqmnnX70jDMtGaUUrFi1Zt3Uhs1LrV255dbbbr96x50fWXvL6g+P38haestafjLl1/WPrPFu7z7QM0RynKmeMzKWSyLj3TNAQWfPWdRUSvbMec7iyHRFzUyyem5OijOkRgqLpVxv+sjdt8z9ct4Csf6nvOVfyVzw1P0HmcvB5Lu8fZG140i4n4y9utBjGoXuu9Fm1pnXCcIk/aVy8Z88hz8d4PcGWrPeWK9mu2u3O0c5pEhkg5m7pju0hL3G5i21U/epnYhAZZv48JylN5CYV9XWPY2uKlydDy/ytG2VYc+Ne9USbpQ2LuEf/fbaruRCvCkTMNsK1Sfn2qi7kKDU7yrFB94673xenW6Qy9Zw6pVZM3+owXOUrA6jjit/mpfP85I5/cNz+NUL//bZo0EsAsF4D8UrEGsrZfHEqHX6dqS1KrQ3qS1bYFi79BHvqNqS23T4NTXcMvyi86yXPlvWC+vPz0BvF315TS1iMZ3CgG/pPwqFPpmOf/AcfvFC1nXPsKc4SrNThHUSgEm6nziF+yqa7+KUJ+Uh2ek8ndbtJOGavGzwXO/yAVeW2jelcQvRCz+7pEzt9OocN72yVBfQ+lRG/P45/N0Hv/v8aSBf1V1yXpV7DtO5x6ukgi0/i1KrdVmIzfOYZW5gJ/driMrjz+vVb6DnvOOwdl0/uyKc/BRX7JXhXllaLf8+koTf/cKiOXfsoIoZbEXrljNB1jA6BKLohF267QZoo5Wb7b1pi3iXz5RJbofTJbBN31XviomEypp3Aw66ewwDkC9PgDNRIsFnodSIX92j9HOopbZs9oEeHyBZn6MrDNSHlHPgsQNr9TzDFjMGnkzPuGmmDb9oVarWhPUUCMhkgkxex4SyIjuPs0mgH/sUuaeW2xP5pgxINFHYMqgA7m652ARtbULeZUxZdc8F8dVzkKi3zT0OFkJmg6aAy7SKEsovcvzKsNmeexoabB1t205OfUBp+I+Rwm4I16rjgQ5I7gCrBmsm0wH39iisAQHncGooY3Ryb1KdLCVdhQOORdIQEICdAElbgjzddg9qQe6alF9xdaAzlZ2ZxVZA+TgKoRPOuioscsPH80qvYZW9h9TVXVpcMzrUSDtQPxf3rjqL5tYVIENVIOFRDS1pjupV4b2vD/MEFIwntdmd0nRxqcHtujFcF0HqqEJJiPdIm6PVkfsY1ggAU7RdkRB6cxnBZluYFIM9rJR9ckX2/4tOCT98sPpsVAtL96BH8gPt2SWv/CRXb408EqtjrKwhI+4m0CFO4p/RU4iTiYhGHR2UVNynOyS0c1ZLdpRhO3iDv5mS2r4unIB7nJGRui1hACGLFY3mlT2rJmcYSHzEQokvxxs5dXa6ouSjr7m3/D2sBzmrWxJaka7L1Kn2tdHz1rjdXhR/MWSZt6Fe1Fiatx9pyKd86PPerSLtJzHCDNTI/WdHPo5bRCmDCDusdneGDVduCDUa34DugxhoGxGJpkMkXpTZ6xbB78GgqD3QE7WSBFS43QaaI4EoLAMNW/mFqECJCIm/ddP9jVVwnzm8wGERq4cmq4Pftfe0cKu0EOCt8jAKwNHpVqJ6DdByt6nt7TvUFZoD4O4jYIhQlwvfw7/XMUCf0hsjFxrS7+v6dvBlWgiNPVDOqNq++LBM6rqOaF1WC4pGftUr8DEmX2cIYd4dAb7SreglRK8zTa9Dv5Q5iC0NZSH5LywJAGzUgquRdhKNj4luFSknB4O/km3UdfcJiqTsQov01kcSlnZKoBpXYlJ6wO5pACsSZNFA+kg+rtYu5hTmS14H3X+87trlX4lCowdYqAZX5rsZ+QcTAUsmD9YdRb8RzvrqupJ/lNDTO5fiAan51g4ySfV7M83u+CMX5sCK9DL8zp3uLzMd1/Ga6HEafkXo5u59Z3S8p6SDI91AeUUxPqcW4JxJ7rlIAEx7iYplm+EBWnKFL7aGoZBOGzT/HPmP8sfpokQhrpTb8fzEZljirVAAdM49XecMvsTtSAIVFqleV81MaUKBSpdJoJsJZuXzvK7RGJDCRQOncSAwZZVg/MTWUGeIG4S2RFCvC+ZuQXaHGiAXN1RDFXMXQwseLzt8UgN+dwf2aEtgeENOqd0xm+Me8hFNtRGkg8/XWglmFiobLT8yrfSmZC0N5/SnPUqiNFgYlaBOmyk+cjQWMIyImSL0oxlNNzIxcohx8RPjl5fT4R9jfxv5GSEbfYk9oOhneAbYgr5ShBVZr00As8eBRIeBzMsZB1BhC6jDRvb4aYD374fvBkCUwurA5rNpAevCPtsHnCBgEco8F1gD3zuulNaYbFHKqmBFEw11mxRAgBtBQ29/6FdC5w72GIpk0AcTJx6lqKFJKbdieURkr6vG19I+1gAEf6ziiwW7UKbGEQCf1+aaU8JXwflq2C+C8wzw/v3wewNMdS1B4gGQAaum2CkSkm7P0j6y/mXOP9fTk3XxYU8HgNSpARybu4YZgZqM3wPt4MLb40bj+abjRKLJxBEY6mOjM+ib1bCilrlw0zcF6tm0OrpKwl0s4ZjrlOKmnyompDflUuENFoRyaAAePYnWiAg9gKwrXNmZb0uw89OUofmOA/oiJbgKtzz2eooMBEarMSStJh0KGRMaTxWgpJDwfJSZAGOIvJLbigFF73swQx0qEQ0EEMyCHeBZpui7JchPrnRfHFND8WZg2gUtmDo3scPA1xQMiu7og5sR2cBlPURlarnNN/NcOkn0HRVK3uUV7Uv/H64AKsEIGA/Ih0YDpXt82+klBcRzQXQBerADlRU9RshY+nqvDBUffgkUsDpwZ2QnDoe8EvZN6hTiArQTJbQqHt8Lqt3iPi5TxwqOwrOoogVJ0ZGYRPjFANDNICTaQnWUe4CjSEUdz7oRSiCWekn5JgDiFUNAomhHEuyksOi8DcmIQiQHibF7MKKb6VpqHpQkuDpOBHQ1YtjgLvw1VdzRzq6n3MSQMkLH/PJBpdHmhAuEpIYoxQFzPZWCQCaImZW5kHOta+7eqeoVxaWegctHBy7trOEu8eBqaoUgfTP1Qs7IgjLWOenoqx0Log7gLBFCpsafnRDSoK+m+n7iT6/53N0LI3dg+OhgwQR9T+VGgH7y4kRUT8JU0Xw6n17EaZTs6AlfyA1jcjlw6Fstiaz65vyiKd2D349pkYpvE3tN67tJhY9wPlNyzRHTpwnFr6bE0lDA3e2PlGfPEDzafqOR1L3D24Dr84AFFs2KM0ICFt/7xGGCqWvsU+r7VgAsGsYGFTwv1lssivWoGDoKPHFlfCFXYwaOzj9bbvhqvX9dbqs+vXp/Hrnwdeh+P3LhLXSf8umI/WT0SahvUXyd0r/WWviVYvtLrf0wvdfkwvel5pIm4onHYWlo4IiPfHWp6/BHV+YGu4In0S0i7YVcvSucDivRXFcL3s9owrYWz+D1BCxwVkgpQXxhGY2gYDD7LTis4/od5dVgh+g2i7cAc5vq+2eYFXP/jiPBuiqqkXaprk8dtRsczrgHhcx0D2rk4IbSwe4fsobmw6t0LICWRITpuIKvwSHjAp+NTCrtAMeAFTPq7oGBNMZWVGM01CvWNuSuC3eCwr1YoOpGOR+Xw1ifvGuK/oR2U7KnFYGbgb4xFxrYel76vtP1445Wd98SHYBRvb5dUZ+SYGWC3Iy5aYJgRqYbgF+oA4StAvgzEZaCiQBMzXeFN24ib14IulQNZ4XUZumT8GJ0rh4XyWsiohamhyQQuRzS6Ml8y2JjaE1mwxXiw5BZIw9jGbgS6szLCFatJNkzggZAZ2RUPHCYGxKVYLdIu1K1YL2TEp4EpZzy/jv3itZvADdUwzvF6UJdjZAOhFPFMcChJB9XgoO9LrFd9gspwTrhSUdHyUyon2/panyj7xMr8t2QxyegPHw/EqqldkaOWg0bV1spDQWfS/OK6sj/gouBy5GY2x0rzLlfJcLMqLBwfNMGzeL7IQvYg63dtsxzIvgEbS4MPCLSN1O30aN4Uvh063TFVfR9pyTY9p2iU65v3m/MZrkZxkb2HEAO7kJ4wNd+b8RWpD0rb1GmlAl11XGYeACLWIiI/kVOuBEhJFQ21tJQeF1AiFqIxPXdKuZhfnokI+Hr0Quftm0AotDO11bVfSphkVKXO9Wjm3EShZP7wb1TtQ38MkUrE8OKhVh+NqAATXZhBlZ1GNJyRucBWkaz4tcacoBPMk5I3SLVOFhQMVFvevTeRGjRpMk3HMTNvTak4vTZ+k7+e68hYJTasooZwkQn9b0FuAdnpVQ+DiCHAj41kACdAgBio6gU/HzGQr0q8pRf2oAPf7Oh7rXLDOMgaTiltq5j514tglWAHdJXpIGxzcXrHSd0QJP+gGMevD4ZFrhu3Y8AKspqJhxJnXvSK/9UwyESF/V9eIz7XmajI0aru02EXX0kGeY2gg9oZ0w8y1TX3m0Px2hgH44trmLMK3hQeuI7rgtdF55NT2/z7Ju9q+6C6HzAzANbH9qR7UcE3QGTb7rcv6igzgQKrpUkoNQC4pBOgUx9ezh9vVOLzPUt4OOKvPjOS/IldPKQEdr+tVLCOvCMuicDwqgJsK80dyqsittCW24hquNZx8K5GG9Fe1X1U6uV6JQMF2gYEKQ39ro/OZfZi7pb4wip8FfiVgGRn7Dxzho7Af7UFPLPdzZapDidj4uzgRMdBEfOplHiKUNzBeKRHUnI2G6TqOgHgUR30O9wwY9F406x9BrBhYWjqX4wbXAoxNBjHQRDVz3oHKoDBn5QK6TbYS5WU2BC8/9EgcC/3Jc6Wu4cVvJNKeEDd7lgGm3J+1gbkAYqedtHDf/qyOG3DzN/cs6Gzn9OZHw7j7wQo09HMr6D5ZvwGH0/NSJM43Xo+H7k+Bw4+mGnvk4cvx1LMtDXl/hBlu8LMdzbeSTG82fHiOGPzh9/GOjtQPJPziPD5wPJPzmPDJ8PJP/kPDL8i4PLL0/awucDyT85jwyfDyT/5Dwy/Bfnjz8Z6B/OI4Hn7fq6L70x+wYoqhZ9OTaSAJvuG9G1I/Jil7G5ZIHQYymdPkF48S3cV60g098qwYPvzja8l4L/3wLf/CENwDFi/cwDSbYBrcHX8I41bWVExJw7L7SE75tEV7n+/03CGYi4cz6O+OevH/H/5Tn8R632bwaiwqjH8P/KHqSHM8IirwAAAAZiS0dEAP8A/wD/oL2nkwAAAAlwSFlzAAAuIwAALiMBeKU/dgAAAAd0SU1FB+QEHQ4iBlK9FKkAACAASURBVHja7d17/OZznf/x53zHaTIMKYaRxDrEzI4ialONFC2m4+ZQcthyiorKpiMpHVbFViJqQyLaosiitZFasSp+QzksKcXQyaCMU35/XO+paczh+n6/1+FzuN9vt/etw62mvq/P5/t5P+ZzXdfnmpDVnxOAMVguyZPKmlTWSmWtWP5xhUXW8uW/t2BNLGtkoTWhrAUeL+vPC63Hynp0ofVIkocXWfOTPFT+cX6SB8v6U1mPOozAWC5+AAubnGTdsqYlWaesqWWtleSpSVZrwM96b5LfJLk7ydyy7izr10l+VdYDTgtAPEG7f+83LOsZZa2f5OllPbVFs1itrI2W8Z/7TZJflHV7kp+XdWtZ7mBBi0zwsh001tQkm5a1cVkblTXBeHrm8SS3lHVzWTeWNdd4QDwB1TM5yYyypifZPMlmJZ4YrrlJfprkhiTXJ5lTlpcBQTwBA/KUJM8qa2ZZmxtL7dyQ5LqyflLWb40FxBMwPssn2TrJVmVtmeSZxtJYP0vyoyTXlHV1Op8gBMQTsATTkjy3rG1KOK1oLK31UAmoq5L8sKxfGwuIJ2izDZI8f6E13UhYhuuT/GChdZuRgHiCJpuW5IULrc2MhHH6aZLvLbTcmQLxBLW2fJIXJ9murK2NhD67Osl3y/rveM8UiCeogU2SvKSs7ZOsYiQMyf1JLk3yX2XdZCQgnqAqtkuyQ1nPNg4q6sdJLinru8YB4gkGaaUkOyV5WVlPMxJq5o4kF5V1YTpfmgyIJ+ipKUl2XmhNMRIaYl6Sby+05hkJiCcYq1WSvDzJ7CS7JFnZSGi4Pya5IMn5Sb6VzvumAPEESzUxySuTvKKsVY2ElrovyTfLOi/JY0YC4gkWtn2SVyd5VZK1jQP+xl1Jzk3yjXQ+wQfiCVpqepJ/KtE0wzigK3NKRP1HOk88B/EEDTc5ya5JXpvOJ+WAsbsoydeSnJPkAeNAPEGzvCDJbiWcnmoc0FO/KQF1dpIrjAPxBPW1WpI9kuyeznfJAf33vSRfTXJWknuNA/EE9bB1kteXcHKXCYbjNyWgvpLOd+6BeIIK2qNE085GAZXy7RJRZxkF4gmGb+0keyV5Q5LNjQMq7YYkX05yejqPPwDxBAP07CR7l3BazTigVu4tAXVaOl9YDOIJ+miHJPum8yZwoP6+muRLSS4xCsQT9NZuJZp2NApopItLRJ1tFIgnGJ83lvU8o4BWuDLJF8sC8QRdWinJm8qaaRzQStcl+UJZ840D8QSLt3KS/ZPsl+SZxgEk+VmSU5KcnOSPxoF4gr+NpgOSbGIcwGLclOTzIgrxRNutWILpwLjTBHTnZ0lOKiH1kHEgnmiTA5IcFO9pAsbmuiQnlogC8USjvaFEk0/PAb1wZYmoLxsF4ommeXmSg9N5yCVAr12S5IQk3zIKxBN1t22SQ9J5yCVAv52d5LNJvm8U9MvETJpmCvTDJkmOSueNndONAxiQ6Un+OclTktyW5HdGgnii6lZN8s4STdsZBzAkWyfZNZ1P9V4Xn8xDPFFR+6Tzxs3Xp/PsJoBhWjnJi5O8rMTTtUaCeKIqZiU5Psm7kqxtHEDFrJ3klUmelWRuktuNBPHEsKyX5Mh07jZtahxAxW2aZO8kU9J52OY8I0E8MUgHlWjaOckE4wBqYkI6z5nbJcmjSa4xEsQT/bZdkk8neXuSNYwDqKk1yl/+toyX8hBP9MlTk7w/nYfQbWYcQENskmSPdN5c/v+S/MlIEE/0wh4lmnZNMtE4gMbthZ0H+r44yf1JrjcSxBNjtWmSjyU5Jsk6xgE03DpJXpPkaUluTvJbI0E8MRoHpvMVB9sbBdAyz07yj0kejjeUsxi+245FPSvJ4em8VAd9N2vbLcf137933v25ds7NBkm/nJXk2CQ/MQrEE4vzliT/kmRdo2BQHv/91eP671/+gx9n1uwDDZJ++lWSf03yGaMgSUaMgHTuNn01nUcQCCeAv7VuuT5+tVwvEU+03EFJzk2ym1EALNVu5Xp5kFGIJ9pp0ySnJvlckqcbB0BXnl6um6fG11KJJ1plzyT/kc53PAEwenuX6+ieRiGeaLY1kxyX5MtJNjcOgHHZvFxPjyvXV8QTDbNDkrOTHGoUAD11aLm+7mAU4onmODydT4nMMgqAvphVrrOHG4V4ot42TXJaOs8nWd04APpq9XK9PS3eTC6eqKVXJzkjyV5GATBQe5Xr76uNQjxRDxOSvLf84m5pHABDsWW5Dr+3XJcRT1TUpklOT/LhJJOMA2CoJpXr8enxMp54opJmp/PQNs8cAaiWPcv1ebZRiCeq47AkX0qyjVEAVNI25Tp9mFGIJ4ZrrXS+5ftTSdYwDoBKW6Ncrz9Trt+IJ4bwt5gvJDnEKABq5ZBy/fZqgXhigHZNckqSXYwCoJZ2KdfxXY1CPNF/70hycpIZRgFQazPK9fwdRiGe6I/V03mt/BNJphgHQCNMKdf1T8U3QYgnemrzJCfGpzQAmuqwcp3f3CjEE+O3fZLPJdnNKAAabbdyvd/eKMQTY/e6JCckeaFRALTCC8t1/3VGIZ4Yvbel8yyQTYwCoFU2Kdf/txmFeKI7yyf5UJLjkzzZOABa6cllH/hQ2RcQTyzBWuWX5X1GAUDZD46PJ5KLJxZrkyTHJXmzUQCwkDeX/cHbOMQTC9kmnWd87GEUACzGHmWf8JUu4okkL0nnAWk7GQUAS7FT2S9eYhTiqc1eVX4RtjUKALqwbdk3XmUU4qmN9kzyr0lmGgUAozCz7B97GoV4apP9k3w8yd8ZBQBj8HdlH9nfKMRTG7w1yceSrGMUAIzDOmU/eatRiKcmOzzJR+ObswHojdXLvnK4UYinJnpvko8keZJRANBDTyr7y3uNQjw1yVFJPpxkOaMAoA+WK/vMUUYhnupuYjrfS3SkUQAwAEeWfWeiUYinOlo+ydHxPXUADNb7yv7jC4X7xMtI/bFCqf/3GAUAQ7Bg//lgkoeNo7fceepPkAonAKoQUEfGjRLxVHEThBMAFQyoCUYhnqrqyHiPEwDV8r744JJ4cnICgL/ci6d6e1c8WwOAajuq7FeIp6E7tBS9Z2oAUGUTy351qFGIp2E6sJyIk4wCgBqYVPatA41CPA3DXuUEXM0oAKiR1cr+tZdRiKdBek058aYaBQA1NLXsY68xCvE0CDuWE24DowCgxjYo+9mORiGe+ukfyok2wygAaIAZZV/7B6MQT/2weZIPJHmeUQDQIM8r+9vmRiGeemmdcmK5tQlAE+1Y9rl1jEI89cJK6dzS3NUoAGiwXct+t5JRiKfxOjLJ/sYAQAvsH181Jp7G6R1JjjAGAFrkiLL/IZ5Gba90Xv8FgLb5QDxEUzyN0svKibOqUQDQQquWffBlRiGeurFFOWE2NAoAWmzDsh9uYRTiaWnWSvL+eJYTAKTsh+8v+yPiabHen+TVxgAAf/Hqsj8inp7giCQHGwMAPMHB8elz8bSIPVU1ACzV+8t+KZ6MIC9I8r4kTzIKAFiiJ5X98gXiqd3WKyW9id8JAFimTcq+uZ54aq/3JXmp3wUA6NpLy/4pnlroiCT7+R0AgFHbLy1+A3lb4+mfkrzXuQ8AY/besp+KpxaYmc7txsnOewAYs8llP50pnpptUinlmc55ABi3mWVfnSSemus9SV7rXAeAnnlt2V/FUwO9Pt7nBAD98N6yz4qnBtmiVPEE5zcA9NyEss9uIZ6aYblyQDdzbgNA32xW9tvlxFP9eZ8TAAxGK97/1PR4emWSdzuXAWBg3l32X/FUQ+un8/TTlZzHADAwK5X9d33xVD9HJNnGOQwAA7dNGvz1LU2Np/2THODcBYChOaDsx+KpBrZMi7+sEAAq5IiyL4unintXkmc4XwFg6J5R9mXxVGHvjMcSAECVvLbsz+KpgrZtYt0CQAO8q+zT4qlCJpYD8xTnJwBUzlPKPj1RPFXHvyTZxbkJAJW1S9mvxVMFvCDJ4c5JAKi8w8u+LZ4qcCBWdz4CQOWtngbc8Kh7PL0zyWznIgDUxuzU/NN3dY6nreLlOgCoo8PLPi6eBuydSdZ0/gFA7ayZGt99qms87Z9kN+ceANTWbqnpd9/VMZ42SPIO5xwA1N47yr4unvrs7Uk2dr4BQO1tXPZ18dRHL09ysHMNABrj4LK/i6c+WKGOdQoALNPbyz4vnnrssCQvcn4BQOO8qOzz4qmHpic51LkFAI11aNnvxVMPBzrVeQUAjTU1NblRUod4ekWSNzqnAKDx3lj2ffE0Tm9zLgFAa1R+3696PL01yXbOIwBoje3K/i+exuBpcdcJANrobaUDxNMovSU1fGQ7ADBuG5QOEE+jsHUqfssOAOirt5YeEE9dekuSFZ03ANBaK6aid5+qGE+7JNnTOQMArbdn6QLxtAyHOFcAgKp2QdXiae8kOzpPAIBix9IH4mkxJiZ5s3MEAFjEm0sniKfFDGZr5wcAsIitU6EbLFWJpylx1wkAWLI3l14QT8VBSTZ1XgAAS7Bp6QXxlGRqVYYBAFTaQaUbWh9PByZZz/kAACzDeqUbWh1P6yY5wLkAAHTpgNIPrY2nA1KB228AQG1MzZBvvAwznp6WZH/nAAAwSvuXjmhdPO2XZE3HHwAYpTVLR7QqntYZ5g8NANTefqUnWhNPb4r3OgEAYze19EQr4mmNYf2wAECjvKl0RePj6Y0Z4pu8AIDGeFrpikbH00pJ/tmxBgB65J9LXzQ2nvZNsonjDAD0yCalLxobT+46AQC17otBxtMeSbZyfAGAHtuqdEbj4mkfxxYAqHtnDCqeXppkB8cVAOiTHUpvNCae9nZMAYAm9MYg4ml6ktc7ngBAn72+dEft42kvxxIAGJC+d0e/42m1JG9wHAGAAXlD6Y/axtOe8QXAAMDgTC39Uet4AgAYpNrG005JtnH8AIAB26Z0SO3i6XWOHQAwJH3rkH7F09+JJwBgyPH0d3WKpz2STHDcAIAhmZA+fd9dv+Jpd8cMABiyvvRIP+LpVUk2c7wAgCHbrHRJ5eNpN8cKAKiInndJr+Np/SS7Ok4AQEXsWvqksvG0a7xRHACojgnp8Y2dXsfTax0jAKBietonvYynWUm2cnyg2raYsXG2mLGxQfTBoQftkdWmrGIQUD1blU6pXDy9xrGB6ofTZeeflMvOP0lA9dipJxyZ4445LJedf5KAgmrqWaf0Kp5WEE9Qj3CasurkTFl1soDqcTjtvcfOSZKZ0zcSUFDdeFqhSvH06iRrOy5Q/XBaQED1PpwWEFBQSWuXXqlMPL3KMYH6hJOA6l84CSiotJ70Si/iaS3xBPULJwHVv3ASUFDpeFqrCvH0yiTLOx5Qv3ASUP0LJwEFlbR86ZZKxBNQ03ASUP0LJwEFlTT0eHpGkpc5DlDvcBJQ/QsnAQWV87LSL0OLp5c7BtCMcBJQ/QsnAQWVM65+GW88zTZ/aE44Caj+hZOAgkoZV7+MJ542TLK9+UOzwklA9S+cBBRUxvalYwYeT7uYPVTDUe/ar6fhJKD6F04LB9Q+r3MZhSEa8y/geOJpJ3OHatjn4KNz3fW39OXPbmtA9TOckuS0s76d4088y8kLwzPmjhlrPK2bZAdzh2q4d979mTX7QAFVo3Da5+APOnFhuHYoPTOweHLXCQSUcBJOUHdj6pmxxpNnO4GAEk7CCepuTD0zlnhaNck/mjcIKOEknKDm/rF0Td/jacckK5k3CKimBJRwgtZaqXRN3+PJG8VBQDUmoIQTtN6ou0Y8gYBqbUAJJ2AQ8fT8JOuZMwiougeUcAKK9Urf9C2eXmrGIKDqHlDCCRhP34w2nnyXHQioWgeUcALG2zejiae1k2xrviCg6hpQwglYgm1L5/Q8nl5stiCg6hpQwgnoVeeMJp62M1cQUHUMKOEE9LJzRhNPs8wVBFTdAko4Ab3unG7j6e+TbGiuIKDqFFDCCRiFDUvv9CyeXmSmIKDqFFDCCRiDrnqn23h6oXmCgKpLQAknYIy66p1u4+kF5gkCqg4BJZyAceiqd7qJp+ckWcs8QUBVPaCEEzBOa5XuGXc8Pd8sQUBVPaCEE9Ajy+we8QTUPqCEEzDIeJqQ1Zd5d+rXSdYxS2if1aasksvOPykzp2/Ulz9/3n0PZMqqk8f1Z9x9z++y1pprCCegV+5MMm1p/4Fl3XmaIZygvQZxB2q8hBPQY+uU/hlzPD3PDEFA9TOgqko4Qas9bzzx9FzzA9oWUMIJWu+544mnrc0PaFNACSdgWf2ztHiammRz8wPaElDCCSg2Lx006nh6jtkBbQko4QR020FLi6etzA1oQ0AJJ2A0HSSegFYHlHACehlPW5ob0OSAEk7AWDpoSfG0UXwZMNDggBJOwDKsVXqo63h6lpkBTQ0o4QR06VniCWh9QAknoF/xNNO8gKYFlHACRmmmeAJaG1DCCehnPD0tnW8UBmhEQAknYIzWKV20zHiaYVbVcPxH3p59XreLQSCghBMtsdqUVXLeGcdmixkbG0Z1zOgmnqab0/CdesKReduBu+dLn/2AgEJACSdaEk6XnX9SXrHTi3LZ+ScJqOqYLp5qEk5777HzX/61gEJACSfaEU4zp3ceKzRl1ckCqmbxtJk5VSecBBQCSjjRrnBaQEBVxmbiqYbhJKAQUMKJdoWTgKpXPG2SZJI5VS+cBBQCSjjRrnASUJUxqfTREuNpUzOqbjgJKASUcKJd4SSgKmNT8VTjcBJQCCjhRLvCSUBVP54ckRqEk4BCQAkn2hVOAmroNhZPDQgnAYWAEk60K5wEVHXjaSPzqU84CSjaHFDCiTaGk4Aamo2WFE9PTrKW+dQrnAQUbQwo4USbw0lADcVapZOeEE8bmk09wwnaFFDCCQTUkGy4uHjawFzqG077HnJ0Tj3zAoOm0QElnGjyXwwEVOVtIJ6EE9RqoxFOCCgBVcV4Wt9chBNUcaMRTggoAVUBf+mkCVn9OQv++cVJdjAb4QRVsdqUVbLP63bJ8SeeZRg06rzuxxvIF5h33wOZNfvAXDvnZsPurUuS7LhoPN2YRb67BeEEgIAiSXJTypPGF37Zbj1zEU4A9J+X8GrpL520IJ6mpvOtwQgnAAQUTzSp9NJf4mldMxFOAAgolmpd8SScABBQjDGe1jEP4QSAgGKp1hFPwgkAAcUY42lt8xBOAAgolmrtheNpqnkIJwAEFEs1VTwJJwAEFGOMpzXNQzgBIKBYqjXFk3ACQEAJqDHE02pJVjAP4QSAgGKpVkgyeSTJU8xCOAEgoARUd+MaSbKGOQgnAASUgOrKqiNJnmwOwgkAASWguo+n1c1BOAEgoARUV1YRT8IJAAEloEYZT1PMQTgBIKAEVFdWFk/CCQABJaBGGU+rmoNwAkBACaju42kV4SScABBQAqork0aSTBZOwgkAASWguvKkkSQrCyfhBICAElBdWam18SScABBQAmqs8TRJOAknAASUgOrKiq2LJ+EEgIASUOONp5WEk3ACQEAJqK6sMJJkReEknAAQUAKqK8uPJFlBOAknAASUgOrKchOy+nPuS4MflNnvcIIm+ODHT8lRHz/FIJbh8d9fbQiwFPPueyCzZh+Ya+fc3OQf8z9HkiwnnACA8WrJHaiJjY0n4QQAAqpf8TQinAAAAdWVkcbFk3ACAAHVRxNGkkwQTgCAgOo+noQTACCgujSS5HHhBAAIqK48PpLkz3X+CbaYsbFwAoAaBNTxH3m7eKqCa+fcnH0POdpZCQAVdt31t+SVex7ehB/lzyNJHq37T3HqmRcIKACocDjNmn1g7p13fxN+nMcaEU8CCgCE0yDj6ZGm/DQCCgCEU589OpLk4Sb9RAIKAIRTv+Ppoab9VAIKAIRTnzwykmR+E38yAQUAwqkPHl4uyYNN/elOPfOCJMmXPvuBvv1v3H3P73LjLb/w20Kt3X7HXYbQhct/8GNDoNYmrzwpM2dsnOUmThROY/dQo+NpEAG11ppr5KJLf5h9Dv6g30pouFmzDzQEamuLGRvnsvNPEk49iKeJmTRt9yQbNPmnvHbOzfnFHXfllTu9qG8n5DPWWyfnXXi5304AKhtOU1adLJzG74qJmTTtNUk2bfpPKqAAEE7CqQe+OzGTpu2S5O/b8NMKKACEk3Aap4snZtK0lybZqi0/sYACQDgJp3H49sRMmvbCJM9v008toAAQTsJpjM6dmEnTtk6yfdt+cgEFgHASTmNw9sRMmvb3SXZq408voAAQTsJplM6YmEnTNkrymrZOQEABIJyE0yh8YWImTVs3yevbPAUBBYBwEk5d+tzETJq2RpI3tX0SAgoA4SScuvCpiZk0bVKSt5qFgAJAOAmnZfroxEya9uckR5iFgAJAOAmnZTpyYiZNm5/kPUkmmoeAAkA4CaclejjJByZm0rQkOSDJqmYioAAQTsJpie5KctyCeNozydpmIqAAEE7CaYn+L8nJC+LpFUk2MhMBBYBwYol+kuTMBfG0fZJnmYmAAkA4sURXJPnWgnjaOskLzURAASCcWKILk/z3gnjaNMnOZiKgABBOLNHZSf53QTxNS7K7mQgoAIQTS/SFJDcuiKfJSfY3EwEFgHBiiT6Z5M4F8fTnJO80EwEFgHBiiY5M8sCCeHogybuSLG8uAgoA4cQTPJjk3UmyIJ6S5A1JnmI2AgoA4cQT3Jbks4vG0+wkG5qNgAJAOPEEP05yxqLx9IIkW5qNgAJAOPEElya5IElGFvo3bzeX8Tn1zAuy7yFH9+3P33uPnXPqCUcaNK3bVFabsophIJyE07D9pZMWjqfbzEVAQdU2lRc9/9kCCuEknKrgNvEkoKA2m8rM6RsJKISTcKpkPN1qLgIKqrqpCCiEk3AaslsXF0+/T3K32QgoqOqmIqAQTsJpSO4unfSEeEqSW8xHQEGVNxUBhXASTkPwN320aDzdbD4CCqq+qQgohJNwGrC/6aOFn/OUJM9M8hIz6r1BPAdq9Smr5KJLrzRsWrGpTF1zjfzjS/4hX/3GdzL/oYcNkspaf72188PvfEk41dvZSX6w4F8seufpRvPpn37egZp33wM59awLDJlW/W3cHSjq4PZf3pXzvt2fBxwLp4H5mz4STw0IqHn3PZBZsw/MtXO86kp7wklAUSf7HPzBnHbWt4VTQ+PppnS+NZiaBJRwos3hJKBoa0AJp4F6sPTREuMpSX5qTvUIKOGEcBJQtC+ghNPAPaGLxFNNA0o4IZwEFO0LKOFUjXha9NN2SbJRkpea1WCM5VN4wgnhtGQ+hUcdnHfh5XnGeutkixkbC6fqOzMLfdJuSfE0JcnrzaqaASWcEE4CivYFlHAaquOzyEMyFxdP85McZlbVCyjhhHASULQvoITT0L07yX0L/xuLe8/THUnuNKvBW9p7oIQTwmn0vAeKOljae6CE09DdWbrobyzuzlPSecr4RmY2eIu7AyWcEE5j5w4UdbC4O1DCqRK+n+Qr3cbT9CTbmtnwA0o4IZwEFO0LKOFUGV9Pcumi/+aErP6cxf2Hd03ne1wYolfu/KLc/su7hBPCqUdsSNTBoQftkVPPvMB5Wg27JTmn23jaKIt8gzBAncNJQAFjsHEW+aRdsvg3jKf8B+82M6BJ4ZR4EznQtbsXF05Li6ck+ZG5AU0KJwEFjMISO2hp8XSNuQFNCycBBXTpGvEECCcBBfQ5nv7X3ICmhpOAApbhf8cST3OT3GB2QFPDSUABS3BD6aBRx1OSXG1+QJPDSUABo+2fZcXTD80PaHo4CShgNP2zrHi60vyANoSTgAK67Z9lxdOcdL5RGBBOjQ8nAQWU7pkznnhKkv8xRxBOVQ2nRx97TEABvbTM7ukmnn5gjiCc+uG6628Z/58x5+bMu+8BAQX0yjK7RzwBQwunWbMPHPef88AfH8ys2QcKKKBS8fS/8SXBIJz6EE73zru/J3/etXNuFlBAL9ydLh4SPtLlH3aFeYJwqmI4CSigh7rqnW7j6XvmCcKpquEkoIAe6ap3uo2ny80ThFOVw0lAAT3QVe90G0//L8mtZgrCqcrhJKCAcbi19E7P4ilJLjNXEE5VDycBBYxR150zmnj6rrmCcKpDOAkoYAy67pzRxNN/mysIp7qEk4ACRqnrzhlNPN2V5PtmC8KpLuEkoIAufb90Ts/jKUkuNV8QTnUKJwEF9LpvRhtP3zFfEE51CycBBfSyb0YbTz9I8kszBuFUt3ASUMAS/DKj/B7fkTH8j1xiziCc6hhOAgroRdeIJxBOrQonAQUMI54uTjLfrEE41TWcBBRQzC9d0/d4ui/Jf5o3CKc6h5OAAkrP3DeIeEqSi8wbhFPdw0lAQeuNqWfGGk8XmjcIpyYRUNBKY+qZscbTr+KN4yCcGkZAQatcUnpmYPE05loDhJOAElBQAWPumPHE0wXmDsJJQAkoqKkxd8x44unW+K47qISj3rWfcKphQM3a9tlOXhiOS0vHDDyekuR884fh2+fgo3Pd9bcIpxoF1L6HHJ3zvn25kxeGY1z9Mt54+pb5w/DdO+/+zJp9YE8Dqu3h1M+A2veQo3Pqmd75AEM0rn4Zbzz9PJ75BI0LKOHUv4ASTjB0F5V+GVo8Jcl5jgM0J6CEU/8CSjhBJYy7W3oVT484FlD/gBJO/Qso4QSV8EhV4unuJOc6HlDvgBJO/Qso4QSVcW7plqHHU8QT1DughFP/Ako4QeXiadx6FU/fSHKXYwL1Cyjh1L+AEk5QKXeVXqlMPD2c5OuOC9QroIRT/wJKOEHlfL30SmXiKeIJ6hVQwql/ASWcoLLx1BO9jKfLklzj2ED1A0o49S+ghBNU0jWlU3piuR7/n/takq0cI6h2QC345/Q2oNaf+QpzhWr6Wi//sJEe/587J8njjhFUO6Bs8P2bLVA5j5c+qWw83d7r/4MAAONwTumTysZTkpztOAEAFdHzLulHPJ2b5KeOFQAwZD9NHx7kPdKn/7NfdbwAgCHrS4/0K57ODsXSLAAADmBJREFUijeOAwDD83jpkdrE0/8lOdNxAwCG5MzSI7WJp4gnAGDI8dQX/YynC5Nc5dgBAAN2VemQ2sVTkpzh+AEAA9bX/hhEPM11DAGAAZlb93i6N8mXHUcAYEC+XPqjtvGUJKc7jgDAgPS9OwYRT9cn+YpjCQD02VdKd9Q+npLkNMcTAGhCbwwqnr6T5BLHFADok0tKbzQmnpLkVMcVAKh7Zwwyns5Kco1jCwD02DXp0/fYDTuekuTfHV8AoM59Meh4+lKSmxxjAKBHbip90dh4mh93nwCA3vn30heNjack+WKSOxxrAGCc7ihdMVDDiKffJfmC4w0AjNMXSlc0Pp4W/LC+MBgAGKu5GdLNmGHF051JTnHcAYAxOqX0RGviacEPfY9jDwCM0j0Z4k2YYcbTHUlOdvwBgFE6OUP88NnIkH/4z8d7nwCA7s0t/TA0w46nXw17AABArXy+9ENr4ylJTkryS+cCALAMvyzdMFRViKe5SU50PgAAy3BiKvB2n5EKDeNG5wQAsAQ3piI3W6oST/OSfM55AQAswedKL4inRYZytXMDAFjE1anQTZYqxdNjcfcJAHiiz5VOEE+LcVqSi50jAEBxcemDyhip4JA+6zwBAKraBVWMpwuSnOFcAYDWO6N0gXjqwmeSPOScAYDWeqj0QOVUNZ6uTvJp5w0AtNanU9FP4Y9UeGifSXKbcwcAWue2VPSuU9Xj6Y4k/+b8AYDW+bfSAeJpDD6d5LvOIQBoje+m4m/dGanBEN19AoD2qPy+X4d4+maSLzqXAKDxvlj2ffHUA8cnmeucAoDGmlv2+8qrSzxdX5eBAgBjcnzZ78VTDx2X5HLnFgA0zuVln6+FOsXTw0k+5fwCgMb5VNnnxVMffCvJCc4xAGiME8r+XhsjNRzyp5Lc7FwDgNq7OTV8VamO8XRbkk863wCg9j6ZGn4V20hNh31ykrOdcwBQW2eX/bx2Rmo89E8kuce5BwC1c0/Zx2upzvF0TZJjnX8AUDvHln1cPA3BJ5Kc7xwEgNo4PzW+69SEeFpQr39wLgJA5f0hDXjVqAnxdEW8fAcAdXBs2bfFUwX8a5ILnJMAUFkXlP269poST48l+XiS3zo3AaByflv26cfEU7V8vxwYAKBaPl726UYYadjB+USSrzlHAaAyvpaaf7qu6fG0oG5/7lwFgKH7eRr4qlAT4+lHST7mfAWAoftY2ZfFUw2cnOTzzlkAGJrPp6bfXdfWeFpQu1c5dwFg4K5Kg18FanI83V4O3HznMAAMzPyy/94unurpvCQfdR4DwMB8tOy/jTXSgoP4kXh8AQAMwtfKvttobYinR8uB/KlzGgD65qdlv31UPDXDteWAPu7cBoCee7zss9e24YcdadGB/UqSY5zfANBzx5R9thVGWnZwvf8JAHqrFe9zanM8PVjq+DrnOgCM23VlX31QPDX/QH84yQPOeQAYswfKftq6GxIjLT3g/xHvfwKA8Tim7KetM9Lig/6xJKc49wFg1E5Jg79+RTwt3YeTfMfvAAB07Ttl/2yttsfTL5N8KMlNfhcAYJluKvvmL8VTu11RCvpPRgEAS/Snsl9e0fZBiKeOM0pJAwCL96GyX7aeePqrjyU5wRgA4AlOSIvfIC6ell3V3zAGAPiLb8SrM+JpKe4uJ8iVRgEAubLsi3cbhXhammuTHJ3kVqMAoMVuLfvhtUYhnrpxUTlh7jMKAFrovrIPXmQU4mk0Ti8nDgC0zdFlH0Q8jdon49MFALTLx8r+h3gasw8mOdkYAGiBk8u+h3gal/nlRDrHKABosHPKfjffKMRTL9yZzuu/FxsFAA10cdnn7jQK8dRLN5QTyzOgAGiSK8v+doNRiKd++J90bmnOMQoAGmBO2df+xyjEUz9dXE6024wCgBq7rexn3pIingbi6+WEm2sUANTQ3LKPfd0oxNMgnV5OvHuNAoAaubfsXx6CKZ6G4qRyAj5oFADUwINl3zrJKMTTMB1fTsTHjAKACnus7FfHG4V4qoKPJznKGACosKPKfoV4qowPxyPtAaimD5Z9CvHk5AQAf7kXT3X2eDlBP2IUAFTAR8q+9LhRiKcqe1RAAVChcHrUKHprOSPoi4fz1zeQv8c4ABhCOB2V5BGj6D13nvrnkSQfiPdAATBYHy77j3AST7X0WJL3xxv1ABiMD5Z9x7MHxVPtHZXkffG6MwD98WjZZ44yCvHUJMek8/6nPxkFAD30p7K/HGMU4qmJjk3y7iR/MAoAeuAPZV851ijEU5N9OskRSe40CgDG4c6yn3zaKMRTG5yc5F1J/s8oABiD/yv7yMlGIZ7a5Iwk/5LkOqMAYBSuK/vHGUYhntro3CTvTPJ9owCgC98v+8a5RiGe2uy/yi/ChUYBwFJcWPaL/zIK8URyVZK3JznLKABYjLPKPnGVUYgn/uqmJIcl+ZxRALCQz5X94SajEE880d1JDo3vwwOg48NlX7jbKMQTS/ZIOt9LdGiS3xsHQCv9vuwD748v+BVPdO3fkrwlbtMCtM1N5fr/b0Yhnhi9M5McnOR7RgHQCt8r1/0zjUI8MXaXJnlzkrONAqDRzi7X+0uNQjwxfjckOSjJcUYB0EjHlev8DUYhnuidP6TzjI93JplnHACNMK9c199ervOIJ/rgk0n2TzLHKABqbU65nn/SKMQT/XdOkv2SXGAUALV0QbmOn2MU4onBuSrJm5J81igAauWz5frtq1bEE0NwdzrPAnl7kt8ZB0Cl/a5cr98STwwXTwzdcUn29bcYgMq6qlynfWpaPFEh5yfZJ8kZRgFQKWeU6/P5RiGeqJ4bk+yV5H1JHjQOgKF6sFyP9yrXZ8QTFfV4kmOS7JnkR8YBMBQ/KtfhY8p1GfFEDXyj/OKebhQAA3V6uf5+wyjEE/VzY5K9k/xLPLkWoN/+UK63e8fLdOKJ2js2ye5JLjMKgL64rFxnjzUK8URzXJJktyTHGwVATx1frq+XGIV4onnuSXJYkjfEN3cDjNcN5Xp6WLm+Ip5osDOS/FOS04wCYExOK9dRz9YTT7TIjek8tO3NSX5hHABd+UW5bu4TbwoXT7TWiUleleRsowBYqrPL9fJEoxBP8JN0PiXy1iS/Mg6Av/Grcn3cvVwvEU/wF59J8vIkZxkFQFKuhy8v10cQTyzWT5K8LslBSW41DqClbi3XwdfF3SYWMSGrP8cUWJJNk7wzyRuNAmiRLyb5RLwhnCWYmEnTTIEl+W2SbyW5Ocn6SdYxEqDBflT+wviRcv0D8cSYXZ/k3CSPJdk6yUQjARrk4XS+VuWQJFcZB+KJXvlTkkuT/CDJk5NsYiRAA5xfoukL5ToH4omeuz2dT5/ck2TjJGsYCVBDtyR5f5J3lOsaiCf67pok3yz//LlJJhgJUAOPp/NFvm9O5246iCcGal6Si5NcnmT1dD6dB1BV30zn8QOfL9cvEE8Mze1JvprOdz49PcnaRgJUyE+SvCfJEfESHeKJirk2nfdD/THJ9CQrGwkwRPck+Wg6L9H5FB3iicp6KMkV6XyCJek82gBg0D6bzkt055brEognKu93Sf4znTdkrpzOnSiAfjs7f31f0++Mg37w9SwMysuTHJxkB6MA+uCSJCek860IIJ5olDeUvxU+zyiAHrgyyYlJvmwUiCea7oASUTONAhiD60o0fd4oEE+0yYolog5M8kzjALrwsyQnlWjyRnDEE621cpL9S0j5zjxgcW4qwXRyOo9DAfEEC0XUfnEnCuj4WZJTRBPiCZZupSRvKst7oqCdrkvyhbLmGwfiCbr3xrJ8Og/a4cokXywLxBOMw25J9k2yo1FAI12c5EvpPOQSxBP00A4lonY3CmiEr5ZousQoEE/QX89OsneSvZKsZhxQK/cmOT3JaUl+bByIJxistUtAvSHJ5sYBlXZDOk8CPz3JXcaBeILh2yPJ65PsbBRQKd9O8pUkZxkF4gmqaesSUXskeapxwFD8psTSV5JcbRyIJ6iH1UpA7Z7khcYBA/G9dN4EflY6720C8QQ19YJ0Hnewa9yNgl77TZJz0nnMwBXGgXiCZplcAuq1SV5mHDAuFyX5WgmnB4wD8QTNNz3JPyV5dZIZxgFdmZPkG0n+I8n1xoF4gvbavkTUq9J5/AHwV3clObdE06XGgXgST7CwiUlemeQVZa1qJLTUfUm+WdZ5SR4zEhBPsCyrJHl5ktlJdkmyspHQcH9MckGS85N8K8n9RgLiCcZqSjoP31ywphgJDTEvnYdYLljzjATEE/TaSkl2SufTei9L8jQjoWbuSOeTchcluTDJfCMB8QSDtF2SHcp6tnFQUT9OcklZ3zUOEE9QFZskeUlZ26fzvikYhvvT+WTcf5V1k5GAeIKqWz7Ji9O5M7VdOt+5B/10dTp3lb6b5L+TPGIkIJ6gzqal8x17C9ZmRsI4/TSd75JbsH5tJCCeoMk2SPL8hdZ0I2EZrk/yg4XWbUYC4gnabFqS55a1TTov861oLK31UDovw12V5IdlubME4glYiuVLQG1V1pZJnmksjfWzJD9Kck1ZV8d7lkA8AeP2lCTPKmtmWZsbS+3ckOS6sn5S1m+NBcQTMBiTk8woa3qJqc2STDWaoZubzpu6b0jn/UpzynrAaEA8AdUzNcmmZW1c1kZlTTCennk8yS1l3VzWjWXNNR4QT0D9LZdkw7KeUdb6SZ5e1lON6Al+k+QXZd2e5Odl3VrWo0YE4glor8lJ1i1rWpJ1yppa1lolsFZrwM96bwmju9O5SzQ3yZ1l/TrJr8ryMhsgnoBxWzGdN7A/JcmTy1qtrCllrVJibHKSlZM8KcmkdL5cecWyli9ruSQTk4yUtcCfy3osnTs8j5T1UFnzkzyY5E9J/lhC54F0vp5kXln3lvX7sn5b1kMOIzBayxkBMEYPpXN3xrOHgFb5/3PElIRugQnVAAAAAElFTkSuQmCC;fontFamily=Manrope;fontSource=https%3A%2F%2Ffonts.googleapis.com%2Fcss%3Ffamily%3DManrope;" parent="1" vertex="1">
          <mxGeometry x="148" y="248.56" width="28.16" height="28.16" as="geometry" />
        </mxCell>
        <mxCell id="OhbVSFWdRjhHsJU15Zuy-14" style="edgeStyle=orthogonalEdgeStyle;rounded=0;orthogonalLoop=1;jettySize=auto;html=1;exitX=1;exitY=0.5;exitDx=0;exitDy=0;strokeColor=#7EA6E0;entryX=0;entryY=0.5;entryDx=0;entryDy=0;fontFamily=Manrope;fontSource=https%3A%2F%2Ffonts.googleapis.com%2Fcss%3Ffamily%3DManrope;" parent="1" source="OhbVSFWdRjhHsJU15Zuy-15" target="OhbVSFWdRjhHsJU15Zuy-40" edge="1">
          <mxGeometry relative="1" as="geometry">
            <mxPoint x="240" y="278.68" as="targetPoint" />
          </mxGeometry>
        </mxCell>
        <mxCell id="OhbVSFWdRjhHsJU15Zuy-15" value="" style="shape=image;verticalLabelPosition=bottom;labelBackgroundColor=#ffffff;verticalAlign=top;aspect=fixed;imageAspect=0;image=data:image/png,iVBORw0KGgoAAAANSUhEUgAAAk8AAAJPCAYAAABlxzBuAAAQ/HpUWHRSYXcgcHJvZmlsZSB0eXBlIGV4aWYAAHjarZppdlwpkEb/s4peAhAMwXIYgnN6B738vvFSklW2ymWXS2kr05kveRDDN4CD/d//3vA//NTYNJTatY3WIj9llJEnLzR++7G359d7KZbn9/tPevudwpcfZJ6FZ3m92cvbp/L2/vv17eOZgb74INXvviAft8mfb9zn2/s55r/MqOwk8fOPfvt779F77bW6WRphaK9FvW4R3ofhwsVQ8nyt8ej8rbzuz2Pw0DjjTiWeuOPisdNImVvfVNIJaaabLB2ed9rMsWTLneecd5bnPZWeR94SJUnxR7q5y5AjKll2NhEpQfLHXNJz3/HcbyflzidxaU4MlvjKTx/hny74lce9OxKjlFh9eosV88rZ85A8jOK/uYyEpPuWt/oE+P3x8RM+JVbIYH3CrCxwxvUaYtX0rbbkKQDhusrzq75SP561/FRJ4d6VySQhBbElqaml2HPuKRXJSoImM89S8iIDqdZ8mGQuIo3cKHXEvflOT8+1uebX+7QK+anSpJObIZNklVKpn16UGppVaqm1ttqr1lFnaNJKq6213rznZpdeeu2t96599KmiRas27ao6dI48hJaso40+dIwxJ/ecJcw6+fbkijlXXrLKqqutvnSNNTfls8uuu+2+dY89Tz5yyqmnnX70jDMtGaUUrFi1Zt3Uhs1LrV255dbbbr96x50fWXvL6g+P38haestafjLl1/WPrPFu7z7QM0RynKmeMzKWSyLj3TNAQWfPWdRUSvbMec7iyHRFzUyyem5OijOkRgqLpVxv+sjdt8z9ct4Csf6nvOVfyVzw1P0HmcvB5Lu8fZG140i4n4y9utBjGoXuu9Fm1pnXCcIk/aVy8Z88hz8d4PcGWrPeWK9mu2u3O0c5pEhkg5m7pju0hL3G5i21U/epnYhAZZv48JylN5CYV9XWPY2uKlydDy/ytG2VYc+Ne9USbpQ2LuEf/fbaruRCvCkTMNsK1Sfn2qi7kKDU7yrFB94673xenW6Qy9Zw6pVZM3+owXOUrA6jjit/mpfP85I5/cNz+NUL//bZo0EsAsF4D8UrEGsrZfHEqHX6dqS1KrQ3qS1bYFi79BHvqNqS23T4NTXcMvyi86yXPlvWC+vPz0BvF315TS1iMZ3CgG/pPwqFPpmOf/AcfvFC1nXPsKc4SrNThHUSgEm6nziF+yqa7+KUJ+Uh2ek8ndbtJOGavGzwXO/yAVeW2jelcQvRCz+7pEzt9OocN72yVBfQ+lRG/P45/N0Hv/v8aSBf1V1yXpV7DtO5x6ukgi0/i1KrdVmIzfOYZW5gJ/driMrjz+vVb6DnvOOwdl0/uyKc/BRX7JXhXllaLf8+koTf/cKiOXfsoIoZbEXrljNB1jA6BKLohF267QZoo5Wb7b1pi3iXz5RJbofTJbBN31XviomEypp3Aw66ewwDkC9PgDNRIsFnodSIX92j9HOopbZs9oEeHyBZn6MrDNSHlHPgsQNr9TzDFjMGnkzPuGmmDb9oVarWhPUUCMhkgkxex4SyIjuPs0mgH/sUuaeW2xP5pgxINFHYMqgA7m652ARtbULeZUxZdc8F8dVzkKi3zT0OFkJmg6aAy7SKEsovcvzKsNmeexoabB1t205OfUBp+I+Rwm4I16rjgQ5I7gCrBmsm0wH39iisAQHncGooY3Ryb1KdLCVdhQOORdIQEICdAElbgjzddg9qQe6alF9xdaAzlZ2ZxVZA+TgKoRPOuioscsPH80qvYZW9h9TVXVpcMzrUSDtQPxf3rjqL5tYVIENVIOFRDS1pjupV4b2vD/MEFIwntdmd0nRxqcHtujFcF0HqqEJJiPdIm6PVkfsY1ggAU7RdkRB6cxnBZluYFIM9rJR9ckX2/4tOCT98sPpsVAtL96BH8gPt2SWv/CRXb408EqtjrKwhI+4m0CFO4p/RU4iTiYhGHR2UVNynOyS0c1ZLdpRhO3iDv5mS2r4unIB7nJGRui1hACGLFY3mlT2rJmcYSHzEQokvxxs5dXa6ouSjr7m3/D2sBzmrWxJaka7L1Kn2tdHz1rjdXhR/MWSZt6Fe1Fiatx9pyKd86PPerSLtJzHCDNTI/WdHPo5bRCmDCDusdneGDVduCDUa34DugxhoGxGJpkMkXpTZ6xbB78GgqD3QE7WSBFS43QaaI4EoLAMNW/mFqECJCIm/ddP9jVVwnzm8wGERq4cmq4Pftfe0cKu0EOCt8jAKwNHpVqJ6DdByt6nt7TvUFZoD4O4jYIhQlwvfw7/XMUCf0hsjFxrS7+v6dvBlWgiNPVDOqNq++LBM6rqOaF1WC4pGftUr8DEmX2cIYd4dAb7SreglRK8zTa9Dv5Q5iC0NZSH5LywJAGzUgquRdhKNj4luFSknB4O/km3UdfcJiqTsQov01kcSlnZKoBpXYlJ6wO5pACsSZNFA+kg+rtYu5hTmS14H3X+87trlX4lCowdYqAZX5rsZ+QcTAUsmD9YdRb8RzvrqupJ/lNDTO5fiAan51g4ySfV7M83u+CMX5sCK9DL8zp3uLzMd1/Ga6HEafkXo5u59Z3S8p6SDI91AeUUxPqcW4JxJ7rlIAEx7iYplm+EBWnKFL7aGoZBOGzT/HPmP8sfpokQhrpTb8fzEZljirVAAdM49XecMvsTtSAIVFqleV81MaUKBSpdJoJsJZuXzvK7RGJDCRQOncSAwZZVg/MTWUGeIG4S2RFCvC+ZuQXaHGiAXN1RDFXMXQwseLzt8UgN+dwf2aEtgeENOqd0xm+Me8hFNtRGkg8/XWglmFiobLT8yrfSmZC0N5/SnPUqiNFgYlaBOmyk+cjQWMIyImSL0oxlNNzIxcohx8RPjl5fT4R9jfxv5GSEbfYk9oOhneAbYgr5ShBVZr00As8eBRIeBzMsZB1BhC6jDRvb4aYD374fvBkCUwurA5rNpAevCPtsHnCBgEco8F1gD3zuulNaYbFHKqmBFEw11mxRAgBtBQ29/6FdC5w72GIpk0AcTJx6lqKFJKbdieURkr6vG19I+1gAEf6ziiwW7UKbGEQCf1+aaU8JXwflq2C+C8wzw/v3wewNMdS1B4gGQAaum2CkSkm7P0j6y/mXOP9fTk3XxYU8HgNSpARybu4YZgZqM3wPt4MLb40bj+abjRKLJxBEY6mOjM+ib1bCilrlw0zcF6tm0OrpKwl0s4ZjrlOKmnyompDflUuENFoRyaAAePYnWiAg9gKwrXNmZb0uw89OUofmOA/oiJbgKtzz2eooMBEarMSStJh0KGRMaTxWgpJDwfJSZAGOIvJLbigFF73swQx0qEQ0EEMyCHeBZpui7JchPrnRfHFND8WZg2gUtmDo3scPA1xQMiu7og5sR2cBlPURlarnNN/NcOkn0HRVK3uUV7Uv/H64AKsEIGA/Ih0YDpXt82+klBcRzQXQBerADlRU9RshY+nqvDBUffgkUsDpwZ2QnDoe8EvZN6hTiArQTJbQqHt8Lqt3iPi5TxwqOwrOoogVJ0ZGYRPjFANDNICTaQnWUe4CjSEUdz7oRSiCWekn5JgDiFUNAomhHEuyksOi8DcmIQiQHibF7MKKb6VpqHpQkuDpOBHQ1YtjgLvw1VdzRzq6n3MSQMkLH/PJBpdHmhAuEpIYoxQFzPZWCQCaImZW5kHOta+7eqeoVxaWegctHBy7trOEu8eBqaoUgfTP1Qs7IgjLWOenoqx0Log7gLBFCpsafnRDSoK+m+n7iT6/53N0LI3dg+OhgwQR9T+VGgH7y4kRUT8JU0Xw6n17EaZTs6AlfyA1jcjlw6Fstiaz65vyiKd2D349pkYpvE3tN67tJhY9wPlNyzRHTpwnFr6bE0lDA3e2PlGfPEDzafqOR1L3D24Dr84AFFs2KM0ICFt/7xGGCqWvsU+r7VgAsGsYGFTwv1lssivWoGDoKPHFlfCFXYwaOzj9bbvhqvX9dbqs+vXp/Hrnwdeh+P3LhLXSf8umI/WT0SahvUXyd0r/WWviVYvtLrf0wvdfkwvel5pIm4onHYWlo4IiPfHWp6/BHV+YGu4In0S0i7YVcvSucDivRXFcL3s9owrYWz+D1BCxwVkgpQXxhGY2gYDD7LTis4/od5dVgh+g2i7cAc5vq+2eYFXP/jiPBuiqqkXaprk8dtRsczrgHhcx0D2rk4IbSwe4fsobmw6t0LICWRITpuIKvwSHjAp+NTCrtAMeAFTPq7oGBNMZWVGM01CvWNuSuC3eCwr1YoOpGOR+Xw1ifvGuK/oR2U7KnFYGbgb4xFxrYel76vtP1445Wd98SHYBRvb5dUZ+SYGWC3Iy5aYJgRqYbgF+oA4StAvgzEZaCiQBMzXeFN24ib14IulQNZ4XUZumT8GJ0rh4XyWsiohamhyQQuRzS6Ml8y2JjaE1mwxXiw5BZIw9jGbgS6szLCFatJNkzggZAZ2RUPHCYGxKVYLdIu1K1YL2TEp4EpZzy/jv3itZvADdUwzvF6UJdjZAOhFPFMcChJB9XgoO9LrFd9gspwTrhSUdHyUyon2/panyj7xMr8t2QxyegPHw/EqqldkaOWg0bV1spDQWfS/OK6sj/gouBy5GY2x0rzLlfJcLMqLBwfNMGzeL7IQvYg63dtsxzIvgEbS4MPCLSN1O30aN4Uvh063TFVfR9pyTY9p2iU65v3m/MZrkZxkb2HEAO7kJ4wNd+b8RWpD0rb1GmlAl11XGYeACLWIiI/kVOuBEhJFQ21tJQeF1AiFqIxPXdKuZhfnokI+Hr0Quftm0AotDO11bVfSphkVKXO9Wjm3EShZP7wb1TtQ38MkUrE8OKhVh+NqAATXZhBlZ1GNJyRucBWkaz4tcacoBPMk5I3SLVOFhQMVFvevTeRGjRpMk3HMTNvTak4vTZ+k7+e68hYJTasooZwkQn9b0FuAdnpVQ+DiCHAj41kACdAgBio6gU/HzGQr0q8pRf2oAPf7Oh7rXLDOMgaTiltq5j514tglWAHdJXpIGxzcXrHSd0QJP+gGMevD4ZFrhu3Y8AKspqJhxJnXvSK/9UwyESF/V9eIz7XmajI0aru02EXX0kGeY2gg9oZ0w8y1TX3m0Px2hgH44trmLMK3hQeuI7rgtdF55NT2/z7Ju9q+6C6HzAzANbH9qR7UcE3QGTb7rcv6igzgQKrpUkoNQC4pBOgUx9ezh9vVOLzPUt4OOKvPjOS/IldPKQEdr+tVLCOvCMuicDwqgJsK80dyqsittCW24hquNZx8K5GG9Fe1X1U6uV6JQMF2gYEKQ39ro/OZfZi7pb4wip8FfiVgGRn7Dxzho7Af7UFPLPdzZapDidj4uzgRMdBEfOplHiKUNzBeKRHUnI2G6TqOgHgUR30O9wwY9F406x9BrBhYWjqX4wbXAoxNBjHQRDVz3oHKoDBn5QK6TbYS5WU2BC8/9EgcC/3Jc6Wu4cVvJNKeEDd7lgGm3J+1gbkAYqedtHDf/qyOG3DzN/cs6Gzn9OZHw7j7wQo09HMr6D5ZvwGH0/NSJM43Xo+H7k+Bw4+mGnvk4cvx1LMtDXl/hBlu8LMdzbeSTG82fHiOGPzh9/GOjtQPJPziPD5wPJPzmPDJ8PJP/kPDL8i4PLL0/awucDyT85jwyfDyT/5Dwy/Bfnjz8Z6B/OI4Hn7fq6L70x+wYoqhZ9OTaSAJvuG9G1I/Jil7G5ZIHQYymdPkF48S3cV60g098qwYPvzja8l4L/3wLf/CENwDFi/cwDSbYBrcHX8I41bWVExJw7L7SE75tEV7n+/03CGYi4cz6O+OevH/H/5Tn8R632bwaiwqjH8P/KHqSHM8IirwAAAAZiS0dEAP8A/wD/oL2nkwAAAAlwSFlzAAAuIwAALiMBeKU/dgAAAAd0SU1FB+QEHQ4iBlK9FKkAACAASURBVHja7d17/OZznf/x53zHaTIMKYaRxDrEzI4ialONFC2m4+ZQcthyiorKpiMpHVbFViJqQyLaosiitZFasSp+QzksKcXQyaCMU35/XO+paczh+n6/1+FzuN9vt/etw62mvq/P5/t5P+ZzXdfnmpDVnxOAMVguyZPKmlTWSmWtWP5xhUXW8uW/t2BNLGtkoTWhrAUeL+vPC63Hynp0ofVIkocXWfOTPFT+cX6SB8v6U1mPOozAWC5+AAubnGTdsqYlWaesqWWtleSpSVZrwM96b5LfJLk7ydyy7izr10l+VdYDTgtAPEG7f+83LOsZZa2f5OllPbVFs1itrI2W8Z/7TZJflHV7kp+XdWtZ7mBBi0zwsh001tQkm5a1cVkblTXBeHrm8SS3lHVzWTeWNdd4QDwB1TM5yYyypifZPMlmJZ4YrrlJfprkhiTXJ5lTlpcBQTwBA/KUJM8qa2ZZmxtL7dyQ5LqyflLWb40FxBMwPssn2TrJVmVtmeSZxtJYP0vyoyTXlHV1Op8gBMQTsATTkjy3rG1KOK1oLK31UAmoq5L8sKxfGwuIJ2izDZI8f6E13UhYhuuT/GChdZuRgHiCJpuW5IULrc2MhHH6aZLvLbTcmQLxBLW2fJIXJ9murK2NhD67Osl3y/rveM8UiCeogU2SvKSs7ZOsYiQMyf1JLk3yX2XdZCQgnqAqtkuyQ1nPNg4q6sdJLinru8YB4gkGaaUkOyV5WVlPMxJq5o4kF5V1YTpfmgyIJ+ipKUl2XmhNMRIaYl6Sby+05hkJiCcYq1WSvDzJ7CS7JFnZSGi4Pya5IMn5Sb6VzvumAPEESzUxySuTvKKsVY2ElrovyTfLOi/JY0YC4gkWtn2SVyd5VZK1jQP+xl1Jzk3yjXQ+wQfiCVpqepJ/KtE0wzigK3NKRP1HOk88B/EEDTc5ya5JXpvOJ+WAsbsoydeSnJPkAeNAPEGzvCDJbiWcnmoc0FO/KQF1dpIrjAPxBPW1WpI9kuyeznfJAf33vSRfTXJWknuNA/EE9bB1kteXcHKXCYbjNyWgvpLOd+6BeIIK2qNE085GAZXy7RJRZxkF4gmGb+0keyV5Q5LNjQMq7YYkX05yejqPPwDxBAP07CR7l3BazTigVu4tAXVaOl9YDOIJ+miHJPum8yZwoP6+muRLSS4xCsQT9NZuJZp2NApopItLRJ1tFIgnGJ83lvU8o4BWuDLJF8sC8QRdWinJm8qaaRzQStcl+UJZ840D8QSLt3KS/ZPsl+SZxgEk+VmSU5KcnOSPxoF4gr+NpgOSbGIcwGLclOTzIgrxRNutWILpwLjTBHTnZ0lOKiH1kHEgnmiTA5IcFO9pAsbmuiQnlogC8USjvaFEk0/PAb1wZYmoLxsF4ommeXmSg9N5yCVAr12S5IQk3zIKxBN1t22SQ9J5yCVAv52d5LNJvm8U9MvETJpmCvTDJkmOSueNndONAxiQ6Un+OclTktyW5HdGgnii6lZN8s4STdsZBzAkWyfZNZ1P9V4Xn8xDPFFR+6Tzxs3Xp/PsJoBhWjnJi5O8rMTTtUaCeKIqZiU5Psm7kqxtHEDFrJ3klUmelWRuktuNBPHEsKyX5Mh07jZtahxAxW2aZO8kU9J52OY8I0E8MUgHlWjaOckE4wBqYkI6z5nbJcmjSa4xEsQT/bZdkk8neXuSNYwDqKk1yl/+toyX8hBP9MlTk7w/nYfQbWYcQENskmSPdN5c/v+S/MlIEE/0wh4lmnZNMtE4gMbthZ0H+r44yf1JrjcSxBNjtWmSjyU5Jsk6xgE03DpJXpPkaUluTvJbI0E8MRoHpvMVB9sbBdAyz07yj0kejjeUsxi+245FPSvJ4em8VAd9N2vbLcf137933v25ds7NBkm/nJXk2CQ/MQrEE4vzliT/kmRdo2BQHv/91eP671/+gx9n1uwDDZJ++lWSf03yGaMgSUaMgHTuNn01nUcQCCeAv7VuuT5+tVwvEU+03EFJzk2ym1EALNVu5Xp5kFGIJ9pp0ySnJvlckqcbB0BXnl6um6fG11KJJ1plzyT/kc53PAEwenuX6+ieRiGeaLY1kxyX5MtJNjcOgHHZvFxPjyvXV8QTDbNDkrOTHGoUAD11aLm+7mAU4onmODydT4nMMgqAvphVrrOHG4V4ot42TXJaOs8nWd04APpq9XK9PS3eTC6eqKVXJzkjyV5GATBQe5Xr76uNQjxRDxOSvLf84m5pHABDsWW5Dr+3XJcRT1TUpklOT/LhJJOMA2CoJpXr8enxMp54opJmp/PQNs8cAaiWPcv1ebZRiCeq47AkX0qyjVEAVNI25Tp9mFGIJ4ZrrXS+5ftTSdYwDoBKW6Ncrz9Trt+IJ4bwt5gvJDnEKABq5ZBy/fZqgXhigHZNckqSXYwCoJZ2KdfxXY1CPNF/70hycpIZRgFQazPK9fwdRiGe6I/V03mt/BNJphgHQCNMKdf1T8U3QYgnemrzJCfGpzQAmuqwcp3f3CjEE+O3fZLPJdnNKAAabbdyvd/eKMQTY/e6JCckeaFRALTCC8t1/3VGIZ4Yvbel8yyQTYwCoFU2Kdf/txmFeKI7yyf5UJLjkzzZOABa6cllH/hQ2RcQTyzBWuWX5X1GAUDZD46PJ5KLJxZrkyTHJXmzUQCwkDeX/cHbOMQTC9kmnWd87GEUACzGHmWf8JUu4okkL0nnAWk7GQUAS7FT2S9eYhTiqc1eVX4RtjUKALqwbdk3XmUU4qmN9kzyr0lmGgUAozCz7B97GoV4apP9k3w8yd8ZBQBj8HdlH9nfKMRTG7w1yceSrGMUAIzDOmU/eatRiKcmOzzJR+ObswHojdXLvnK4UYinJnpvko8keZJRANBDTyr7y3uNQjw1yVFJPpxkOaMAoA+WK/vMUUYhnupuYjrfS3SkUQAwAEeWfWeiUYinOlo+ydHxPXUADNb7yv7jC4X7xMtI/bFCqf/3GAUAQ7Bg//lgkoeNo7fceepPkAonAKoQUEfGjRLxVHEThBMAFQyoCUYhnqrqyHiPEwDV8r744JJ4cnICgL/ci6d6e1c8WwOAajuq7FeIp6E7tBS9Z2oAUGUTy351qFGIp2E6sJyIk4wCgBqYVPatA41CPA3DXuUEXM0oAKiR1cr+tZdRiKdBek058aYaBQA1NLXsY68xCvE0CDuWE24DowCgxjYo+9mORiGe+ukfyok2wygAaIAZZV/7B6MQT/2weZIPJHmeUQDQIM8r+9vmRiGeemmdcmK5tQlAE+1Y9rl1jEI89cJK6dzS3NUoAGiwXct+t5JRiKfxOjLJ/sYAQAvsH181Jp7G6R1JjjAGAFrkiLL/IZ5Gba90Xv8FgLb5QDxEUzyN0svKibOqUQDQQquWffBlRiGeurFFOWE2NAoAWmzDsh9uYRTiaWnWSvL+eJYTAKTsh+8v+yPiabHen+TVxgAAf/Hqsj8inp7giCQHGwMAPMHB8elz8bSIPVU1ACzV+8t+KZ6MIC9I8r4kTzIKAFiiJ5X98gXiqd3WKyW9id8JAFimTcq+uZ54aq/3JXmp3wUA6NpLy/4pnlroiCT7+R0AgFHbLy1+A3lb4+mfkrzXuQ8AY/besp+KpxaYmc7txsnOewAYs8llP50pnpptUinlmc55ABi3mWVfnSSemus9SV7rXAeAnnlt2V/FUwO9Pt7nBAD98N6yz4qnBtmiVPEE5zcA9NyEss9uIZ6aYblyQDdzbgNA32xW9tvlxFP9eZ8TAAxGK97/1PR4emWSdzuXAWBg3l32X/FUQ+un8/TTlZzHADAwK5X9d33xVD9HJNnGOQwAA7dNGvz1LU2Np/2THODcBYChOaDsx+KpBrZMi7+sEAAq5IiyL4unintXkmc4XwFg6J5R9mXxVGHvjMcSAECVvLbsz+KpgrZtYt0CQAO8q+zT4qlCJpYD8xTnJwBUzlPKPj1RPFXHvyTZxbkJAJW1S9mvxVMFvCDJ4c5JAKi8w8u+LZ4qcCBWdz4CQOWtngbc8Kh7PL0zyWznIgDUxuzU/NN3dY6nreLlOgCoo8PLPi6eBuydSdZ0/gFA7ayZGt99qms87Z9kN+ceANTWbqnpd9/VMZ42SPIO5xwA1N47yr4unvrs7Uk2dr4BQO1tXPZ18dRHL09ysHMNABrj4LK/i6c+WKGOdQoALNPbyz4vnnrssCQvcn4BQOO8qOzz4qmHpic51LkFAI11aNnvxVMPBzrVeQUAjTU1NblRUod4ekWSNzqnAKDx3lj2ffE0Tm9zLgFAa1R+3696PL01yXbOIwBoje3K/i+exuBpcdcJANrobaUDxNMovSU1fGQ7ADBuG5QOEE+jsHUqfssOAOirt5YeEE9dekuSFZ03ANBaK6aid5+qGE+7JNnTOQMArbdn6QLxtAyHOFcAgKp2QdXiae8kOzpPAIBix9IH4mkxJiZ5s3MEAFjEm0sniKfFDGZr5wcAsIitU6EbLFWJpylx1wkAWLI3l14QT8VBSTZ1XgAAS7Bp6QXxlGRqVYYBAFTaQaUbWh9PByZZz/kAACzDeqUbWh1P6yY5wLkAAHTpgNIPrY2nA1KB228AQG1MzZBvvAwznp6WZH/nAAAwSvuXjmhdPO2XZE3HHwAYpTVLR7QqntYZ5g8NANTefqUnWhNPb4r3OgEAYze19EQr4mmNYf2wAECjvKl0RePj6Y0Z4pu8AIDGeFrpikbH00pJ/tmxBgB65J9LXzQ2nvZNsonjDAD0yCalLxobT+46AQC17otBxtMeSbZyfAGAHtuqdEbj4mkfxxYAqHtnDCqeXppkB8cVAOiTHUpvNCae9nZMAYAm9MYg4ml6ktc7ngBAn72+dEft42kvxxIAGJC+d0e/42m1JG9wHAGAAXlD6Y/axtOe8QXAAMDgTC39Uet4AgAYpNrG005JtnH8AIAB26Z0SO3i6XWOHQAwJH3rkH7F09+JJwBgyPH0d3WKpz2STHDcAIAhmZA+fd9dv+Jpd8cMABiyvvRIP+LpVUk2c7wAgCHbrHRJ5eNpN8cKAKiInndJr+Np/SS7Ok4AQEXsWvqksvG0a7xRHACojgnp8Y2dXsfTax0jAKBietonvYynWUm2cnyg2raYsXG2mLGxQfTBoQftkdWmrGIQUD1blU6pXDy9xrGB6ofTZeeflMvOP0lA9dipJxyZ4445LJedf5KAgmrqWaf0Kp5WEE9Qj3CasurkTFl1soDqcTjtvcfOSZKZ0zcSUFDdeFqhSvH06iRrOy5Q/XBaQED1PpwWEFBQSWuXXqlMPL3KMYH6hJOA6l84CSiotJ70Si/iaS3xBPULJwHVv3ASUFDpeFqrCvH0yiTLOx5Qv3ASUP0LJwEFlbR86ZZKxBNQ03ASUP0LJwEFlTT0eHpGkpc5DlDvcBJQ/QsnAQWV87LSL0OLp5c7BtCMcBJQ/QsnAQWVM65+GW88zTZ/aE44Caj+hZOAgkoZV7+MJ542TLK9+UOzwklA9S+cBBRUxvalYwYeT7uYPVTDUe/ar6fhJKD6F04LB9Q+r3MZhSEa8y/geOJpJ3OHatjn4KNz3fW39OXPbmtA9TOckuS0s76d4088y8kLwzPmjhlrPK2bZAdzh2q4d979mTX7QAFVo3Da5+APOnFhuHYoPTOweHLXCQSUcBJOUHdj6pmxxpNnO4GAEk7CCepuTD0zlnhaNck/mjcIKOEknKDm/rF0Td/jacckK5k3CKimBJRwgtZaqXRN3+PJG8VBQDUmoIQTtN6ou0Y8gYBqbUAJJ2AQ8fT8JOuZMwiougeUcAKK9Urf9C2eXmrGIKDqHlDCCRhP34w2nnyXHQioWgeUcALG2zejiae1k2xrviCg6hpQwglYgm1L5/Q8nl5stiCg6hpQwgnoVeeMJp62M1cQUHUMKOEE9LJzRhNPs8wVBFTdAko4Ab3unG7j6e+TbGiuIKDqFFDCCRiFDUvv9CyeXmSmIKDqFFDCCRiDrnqn23h6oXmCgKpLQAknYIy66p1u4+kF5gkCqg4BJZyAceiqd7qJp+ckWcs8QUBVPaCEEzBOa5XuGXc8Pd8sQUBVPaCEE9Ajy+we8QTUPqCEEzDIeJqQ1Zd5d+rXSdYxS2if1aasksvOPykzp2/Ulz9/3n0PZMqqk8f1Z9x9z++y1pprCCegV+5MMm1p/4Fl3XmaIZygvQZxB2q8hBPQY+uU/hlzPD3PDEFA9TOgqko4Qas9bzzx9FzzA9oWUMIJWu+544mnrc0PaFNACSdgWf2ztHiammRz8wPaElDCCSg2Lx006nh6jtkBbQko4QR020FLi6etzA1oQ0AJJ2A0HSSegFYHlHACehlPW5ob0OSAEk7AWDpoSfG0UXwZMNDggBJOwDKsVXqo63h6lpkBTQ0o4QR06VniCWh9QAknoF/xNNO8gKYFlHACRmmmeAJaG1DCCehnPD0tnW8UBmhEQAknYIzWKV20zHiaYVbVcPxH3p59XreLQSCghBMtsdqUVXLeGcdmixkbG0Z1zOgmnqab0/CdesKReduBu+dLn/2AgEJACSdaEk6XnX9SXrHTi3LZ+ScJqOqYLp5qEk5777HzX/61gEJACSfaEU4zp3ceKzRl1ckCqmbxtJk5VSecBBQCSjjRrnBaQEBVxmbiqYbhJKAQUMKJdoWTgKpXPG2SZJI5VS+cBBQCSjjRrnASUJUxqfTREuNpUzOqbjgJKASUcKJd4SSgKmNT8VTjcBJQCCjhRLvCSUBVP54ckRqEk4BCQAkn2hVOAmroNhZPDQgnAYWAEk60K5wEVHXjaSPzqU84CSjaHFDCiTaGk4Aamo2WFE9PTrKW+dQrnAQUbQwo4USbw0lADcVapZOeEE8bmk09wwnaFFDCCQTUkGy4uHjawFzqG077HnJ0Tj3zAoOm0QElnGjyXwwEVOVtIJ6EE9RqoxFOCCgBVcV4Wt9chBNUcaMRTggoAVUBf+mkCVn9OQv++cVJdjAb4QRVsdqUVbLP63bJ8SeeZRg06rzuxxvIF5h33wOZNfvAXDvnZsPurUuS7LhoPN2YRb67BeEEgIAiSXJTypPGF37Zbj1zEU4A9J+X8GrpL520IJ6mpvOtwQgnAAQUTzSp9NJf4mldMxFOAAgolmpd8SScABBQjDGe1jEP4QSAgGKp1hFPwgkAAcUY42lt8xBOAAgolmrtheNpqnkIJwAEFEs1VTwJJwAEFGOMpzXNQzgBIKBYqjXFk3ACQEAJqDHE02pJVjAP4QSAgGKpVkgyeSTJU8xCOAEgoARUd+MaSbKGOQgnAASUgOrKqiNJnmwOwgkAASWguo+n1c1BOAEgoARUV1YRT8IJAAEloEYZT1PMQTgBIKAEVFdWFk/CCQABJaBGGU+rmoNwAkBACaju42kV4SScABBQAqork0aSTBZOwgkAASWguvKkkSQrCyfhBICAElBdWam18SScABBQAmqs8TRJOAknAASUgOrKiq2LJ+EEgIASUOONp5WEk3ACQEAJqK6sMJJkReEknAAQUAKqK8uPJFlBOAknAASUgOrKchOy+nPuS4MflNnvcIIm+ODHT8lRHz/FIJbh8d9fbQiwFPPueyCzZh+Ya+fc3OQf8z9HkiwnnACA8WrJHaiJjY0n4QQAAqpf8TQinAAAAdWVkcbFk3ACAAHVRxNGkkwQTgCAgOo+noQTACCgujSS5HHhBAAIqK48PpLkz3X+CbaYsbFwAoAaBNTxH3m7eKqCa+fcnH0POdpZCQAVdt31t+SVex7ehB/lzyNJHq37T3HqmRcIKACocDjNmn1g7p13fxN+nMcaEU8CCgCE0yDj6ZGm/DQCCgCEU589OpLk4Sb9RAIKAIRTv+Ppoab9VAIKAIRTnzwykmR+E38yAQUAwqkPHl4uyYNN/elOPfOCJMmXPvuBvv1v3H3P73LjLb/w20Kt3X7HXYbQhct/8GNDoNYmrzwpM2dsnOUmThROY/dQo+NpEAG11ppr5KJLf5h9Dv6g30pouFmzDzQEamuLGRvnsvNPEk49iKeJmTRt9yQbNPmnvHbOzfnFHXfllTu9qG8n5DPWWyfnXXi5304AKhtOU1adLJzG74qJmTTtNUk2bfpPKqAAEE7CqQe+OzGTpu2S5O/b8NMKKACEk3Aap4snZtK0lybZqi0/sYACQDgJp3H49sRMmvbCJM9v008toAAQTsJpjM6dmEnTtk6yfdt+cgEFgHASTmNw9sRMmvb3SXZq408voAAQTsJplM6YmEnTNkrymrZOQEABIJyE0yh8YWImTVs3yevbPAUBBYBwEk5d+tzETJq2RpI3tX0SAgoA4SScuvCpiZk0bVKSt5qFgAJAOAmnZfroxEya9uckR5iFgAJAOAmnZTpyYiZNm5/kPUkmmoeAAkA4CaclejjJByZm0rQkOSDJqmYioAAQTsJpie5KctyCeNozydpmIqAAEE7CaYn+L8nJC+LpFUk2MhMBBYBwYol+kuTMBfG0fZJnmYmAAkA4sURXJPnWgnjaOskLzURAASCcWKILk/z3gnjaNMnOZiKgABBOLNHZSf53QTxNS7K7mQgoAIQTS/SFJDcuiKfJSfY3EwEFgHBiiT6Z5M4F8fTnJO80EwEFgHBiiY5M8sCCeHogybuSLG8uAgoA4cQTPJjk3UmyIJ6S5A1JnmI2AgoA4cQT3Jbks4vG0+wkG5qNgAJAOPEEP05yxqLx9IIkW5qNgAJAOPEElya5IElGFvo3bzeX8Tn1zAuy7yFH9+3P33uPnXPqCUcaNK3bVFabsophIJyE07D9pZMWjqfbzEVAQdU2lRc9/9kCCuEknKrgNvEkoKA2m8rM6RsJKISTcKpkPN1qLgIKqrqpCCiEk3AaslsXF0+/T3K32QgoqOqmIqAQTsJpSO4unfSEeEqSW8xHQEGVNxUBhXASTkPwN320aDzdbD4CCqq+qQgohJNwGrC/6aOFn/OUJM9M8hIz6r1BPAdq9Smr5KJLrzRsWrGpTF1zjfzjS/4hX/3GdzL/oYcNkspaf72188PvfEk41dvZSX6w4F8seufpRvPpn37egZp33wM59awLDJlW/W3cHSjq4PZf3pXzvt2fBxwLp4H5mz4STw0IqHn3PZBZsw/MtXO86kp7wklAUSf7HPzBnHbWt4VTQ+PppnS+NZiaBJRwos3hJKBoa0AJp4F6sPTREuMpSX5qTvUIKOGEcBJQtC+ghNPAPaGLxFNNA0o4IZwEFO0LKOFUjXha9NN2SbJRkpea1WCM5VN4wgnhtGQ+hUcdnHfh5XnGeutkixkbC6fqOzMLfdJuSfE0JcnrzaqaASWcEE4CivYFlHAaquOzyEMyFxdP85McZlbVCyjhhHASULQvoITT0L07yX0L/xuLe8/THUnuNKvBW9p7oIQTwmn0vAeKOljae6CE09DdWbrobyzuzlPSecr4RmY2eIu7AyWcEE5j5w4UdbC4O1DCqRK+n+Qr3cbT9CTbmtnwA0o4IZwEFO0LKOFUGV9Pcumi/+aErP6cxf2Hd03ne1wYolfu/KLc/su7hBPCqUdsSNTBoQftkVPPvMB5Wg27JTmn23jaKIt8gzBAncNJQAFjsHEW+aRdsvg3jKf8B+82M6BJ4ZR4EznQtbsXF05Li6ck+ZG5AU0KJwEFjMISO2hp8XSNuQFNCycBBXTpGvEECCcBBfQ5nv7X3ICmhpOAApbhf8cST3OT3GB2QFPDSUABS3BD6aBRx1OSXG1+QJPDSUABo+2fZcXTD80PaHo4CShgNP2zrHi60vyANoSTgAK67Z9lxdOcdL5RGBBOjQ8nAQWU7pkznnhKkv8xRxBOVQ2nRx97TEABvbTM7ukmnn5gjiCc+uG6628Z/58x5+bMu+8BAQX0yjK7RzwBQwunWbMPHPef88AfH8ys2QcKKKBS8fS/8SXBIJz6EE73zru/J3/etXNuFlBAL9ydLh4SPtLlH3aFeYJwqmI4CSigh7rqnW7j6XvmCcKpquEkoIAe6ap3uo2ny80ThFOVw0lAAT3QVe90G0//L8mtZgrCqcrhJKCAcbi19E7P4ilJLjNXEE5VDycBBYxR150zmnj6rrmCcKpDOAkoYAy67pzRxNN/mysIp7qEk4ACRqnrzhlNPN2V5PtmC8KpLuEkoIAufb90Ts/jKUkuNV8QTnUKJwEF9LpvRhtP3zFfEE51CycBBfSyb0YbTz9I8kszBuFUt3ASUMAS/DKj/B7fkTH8j1xiziCc6hhOAgroRdeIJxBOrQonAQUMI54uTjLfrEE41TWcBBRQzC9d0/d4ui/Jf5o3CKc6h5OAAkrP3DeIeEqSi8wbhFPdw0lAQeuNqWfGGk8XmjcIpyYRUNBKY+qZscbTr+KN4yCcGkZAQatcUnpmYPE05loDhJOAElBQAWPumPHE0wXmDsJJQAkoqKkxd8x44unW+K47qISj3rWfcKphQM3a9tlOXhiOS0vHDDyekuR884fh2+fgo3Pd9bcIpxoF1L6HHJ3zvn25kxeGY1z9Mt54+pb5w/DdO+/+zJp9YE8Dqu3h1M+A2veQo3Pqmd75AEM0rn4Zbzz9PJ75BI0LKOHUv4ASTjB0F5V+GVo8Jcl5jgM0J6CEU/8CSjhBJYy7W3oVT484FlD/gBJO/Qso4QSV8EhV4unuJOc6HlDvgBJO/Qso4QSVcW7plqHHU8QT1DughFP/Ako4QeXiadx6FU/fSHKXYwL1Cyjh1L+AEk5QKXeVXqlMPD2c5OuOC9QroIRT/wJKOEHlfL30SmXiKeIJ6hVQwql/ASWcoLLx1BO9jKfLklzj2ED1A0o49S+ghBNU0jWlU3piuR7/n/takq0cI6h2QC345/Q2oNaf+QpzhWr6Wi//sJEe/587J8njjhFUO6Bs8P2bLVA5j5c+qWw83d7r/4MAAONwTumTysZTkpztOAEAFdHzLulHPJ2b5KeOFQAwZD9NHx7kPdKn/7NfdbwAgCHrS4/0K57ODsXSLAAADmBJREFUijeOAwDD83jpkdrE0/8lOdNxAwCG5MzSI7WJp4gnAGDI8dQX/YynC5Nc5dgBAAN2VemQ2sVTkpzh+AEAA9bX/hhEPM11DAGAAZlb93i6N8mXHUcAYEC+XPqjtvGUJKc7jgDAgPS9OwYRT9cn+YpjCQD02VdKd9Q+npLkNMcTAGhCbwwqnr6T5BLHFADok0tKbzQmnpLkVMcVAKh7Zwwyns5Kco1jCwD02DXp0/fYDTuekuTfHV8AoM59Meh4+lKSmxxjAKBHbip90dh4mh93nwCA3vn30heNjack+WKSOxxrAGCc7ihdMVDDiKffJfmC4w0AjNMXSlc0Pp4W/LC+MBgAGKu5GdLNmGHF051JTnHcAYAxOqX0RGviacEPfY9jDwCM0j0Z4k2YYcbTHUlOdvwBgFE6OUP88NnIkH/4z8d7nwCA7s0t/TA0w46nXw17AABArXy+9ENr4ylJTkryS+cCALAMvyzdMFRViKe5SU50PgAAy3BiKvB2n5EKDeNG5wQAsAQ3piI3W6oST/OSfM55AQAswedKL4inRYZytXMDAFjE1anQTZYqxdNjcfcJAHiiz5VOEE+LcVqSi50jAEBxcemDyhip4JA+6zwBAKraBVWMpwuSnOFcAYDWO6N0gXjqwmeSPOScAYDWeqj0QOVUNZ6uTvJp5w0AtNanU9FP4Y9UeGifSXKbcwcAWue2VPSuU9Xj6Y4k/+b8AYDW+bfSAeJpDD6d5LvOIQBoje+m4m/dGanBEN19AoD2qPy+X4d4+maSLzqXAKDxvlj2ffHUA8cnmeucAoDGmlv2+8qrSzxdX5eBAgBjcnzZ78VTDx2X5HLnFgA0zuVln6+FOsXTw0k+5fwCgMb5VNnnxVMffCvJCc4xAGiME8r+XhsjNRzyp5Lc7FwDgNq7OTV8VamO8XRbkk863wCg9j6ZGn4V20hNh31ykrOdcwBQW2eX/bx2Rmo89E8kuce5BwC1c0/Zx2upzvF0TZJjnX8AUDvHln1cPA3BJ5Kc7xwEgNo4PzW+69SEeFpQr39wLgJA5f0hDXjVqAnxdEW8fAcAdXBs2bfFUwX8a5ILnJMAUFkXlP269poST48l+XiS3zo3AaByflv26cfEU7V8vxwYAKBaPl726UYYadjB+USSrzlHAaAyvpaaf7qu6fG0oG5/7lwFgKH7eRr4qlAT4+lHST7mfAWAoftY2ZfFUw2cnOTzzlkAGJrPp6bfXdfWeFpQu1c5dwFg4K5Kg18FanI83V4O3HznMAAMzPyy/94unurpvCQfdR4DwMB8tOy/jTXSgoP4kXh8AQAMwtfKvttobYinR8uB/KlzGgD65qdlv31UPDXDteWAPu7cBoCee7zss9e24YcdadGB/UqSY5zfANBzx5R9thVGWnZwvf8JAHqrFe9zanM8PVjq+DrnOgCM23VlX31QPDX/QH84yQPOeQAYswfKftq6GxIjLT3g/xHvfwKA8Tim7KetM9Lig/6xJKc49wFg1E5Jg79+RTwt3YeTfMfvAAB07Ttl/2yttsfTL5N8KMlNfhcAYJluKvvmL8VTu11RCvpPRgEAS/Snsl9e0fZBiKeOM0pJAwCL96GyX7aeePqrjyU5wRgA4AlOSIvfIC6ell3V3zAGAPiLb8SrM+JpKe4uJ8iVRgEAubLsi3cbhXhammuTHJ3kVqMAoMVuLfvhtUYhnrpxUTlh7jMKAFrovrIPXmQU4mk0Ti8nDgC0zdFlH0Q8jdon49MFALTLx8r+h3gasw8mOdkYAGiBk8u+h3gal/nlRDrHKABosHPKfjffKMRTL9yZzuu/FxsFAA10cdnn7jQK8dRLN5QTyzOgAGiSK8v+doNRiKd++J90bmnOMQoAGmBO2df+xyjEUz9dXE6024wCgBq7rexn3pIingbi6+WEm2sUANTQ3LKPfd0oxNMgnV5OvHuNAoAaubfsXx6CKZ6G4qRyAj5oFADUwINl3zrJKMTTMB1fTsTHjAKACnus7FfHG4V4qoKPJznKGACosKPKfoV4qowPxyPtAaimD5Z9CvHk5AQAf7kXT3X2eDlBP2IUAFTAR8q+9LhRiKcqe1RAAVChcHrUKHprOSPoi4fz1zeQv8c4ABhCOB2V5BGj6D13nvrnkSQfiPdAATBYHy77j3AST7X0WJL3xxv1ABiMD5Z9x7MHxVPtHZXkffG6MwD98WjZZ44yCvHUJMek8/6nPxkFAD30p7K/HGMU4qmJjk3y7iR/MAoAeuAPZV851ijEU5N9OskRSe40CgDG4c6yn3zaKMRTG5yc5F1J/s8oABiD/yv7yMlGIZ7a5Iwk/5LkOqMAYBSuK/vHGUYhntro3CTvTPJ9owCgC98v+8a5RiGe2uy/yi/ChUYBwFJcWPaL/zIK8URyVZK3JznLKABYjLPKPnGVUYgn/uqmJIcl+ZxRALCQz5X94SajEE880d1JDo3vwwOg48NlX7jbKMQTS/ZIOt9LdGiS3xsHQCv9vuwD748v+BVPdO3fkrwlbtMCtM1N5fr/b0Yhnhi9M5McnOR7RgHQCt8r1/0zjUI8MXaXJnlzkrONAqDRzi7X+0uNQjwxfjckOSjJcUYB0EjHlev8DUYhnuidP6TzjI93JplnHACNMK9c199ervOIJ/rgk0n2TzLHKABqbU65nn/SKMQT/XdOkv2SXGAUALV0QbmOn2MU4onBuSrJm5J81igAauWz5frtq1bEE0NwdzrPAnl7kt8ZB0Cl/a5cr98STwwXTwzdcUn29bcYgMq6qlynfWpaPFEh5yfZJ8kZRgFQKWeU6/P5RiGeqJ4bk+yV5H1JHjQOgKF6sFyP9yrXZ8QTFfV4kmOS7JnkR8YBMBQ/KtfhY8p1GfFEDXyj/OKebhQAA3V6uf5+wyjEE/VzY5K9k/xLPLkWoN/+UK63e8fLdOKJ2js2ye5JLjMKgL64rFxnjzUK8URzXJJktyTHGwVATx1frq+XGIV4onnuSXJYkjfEN3cDjNcN5Xp6WLm+Ip5osDOS/FOS04wCYExOK9dRz9YTT7TIjek8tO3NSX5hHABd+UW5bu4TbwoXT7TWiUleleRsowBYqrPL9fJEoxBP8JN0PiXy1iS/Mg6Av/Grcn3cvVwvEU/wF59J8vIkZxkFQFKuhy8v10cQTyzWT5K8LslBSW41DqClbi3XwdfF3SYWMSGrP8cUWJJNk7wzyRuNAmiRLyb5RLwhnCWYmEnTTIEl+W2SbyW5Ocn6SdYxEqDBflT+wviRcv0D8cSYXZ/k3CSPJdk6yUQjARrk4XS+VuWQJFcZB+KJXvlTkkuT/CDJk5NsYiRAA5xfoukL5ToH4omeuz2dT5/ck2TjJGsYCVBDtyR5f5J3lOsaiCf67pok3yz//LlJJhgJUAOPp/NFvm9O5246iCcGal6Si5NcnmT1dD6dB1BV30zn8QOfL9cvEE8Mze1JvprOdz49PcnaRgJUyE+SvCfJEfESHeKJirk2nfdD/THJ9CQrGwkwRPck+Wg6L9H5FB3iicp6KMkV6XyCJek82gBg0D6bzkt055brEognKu93Sf4znTdkrpzOnSiAfjs7f31f0++Mg37w9SwMysuTHJxkB6MA+uCSJCek860IIJ5olDeUvxU+zyiAHrgyyYlJvmwUiCea7oASUTONAhiD60o0fd4oEE+0yYolog5M8kzjALrwsyQnlWjyRnDEE621cpL9S0j5zjxgcW4qwXRyOo9DAfEEC0XUfnEnCuj4WZJTRBPiCZZupSRvKst7oqCdrkvyhbLmGwfiCbr3xrJ8Og/a4cokXywLxBOMw25J9k2yo1FAI12c5EvpPOQSxBP00A4lonY3CmiEr5ZousQoEE/QX89OsneSvZKsZhxQK/cmOT3JaUl+bByIJxistUtAvSHJ5sYBlXZDOk8CPz3JXcaBeILh2yPJ65PsbBRQKd9O8pUkZxkF4gmqaesSUXskeapxwFD8psTSV5JcbRyIJ6iH1UpA7Z7khcYBA/G9dN4EflY6720C8QQ19YJ0Hnewa9yNgl77TZJz0nnMwBXGgXiCZplcAuq1SV5mHDAuFyX5WgmnB4wD8QTNNz3JPyV5dZIZxgFdmZPkG0n+I8n1xoF4gvbavkTUq9J5/AHwV3clObdE06XGgXgST7CwiUlemeQVZa1qJLTUfUm+WdZ5SR4zEhBPsCyrJHl5ktlJdkmyspHQcH9MckGS85N8K8n9RgLiCcZqSjoP31ywphgJDTEvnYdYLljzjATEE/TaSkl2SufTei9L8jQjoWbuSOeTchcluTDJfCMB8QSDtF2SHcp6tnFQUT9OcklZ3zUOEE9QFZskeUlZ26fzvikYhvvT+WTcf5V1k5GAeIKqWz7Ji9O5M7VdOt+5B/10dTp3lb6b5L+TPGIkIJ6gzqal8x17C9ZmRsI4/TSd75JbsH5tJCCeoMk2SPL8hdZ0I2EZrk/yg4XWbUYC4gnabFqS55a1TTov861oLK31UDovw12V5IdlubME4glYiuVLQG1V1pZJnmksjfWzJD9Kck1ZV8d7lkA8AeP2lCTPKmtmWZsbS+3ckOS6sn5S1m+NBcQTMBiTk8woa3qJqc2STDWaoZubzpu6b0jn/UpzynrAaEA8AdUzNcmmZW1c1kZlTTCennk8yS1l3VzWjWXNNR4QT0D9LZdkw7KeUdb6SZ5e1lON6Al+k+QXZd2e5Odl3VrWo0YE4glor8lJ1i1rWpJ1yppa1lolsFZrwM96bwmju9O5SzQ3yZ1l/TrJr8ryMhsgnoBxWzGdN7A/JcmTy1qtrCllrVJibHKSlZM8KcmkdL5cecWyli9ruSQTk4yUtcCfy3osnTs8j5T1UFnzkzyY5E9J/lhC54F0vp5kXln3lvX7sn5b1kMOIzBayxkBMEYPpXN3xrOHgFb5/3PElIRugQnVAAAAAElFTkSuQmCC;fontFamily=Manrope;fontSource=https%3A%2F%2Ffonts.googleapis.com%2Fcss%3Ffamily%3DManrope;" parent="1" vertex="1">
          <mxGeometry x="148" y="281.56" width="28.16" height="28.16" as="geometry" />
        </mxCell>
        <mxCell id="OhbVSFWdRjhHsJU15Zuy-16" style="edgeStyle=orthogonalEdgeStyle;rounded=0;orthogonalLoop=1;jettySize=auto;html=1;exitX=1;exitY=0.5;exitDx=0;exitDy=0;entryX=0;entryY=0.5;entryDx=0;entryDy=0;strokeColor=#7EA6E0;fontFamily=Manrope;fontSource=https%3A%2F%2Ffonts.googleapis.com%2Fcss%3Ffamily%3DManrope;" parent="1" source="OhbVSFWdRjhHsJU15Zuy-32" target="OhbVSFWdRjhHsJU15Zuy-24" edge="1">
          <mxGeometry relative="1" as="geometry">
            <mxPoint x="308.56000000000006" y="138.68" as="sourcePoint" />
            <mxPoint x="355" y="207.825" as="targetPoint" />
          </mxGeometry>
        </mxCell>
        <mxCell id="OhbVSFWdRjhHsJU15Zuy-18" style="edgeStyle=orthogonalEdgeStyle;rounded=0;orthogonalLoop=1;jettySize=auto;html=1;exitX=1;exitY=0.5;exitDx=0;exitDy=0;entryX=0;entryY=0.5;entryDx=0;entryDy=0;strokeColor=#7EA6E0;fontFamily=Manrope;fontSource=https%3A%2F%2Ffonts.googleapis.com%2Fcss%3Ffamily%3DManrope;" parent="1" source="OhbVSFWdRjhHsJU15Zuy-39" target="OhbVSFWdRjhHsJU15Zuy-24" edge="1">
          <mxGeometry relative="1" as="geometry">
            <mxPoint x="308.56000000000006" y="207.82999999999998" as="sourcePoint" />
            <mxPoint x="355" y="207.825" as="targetPoint" />
          </mxGeometry>
        </mxCell>
        <mxCell id="OhbVSFWdRjhHsJU15Zuy-20" style="edgeStyle=orthogonalEdgeStyle;rounded=0;orthogonalLoop=1;jettySize=auto;html=1;exitX=1;exitY=0.5;exitDx=0;exitDy=0;entryX=0;entryY=0.5;entryDx=0;entryDy=0;strokeColor=#7EA6E0;fontFamily=Manrope;fontSource=https%3A%2F%2Ffonts.googleapis.com%2Fcss%3Ffamily%3DManrope;" parent="1" source="OhbVSFWdRjhHsJU15Zuy-40" target="OhbVSFWdRjhHsJU15Zuy-24" edge="1">
          <mxGeometry relative="1" as="geometry">
            <mxPoint x="308.56000000000006" y="278.68" as="sourcePoint" />
            <mxPoint x="355" y="207.825" as="targetPoint" />
          </mxGeometry>
        </mxCell>
        <mxCell id="OhbVSFWdRjhHsJU15Zuy-24" value="" style="shape=image;verticalLabelPosition=bottom;labelBackgroundColor=#ffffff;verticalAlign=top;aspect=fixed;imageAspect=0;image=data:image/svg+xml,PHN2ZyB4bWxucz0iaHR0cDovL3d3dy53My5vcmcvMjAwMC9zdmciIHhtbG5zOnhsaW5rPSJodHRwOi8vd3d3LnczLm9yZy8xOTk5L3hsaW5rIiB2ZXJzaW9uPSIxLjEiIGlkPSJsYXllciIgeD0iMHB4IiB5PSIwcHgiIHZpZXdCb3g9Ii0xNTMgLTQ2IDY1MiA2NTIiIHN0eWxlPSJlbmFibGUtYmFja2dyb3VuZDpuZXcgLTE1MyAtNDYgNjUyIDY1MjsiIHhtbDpzcGFjZT0icHJlc2VydmUiPiYjeGE7PHN0eWxlIHR5cGU9InRleHQvY3NzIj4mI3hhOwkuc3Qwe2ZpbGw6IzhDMUM1OTt9JiN4YTsJLnN0MXtmaWxsOiNDNjJBNzE7fSYjeGE7PC9zdHlsZT4mI3hhOzxnPiYjeGE7CTxwYXRoIGQ9Ik05My42LDI1MS4xYzAtMTksMTEuMS0yOS45LDM2LjctMjkuOWM5LjcsMCwxOS41LDEuMiwyOC4xLDMuM2wtMi4xLDE2LjljLTguNC0xLjYtMTguMS0yLjYtMjUuMy0yLjYgICBjLTEzLjUsMC0xNy44LDQuNi0xNy44LDE1LjZ2MzkuN2MwLDExLjEsNC40LDE1LjYsMTcuOCwxNS42YzcuMiwwLDE2LjktMS4xLDI1LjMtMi42bDIuMSwxNi45Yy04LjQsMi4xLTE4LjUsMy4zLTI4LjEsMy4zICAgYy0yNS43LDAtMzYuNy0xMS4xLTM2LjctMjkuOVYyNTEuMXogTTE5Ni45LDMyNy42Yy0yNS44LDAtMzIuOS0xNC4yLTMyLjktMjkuN3YtMTljMC0xNS41LDctMjkuNywzMi45LTI5LjdzMzIuOSwxNC4yLDMyLjksMjkuNyAgIHYxOUMyMjkuOCwzMTMuNCwyMjIuOSwzMjcuNiwxOTYuOSwzMjcuNnogTTE5Ni45LDI2NWMtMTAsMC0xMy45LDQuNi0xMy45LDEzdjIwLjJjMCw4LjQsMy45LDEzLDEzLjksMTNzMTMuOS00LjYsMTMuOS0xM1YyNzggICBDMjExLDI2OS42LDIwNy4xLDI2NSwxOTYuOSwyNjV6IE0yODQuMywzMjZ2LTUyLjdjMC00LTEuOC02LTYtNmMtNC42LDAtMTIuOCwyLjgtMTkuNyw2LjNWMzI2aC0xOXYtNzUuNEgyNTRsMS45LDYuMyAgIGM5LjUtNC42LDIxLjQtNy45LDMwLjItNy45YzEyLjUsMCwxNyw4LjgsMTcsMjIuM1YzMjZDMzAzLjIsMzI2LDI4NC4zLDMyNiwyODQuMywzMjZ6IE0zMzguOSwzMjcuNmMtOC4xLDAtMTktMS45LTI2LTQuNGwyLjYtMTQuNCAgIGM2LjMsMS45LDE0LjgsMy4zLDIyLjUsMy4zYzguNCwwLDkuNy0xLjksOS43LTcuNmMwLTQuNi0wLjktNy0xMy4yLTkuOGMtMTguNS00LjYtMjAuNi05LjEtMjAuNi0yMy43YzAtMTUuMSw2LjctMjEuOCwyOC4xLTIxLjggICBjNywwLDE2LjIsMC45LDIyLjcsMi42bC0xLjksMTUuMWMtNS44LTEuMS0xNC45LTIuMS0yMC43LTIuMWMtOC4zLDAtOS43LDEuOS05LjcsNi41YzAsNiwwLjUsNi41LDEwLjcsOS4xICAgYzIxLjEsNS42LDIzLDguNCwyMywyMy45QzM2Ni4yLDMxOC42LDM2MS44LDMyNy42LDMzOC45LDMyNy42TDMzOC45LDMyNy42eiBNMzk0LjUsMjUwLjZ2NTIuN2MwLDQsMS44LDYsNiw2ICAgYzQuNiwwLDEyLjgtMi44LDE5LjctNi4zdi01Mi40aDE5VjMyNmgtMTQuNGwtMS45LTYuM2MtOS41LDQuNi0yMS40LDcuOS0zMC4yLDcuOWMtMTIuNSwwLTE3LTguOC0xNy0yMi4zdi01NC43SDM5NC41eiBNNDQ5LjEsMzI2ICAgVjIxOS43bDE5LTIuNnYxMDkiLz4mI3hhOwk8cGF0aCBjbGFzcz0ic3QwIiBkPSJNLTM5LjMsMjk0LjljLTExLjEsMC0yMC05LTIwLTIwYzAtMTEuMSw5LTIwLDIwLTIwczIwLDksMjAsMjBTLTI4LjIsMjk0LjktMzkuMywyOTQuOSIvPiYjeGE7CTxwYXRoIGNsYXNzPSJzdDEiIGQ9Ik0tMC4zLDI4NC4yYy01LjEsMC05LjMtNC05LjMtOS4zYzAtNS4xLDQtOS4zLDkuMy05LjNjNS4xLDAsOS4zLDQsOS4zLDkuM0M5LDI4MCw0LjgsMjg0LjItMC4zLDI4NC4yICAgIE0zMy41LDI5Mi44Yy0xLjIsNC45LTYuMyw3LjktMTEuMiw2LjdzLTcuOS02LjMtNi43LTExLjJjMS4yLTQuOSw2LjMtNy45LDExLjItNi43YzQuNywxLjIsNy43LDUuOCw2LjksMTAuNSAgIEMzMy42LDI5Mi40LDMzLjYsMjkyLjYsMzMuNSwyOTIuOCBNMjcsMjY5LjFjLTQuOSwxLjItMTAtMS45LTExLjEtNi45Yy0xLjEtNC45LDEuOS0xMCw2LjktMTEuMWM0LjktMS4yLDEwLDEuOSwxMS4xLDYuOSAgIGMwLjIsMS4yLDAuNCwyLjUsMC4yLDMuN0MzMy41LDI2NS4yLDMwLjgsMjY4LjIsMjcsMjY5LjEgTTU5LjgsMjkxLjljLTAuOSw1LjEtNS42LDguNC0xMC43LDcuNnMtOC40LTUuNi03LjYtMTAuNyAgIGMwLjktNS4xLDUuNi04LjQsMTAuNy03LjZjNC43LDAuOSw4LjEsNS4xLDcuNyw5LjhDNjAsMjkxLjIsNTkuOCwyOTEuNiw1OS44LDI5MS45IE01Mi4zLDI2OC43Yy01LjEsMC45LTkuOC0yLjYtMTAuNS03LjYgICBjLTAuOS01LjEsMi42LTkuOCw3LjYtMTAuNWM1LjEtMC45LDkuOCwyLjYsMTAuNSw3LjZjMC4yLDAuOSwwLjIsMS42LDAuMiwyLjVDNTkuNywyNjQuNSw1Ni41LDI2OCw1Mi4zLDI2OC43IE00NS45LDMyMy45ICAgYy0yLjYsNC40LTguMSw2LTEyLjcsMy41Yy00LjQtMi42LTYtOC4xLTMuNS0xMi43YzIuNi00LjQsOC4xLTYsMTIuNy0zLjVjMy4yLDEuOCw0LjksNS4zLDQuNiw4LjhDNDcsMzIxLjQsNDYuNywzMjIuNyw0NS45LDMyMy45ICAgIE00Mi42LDIzOC44Yy00LjQsMi41LTEwLDAuOS0xMi43LTMuNWMtMi41LTQuNC0wLjktMTAsMy41LTEyLjdjNC40LTIuNSwxMC0wLjksMTIuNywzLjVjMS4xLDEuOCwxLjQsMy41LDEuMSw1LjMgICBDNDcsMjM0LjYsNDUuMiwyMzcuNCw0Mi42LDIzOC44Ii8+JiN4YTsJPHBhdGggY2xhc3M9InN0MSIgZD0iTS0zOC45LDM2OGMtMjUsMC00OC4yLTkuNy02NS43LTI3LjJjLTE3LjYtMTcuNi0yNy4yLTQwLjktMjcuMi02NS43czkuNy00OC4yLDI3LjItNjUuN3M0MC45LTI3LjIsNjUuNy0yNy4yICAgYzIwLjYsMCw0MC4xLDYuNyw1Ni40LDE5LjJMNi4xLDIxNmMtMTMtMTAtMjguNi0xNS4zLTQ1LTE1LjNjLTE5LjksMC0zOC41LDcuNy01Mi41LDIxLjhzLTIxLjYsMzIuNy0yMS42LDUyLjVzNy43LDM4LjUsMjEuOCw1Mi41ICAgczMyLjcsMjEuNiw1Mi41LDIxLjZjMTYuNSwwLDMyLTUuMyw0NS0xNS4zbDExLjQsMTQuOEMxLjEsMzYxLjUtMTguNCwzNjgtMzguOSwzNjh6Ii8+JiN4YTs8L2c+JiN4YTs8L3N2Zz4=;fontFamily=Manrope;fontSource=https%3A%2F%2Ffonts.googleapis.com%2Fcss%3Ffamily%3DManrope;" parent="1" vertex="1">
          <mxGeometry x="382" y="157.83" width="100" height="100" as="geometry" />
        </mxCell>
        <mxCell id="OhbVSFWdRjhHsJU15Zuy-25" value="&lt;font color=&quot;#66b2ff&quot;&gt;Router1&lt;/font&gt;" style="text;html=1;strokeColor=none;fillColor=none;align=center;verticalAlign=middle;whiteSpace=wrap;rounded=0;fontFamily=Manrope;fontSource=https%3A%2F%2Ffonts.googleapis.com%2Fcss%3Ffamily%3DManrope;" parent="1" vertex="1">
          <mxGeometry x="93" y="112.64" width="40" height="20" as="geometry" />
        </mxCell>
        <mxCell id="OhbVSFWdRjhHsJU15Zuy-26" value="&lt;font color=&quot;#66b2ff&quot;&gt;Router2&lt;/font&gt;" style="text;html=1;strokeColor=none;fillColor=none;align=center;verticalAlign=middle;whiteSpace=wrap;rounded=0;fontFamily=Manrope;fontSource=https%3A%2F%2Ffonts.googleapis.com%2Fcss%3Ffamily%3DManrope;" parent="1" vertex="1">
          <mxGeometry x="93" y="143.01" width="40" height="20" as="geometry" />
        </mxCell>
        <mxCell id="OhbVSFWdRjhHsJU15Zuy-27" value="&lt;font color=&quot;#66b2ff&quot;&gt;Router3&lt;/font&gt;" style="text;html=1;strokeColor=none;fillColor=none;align=center;verticalAlign=middle;whiteSpace=wrap;rounded=0;fontFamily=Manrope;fontSource=https%3A%2F%2Ffonts.googleapis.com%2Fcss%3Ffamily%3DManrope;" parent="1" vertex="1">
          <mxGeometry x="93" y="182.21" width="40" height="20" as="geometry" />
        </mxCell>
        <mxCell id="OhbVSFWdRjhHsJU15Zuy-28" value="&lt;font color=&quot;#66b2ff&quot;&gt;Router4&lt;/font&gt;" style="text;html=1;strokeColor=none;fillColor=none;align=center;verticalAlign=middle;whiteSpace=wrap;rounded=0;fontFamily=Manrope;fontSource=https%3A%2F%2Ffonts.googleapis.com%2Fcss%3Ffamily%3DManrope;" parent="1" vertex="1">
          <mxGeometry x="93" y="212.37" width="40" height="20" as="geometry" />
        </mxCell>
        <mxCell id="OhbVSFWdRjhHsJU15Zuy-29" value="&lt;font color=&quot;#66b2ff&quot;&gt;Router5&lt;/font&gt;" style="text;html=1;strokeColor=none;fillColor=none;align=center;verticalAlign=middle;whiteSpace=wrap;rounded=0;fontFamily=Manrope;fontSource=https%3A%2F%2Ffonts.googleapis.com%2Fcss%3Ffamily%3DManrope;" parent="1" vertex="1">
          <mxGeometry x="93" y="251.32999999999996" width="40" height="20" as="geometry" />
        </mxCell>
        <mxCell id="OhbVSFWdRjhHsJU15Zuy-30" value="&lt;font color=&quot;#66b2ff&quot;&gt;Router6&lt;/font&gt;" style="text;html=1;strokeColor=none;fillColor=none;align=center;verticalAlign=middle;whiteSpace=wrap;rounded=0;fontFamily=Manrope;fontSource=https%3A%2F%2Ffonts.googleapis.com%2Fcss%3Ffamily%3DManrope;" parent="1" vertex="1">
          <mxGeometry x="93" y="284.33" width="40" height="20" as="geometry" />
        </mxCell>
        <mxCell id="OhbVSFWdRjhHsJU15Zuy-32" value="&lt;font color=&quot;#66b2ff&quot;&gt;gNMIc-1&lt;/font&gt;" style="text;html=1;strokeColor=none;fillColor=none;align=center;verticalAlign=middle;whiteSpace=wrap;rounded=0;fontFamily=Manrope;fontSource=https%3A%2F%2Ffonts.googleapis.com%2Fcss%3Ffamily%3DManrope;" parent="1" vertex="1">
          <mxGeometry x="254.27999999999997" y="128.56" width="48.72" height="20" as="geometry" />
        </mxCell>
        <mxCell id="OhbVSFWdRjhHsJU15Zuy-39" value="&lt;font color=&quot;#66b2ff&quot;&gt;gNMIc-2&lt;/font&gt;" style="text;html=1;strokeColor=none;fillColor=none;align=center;verticalAlign=middle;whiteSpace=wrap;rounded=0;fontFamily=Manrope;fontSource=https%3A%2F%2Ffonts.googleapis.com%2Fcss%3Ffamily%3DManrope;" parent="1" vertex="1">
          <mxGeometry x="254.27999999999997" y="197.83" width="48.72" height="20" as="geometry" />
        </mxCell>
        <mxCell id="OhbVSFWdRjhHsJU15Zuy-40" value="&lt;font color=&quot;#66b2ff&quot;&gt;gNMIc-3&lt;/font&gt;" style="text;html=1;strokeColor=none;fillColor=none;align=center;verticalAlign=middle;whiteSpace=wrap;rounded=0;fontFamily=Manrope;fontSource=https%3A%2F%2Ffonts.googleapis.com%2Fcss%3Ffamily%3DManrope;" parent="1" vertex="1">
          <mxGeometry x="254.27999999999997" y="268.56" width="48.72" height="20" as="geometry" />
        </mxCell>
        <mxCell id="OhbVSFWdRjhHsJU15Zuy-41" value="KV Store" style="shape=table;html=1;whiteSpace=wrap;startSize=30;container=1;collapsible=0;childLayout=tableLayout;fontStyle=1;align=center;rounded=0;shadow=0;glass=0;labelBackgroundColor=none;sketch=0;fillColor=#f5f5f5;fontFamily=Manrope;strokeColor=#666666;fontColor=#333333;fontSource=https%3A%2F%2Ffonts.googleapis.com%2Fcss%3Ffamily%3DManrope;" parent="1" vertex="1">
          <mxGeometry x="504" y="92.69" width="307" height="239.27" as="geometry" />
        </mxCell>
        <mxCell id="OhbVSFWdRjhHsJU15Zuy-42" value="" style="shape=partialRectangle;html=1;whiteSpace=wrap;collapsible=0;dropTarget=0;pointerEvents=0;fillColor=none;top=0;left=0;bottom=0;right=0;points=[[0,0.5],[1,0.5]];portConstraint=eastwest;fontColor=#66B2FF;fontFamily=Manrope;fontSource=https%3A%2F%2Ffonts.googleapis.com%2Fcss%3Ffamily%3DManrope;" parent="OhbVSFWdRjhHsJU15Zuy-41" vertex="1">
          <mxGeometry y="30" width="307" height="29" as="geometry" />
        </mxCell>
        <mxCell id="OhbVSFWdRjhHsJU15Zuy-43" value="&lt;b&gt;&lt;font&gt;Session&lt;/font&gt;&lt;/b&gt;" style="shape=partialRectangle;html=1;whiteSpace=wrap;connectable=0;fillColor=none;top=0;left=0;bottom=0;right=0;overflow=hidden;fontColor=#66B2FF;fontFamily=Manrope;fontSource=https%3A%2F%2Ffonts.googleapis.com%2Fcss%3Ffamily%3DManrope;" parent="OhbVSFWdRjhHsJU15Zuy-42" vertex="1">
          <mxGeometry width="57" height="29" as="geometry" />
        </mxCell>
        <mxCell id="OhbVSFWdRjhHsJU15Zuy-44" value="&lt;b&gt;&lt;font&gt;Lock&lt;/font&gt;&lt;/b&gt;" style="shape=partialRectangle;html=1;whiteSpace=wrap;connectable=0;fillColor=none;top=0;left=0;bottom=0;right=0;overflow=hidden;fontColor=#66B2FF;fontFamily=Manrope;fontSource=https%3A%2F%2Ffonts.googleapis.com%2Fcss%3Ffamily%3DManrope;" parent="OhbVSFWdRjhHsJU15Zuy-42" vertex="1">
          <mxGeometry x="57" width="191" height="29" as="geometry" />
        </mxCell>
        <mxCell id="OhbVSFWdRjhHsJU15Zuy-45" value="&lt;b&gt;&lt;font&gt;TTL&lt;/font&gt;&lt;/b&gt;" style="shape=partialRectangle;html=1;whiteSpace=wrap;connectable=0;fillColor=none;top=0;left=0;bottom=0;right=0;overflow=hidden;fontColor=#66B2FF;fontFamily=Manrope;fontSource=https%3A%2F%2Ffonts.googleapis.com%2Fcss%3Ffamily%3DManrope;" parent="OhbVSFWdRjhHsJU15Zuy-42" vertex="1">
          <mxGeometry x="248" width="59" height="29" as="geometry" />
        </mxCell>
        <mxCell id="OhbVSFWdRjhHsJU15Zuy-46" value="" style="shape=partialRectangle;html=1;whiteSpace=wrap;collapsible=0;dropTarget=0;pointerEvents=0;fillColor=none;top=0;left=0;bottom=0;right=0;points=[[0,0.5],[1,0.5]];portConstraint=eastwest;fontColor=#66B2FF;fontFamily=Manrope;fontSource=https%3A%2F%2Ffonts.googleapis.com%2Fcss%3Ffamily%3DManrope;" parent="OhbVSFWdRjhHsJU15Zuy-41" vertex="1">
          <mxGeometry y="59" width="307" height="28" as="geometry" />
        </mxCell>
        <mxCell id="OhbVSFWdRjhHsJU15Zuy-47" value="&lt;span style=&quot;text-align: left;&quot;&gt;&lt;font&gt;gNMIc-1&amp;nbsp;&lt;/font&gt;&lt;/span&gt;" style="shape=partialRectangle;html=1;whiteSpace=wrap;connectable=0;fillColor=none;top=0;left=0;bottom=0;right=0;overflow=hidden;fontColor=#66B2FF;fontFamily=Manrope;fontSource=https%3A%2F%2Ffonts.googleapis.com%2Fcss%3Ffamily%3DManrope;" parent="OhbVSFWdRjhHsJU15Zuy-46" vertex="1">
          <mxGeometry width="57" height="28" as="geometry" />
        </mxCell>
        <mxCell id="OhbVSFWdRjhHsJU15Zuy-48" value="&lt;span style=&quot;text-align: left&quot;&gt;&lt;font&gt;gnmic/default-cluster/targets/R1&lt;/font&gt;&lt;/span&gt;" style="shape=partialRectangle;html=1;whiteSpace=wrap;connectable=0;fillColor=none;top=0;left=0;bottom=0;right=0;overflow=hidden;fontColor=#66B2FF;fontFamily=Manrope;fontSource=https%3A%2F%2Ffonts.googleapis.com%2Fcss%3Ffamily%3DManrope;" parent="OhbVSFWdRjhHsJU15Zuy-46" vertex="1">
          <mxGeometry x="57" width="191" height="28" as="geometry" />
        </mxCell>
        <mxCell id="OhbVSFWdRjhHsJU15Zuy-49" value="&lt;font&gt;10s&lt;/font&gt;" style="shape=partialRectangle;html=1;whiteSpace=wrap;connectable=0;fillColor=none;top=0;left=0;bottom=0;right=0;overflow=hidden;fontColor=#66B2FF;fontFamily=Manrope;fontSource=https%3A%2F%2Ffonts.googleapis.com%2Fcss%3Ffamily%3DManrope;" parent="OhbVSFWdRjhHsJU15Zuy-46" vertex="1">
          <mxGeometry x="248" width="59" height="28" as="geometry" />
        </mxCell>
        <mxCell id="OhbVSFWdRjhHsJU15Zuy-62" style="shape=partialRectangle;html=1;whiteSpace=wrap;collapsible=0;dropTarget=0;pointerEvents=0;fillColor=none;top=0;left=0;bottom=0;right=0;points=[[0,0.5],[1,0.5]];portConstraint=eastwest;fontColor=#66B2FF;fontFamily=Manrope;fontSource=https%3A%2F%2Ffonts.googleapis.com%2Fcss%3Ffamily%3DManrope;" parent="OhbVSFWdRjhHsJU15Zuy-41" vertex="1">
          <mxGeometry y="87" width="307" height="29" as="geometry" />
        </mxCell>
        <mxCell id="OhbVSFWdRjhHsJU15Zuy-63" value="&lt;span style=&quot;text-align: left;&quot;&gt;&lt;font&gt;gNMIc-1&lt;/font&gt;&lt;/span&gt;" style="shape=partialRectangle;html=1;whiteSpace=wrap;connectable=0;fillColor=none;top=0;left=0;bottom=0;right=0;overflow=hidden;fontColor=#66B2FF;fontFamily=Manrope;fontSource=https%3A%2F%2Ffonts.googleapis.com%2Fcss%3Ffamily%3DManrope;" parent="OhbVSFWdRjhHsJU15Zuy-62" vertex="1">
          <mxGeometry width="57" height="29" as="geometry" />
        </mxCell>
        <mxCell id="OhbVSFWdRjhHsJU15Zuy-64" value="&lt;span style=&quot;text-align: left;&quot;&gt;&lt;font&gt;gnmic/default-cluster/targets/R2&lt;/font&gt;&lt;/span&gt;" style="shape=partialRectangle;html=1;whiteSpace=wrap;connectable=0;fillColor=none;top=0;left=0;bottom=0;right=0;overflow=hidden;fontColor=#66B2FF;fontFamily=Manrope;fontSource=https%3A%2F%2Ffonts.googleapis.com%2Fcss%3Ffamily%3DManrope;" parent="OhbVSFWdRjhHsJU15Zuy-62" vertex="1">
          <mxGeometry x="57" width="191" height="29" as="geometry" />
        </mxCell>
        <mxCell id="OhbVSFWdRjhHsJU15Zuy-65" value="&lt;font&gt;10s&lt;/font&gt;" style="shape=partialRectangle;html=1;whiteSpace=wrap;connectable=0;fillColor=none;top=0;left=0;bottom=0;right=0;overflow=hidden;fontColor=#66B2FF;fontFamily=Manrope;fontSource=https%3A%2F%2Ffonts.googleapis.com%2Fcss%3Ffamily%3DManrope;" parent="OhbVSFWdRjhHsJU15Zuy-62" vertex="1">
          <mxGeometry x="248" width="59" height="29" as="geometry" />
        </mxCell>
        <mxCell id="OhbVSFWdRjhHsJU15Zuy-58" style="shape=partialRectangle;html=1;whiteSpace=wrap;collapsible=0;dropTarget=0;pointerEvents=0;fillColor=none;top=0;left=0;bottom=0;right=0;points=[[0,0.5],[1,0.5]];portConstraint=eastwest;fontColor=#66B2FF;fontFamily=Manrope;fontSource=https%3A%2F%2Ffonts.googleapis.com%2Fcss%3Ffamily%3DManrope;" parent="OhbVSFWdRjhHsJU15Zuy-41" vertex="1">
          <mxGeometry y="116" width="307" height="5" as="geometry" />
        </mxCell>
        <mxCell id="OhbVSFWdRjhHsJU15Zuy-59" value="" style="shape=partialRectangle;html=1;whiteSpace=wrap;connectable=0;top=0;left=0;bottom=0;right=0;overflow=hidden;fontColor=#66B2FF;fontFamily=Manrope;fontSource=https%3A%2F%2Ffonts.googleapis.com%2Fcss%3Ffamily%3DManrope;fillColor=#BEC8D2;" parent="OhbVSFWdRjhHsJU15Zuy-58" vertex="1">
          <mxGeometry width="57" height="5" as="geometry" />
        </mxCell>
        <mxCell id="OhbVSFWdRjhHsJU15Zuy-60" value="" style="shape=partialRectangle;html=1;whiteSpace=wrap;connectable=0;top=0;left=0;bottom=0;right=0;overflow=hidden;fontColor=#66B2FF;fontFamily=Manrope;fontSource=https%3A%2F%2Ffonts.googleapis.com%2Fcss%3Ffamily%3DManrope;fillColor=#BEC8D2;" parent="OhbVSFWdRjhHsJU15Zuy-58" vertex="1">
          <mxGeometry x="57" width="191" height="5" as="geometry" />
        </mxCell>
        <mxCell id="OhbVSFWdRjhHsJU15Zuy-61" value="" style="shape=partialRectangle;html=1;whiteSpace=wrap;connectable=0;top=0;left=0;bottom=0;right=0;overflow=hidden;fontColor=#66B2FF;fontFamily=Manrope;fontSource=https%3A%2F%2Ffonts.googleapis.com%2Fcss%3Ffamily%3DManrope;fillColor=#BEC8D2;" parent="OhbVSFWdRjhHsJU15Zuy-58" vertex="1">
          <mxGeometry x="248" width="59" height="5" as="geometry" />
        </mxCell>
        <mxCell id="OhbVSFWdRjhHsJU15Zuy-54" style="shape=partialRectangle;html=1;whiteSpace=wrap;collapsible=0;dropTarget=0;pointerEvents=0;fillColor=none;top=0;left=0;bottom=0;right=0;points=[[0,0.5],[1,0.5]];portConstraint=eastwest;fontColor=#66B2FF;fontFamily=Manrope;fontSource=https%3A%2F%2Ffonts.googleapis.com%2Fcss%3Ffamily%3DManrope;" parent="OhbVSFWdRjhHsJU15Zuy-41" vertex="1">
          <mxGeometry y="121" width="307" height="29" as="geometry" />
        </mxCell>
        <mxCell id="OhbVSFWdRjhHsJU15Zuy-55" value="&lt;span style=&quot;text-align: left;&quot;&gt;&lt;font&gt;gNMIc-2&lt;/font&gt;&lt;/span&gt;" style="shape=partialRectangle;html=1;whiteSpace=wrap;connectable=0;fillColor=none;top=0;left=0;bottom=0;right=0;overflow=hidden;fontColor=#66B2FF;fontFamily=Manrope;fontSource=https%3A%2F%2Ffonts.googleapis.com%2Fcss%3Ffamily%3DManrope;" parent="OhbVSFWdRjhHsJU15Zuy-54" vertex="1">
          <mxGeometry width="57" height="29" as="geometry" />
        </mxCell>
        <mxCell id="OhbVSFWdRjhHsJU15Zuy-56" value="&lt;span style=&quot;text-align: left;&quot;&gt;&lt;font&gt;gnmic/default-cluster/targets/R3&lt;/font&gt;&lt;/span&gt;" style="shape=partialRectangle;html=1;whiteSpace=wrap;connectable=0;fillColor=none;top=0;left=0;bottom=0;right=0;overflow=hidden;fontColor=#66B2FF;fontFamily=Manrope;fontSource=https%3A%2F%2Ffonts.googleapis.com%2Fcss%3Ffamily%3DManrope;" parent="OhbVSFWdRjhHsJU15Zuy-54" vertex="1">
          <mxGeometry x="57" width="191" height="29" as="geometry" />
        </mxCell>
        <mxCell id="OhbVSFWdRjhHsJU15Zuy-57" value="&lt;font&gt;10s&lt;/font&gt;" style="shape=partialRectangle;html=1;whiteSpace=wrap;connectable=0;fillColor=none;top=0;left=0;bottom=0;right=0;overflow=hidden;fontColor=#66B2FF;fontFamily=Manrope;fontSource=https%3A%2F%2Ffonts.googleapis.com%2Fcss%3Ffamily%3DManrope;" parent="OhbVSFWdRjhHsJU15Zuy-54" vertex="1">
          <mxGeometry x="248" width="59" height="29" as="geometry" />
        </mxCell>
        <mxCell id="OhbVSFWdRjhHsJU15Zuy-50" value="" style="shape=partialRectangle;html=1;whiteSpace=wrap;collapsible=0;dropTarget=0;pointerEvents=0;fillColor=none;top=0;left=0;bottom=0;right=0;points=[[0,0.5],[1,0.5]];portConstraint=eastwest;fontColor=#66B2FF;fontFamily=Manrope;fontSource=https%3A%2F%2Ffonts.googleapis.com%2Fcss%3Ffamily%3DManrope;" parent="OhbVSFWdRjhHsJU15Zuy-41" vertex="1">
          <mxGeometry y="150" width="307" height="28" as="geometry" />
        </mxCell>
        <mxCell id="OhbVSFWdRjhHsJU15Zuy-51" value="&lt;span style=&quot;text-align: left;&quot;&gt;&lt;font&gt;gNMIc-2&lt;/font&gt;&lt;/span&gt;" style="shape=partialRectangle;html=1;whiteSpace=wrap;connectable=0;fillColor=none;top=0;left=0;bottom=0;right=0;overflow=hidden;fontColor=#66B2FF;fontFamily=Manrope;fontSource=https%3A%2F%2Ffonts.googleapis.com%2Fcss%3Ffamily%3DManrope;" parent="OhbVSFWdRjhHsJU15Zuy-50" vertex="1">
          <mxGeometry width="57" height="28" as="geometry" />
        </mxCell>
        <mxCell id="OhbVSFWdRjhHsJU15Zuy-52" value="&lt;span style=&quot;text-align: left;&quot;&gt;&lt;font&gt;gnmic/default-cluster/targets/R4&lt;/font&gt;&lt;/span&gt;" style="shape=partialRectangle;html=1;whiteSpace=wrap;connectable=0;fillColor=none;top=0;left=0;bottom=0;right=0;overflow=hidden;fontColor=#66B2FF;fontFamily=Manrope;fontSource=https%3A%2F%2Ffonts.googleapis.com%2Fcss%3Ffamily%3DManrope;" parent="OhbVSFWdRjhHsJU15Zuy-50" vertex="1">
          <mxGeometry x="57" width="191" height="28" as="geometry" />
        </mxCell>
        <mxCell id="OhbVSFWdRjhHsJU15Zuy-53" value="&lt;font&gt;10s&lt;/font&gt;" style="shape=partialRectangle;html=1;whiteSpace=wrap;connectable=0;fillColor=none;top=0;left=0;bottom=0;right=0;overflow=hidden;fontColor=#66B2FF;fontFamily=Manrope;fontSource=https%3A%2F%2Ffonts.googleapis.com%2Fcss%3Ffamily%3DManrope;" parent="OhbVSFWdRjhHsJU15Zuy-50" vertex="1">
          <mxGeometry x="248" width="59" height="28" as="geometry" />
        </mxCell>
        <mxCell id="OhbVSFWdRjhHsJU15Zuy-66" style="shape=partialRectangle;html=1;whiteSpace=wrap;collapsible=0;dropTarget=0;pointerEvents=0;fillColor=none;top=0;left=0;bottom=0;right=0;points=[[0,0.5],[1,0.5]];portConstraint=eastwest;fontColor=#66B2FF;fontFamily=Manrope;fontSource=https%3A%2F%2Ffonts.googleapis.com%2Fcss%3Ffamily%3DManrope;" parent="OhbVSFWdRjhHsJU15Zuy-41" vertex="1">
          <mxGeometry y="178" width="307" height="5" as="geometry" />
        </mxCell>
        <mxCell id="OhbVSFWdRjhHsJU15Zuy-67" value="" style="shape=partialRectangle;html=1;whiteSpace=wrap;connectable=0;top=0;left=0;bottom=0;right=0;overflow=hidden;fontColor=#66B2FF;fontFamily=Manrope;fontSource=https%3A%2F%2Ffonts.googleapis.com%2Fcss%3Ffamily%3DManrope;fillColor=#BEC8D2;" parent="OhbVSFWdRjhHsJU15Zuy-66" vertex="1">
          <mxGeometry width="57" height="5" as="geometry" />
        </mxCell>
        <mxCell id="OhbVSFWdRjhHsJU15Zuy-68" value="" style="shape=partialRectangle;html=1;whiteSpace=wrap;connectable=0;top=0;left=0;bottom=0;right=0;overflow=hidden;fontColor=#66B2FF;fontFamily=Manrope;fontSource=https%3A%2F%2Ffonts.googleapis.com%2Fcss%3Ffamily%3DManrope;fillColor=#BEC8D2;" parent="OhbVSFWdRjhHsJU15Zuy-66" vertex="1">
          <mxGeometry x="57" width="191" height="5" as="geometry" />
        </mxCell>
        <mxCell id="OhbVSFWdRjhHsJU15Zuy-69" value="" style="shape=partialRectangle;html=1;whiteSpace=wrap;connectable=0;top=0;left=0;bottom=0;right=0;overflow=hidden;fontColor=#66B2FF;fontFamily=Manrope;fontSource=https%3A%2F%2Ffonts.googleapis.com%2Fcss%3Ffamily%3DManrope;fillColor=#BEC8D2;" parent="OhbVSFWdRjhHsJU15Zuy-66" vertex="1">
          <mxGeometry x="248" width="59" height="5" as="geometry" />
        </mxCell>
        <mxCell id="OhbVSFWdRjhHsJU15Zuy-78" style="shape=partialRectangle;html=1;whiteSpace=wrap;collapsible=0;dropTarget=0;pointerEvents=0;fillColor=none;top=0;left=0;bottom=0;right=0;points=[[0,0.5],[1,0.5]];portConstraint=eastwest;fontColor=#66B2FF;fontFamily=Manrope;fontSource=https%3A%2F%2Ffonts.googleapis.com%2Fcss%3Ffamily%3DManrope;" parent="OhbVSFWdRjhHsJU15Zuy-41" vertex="1">
          <mxGeometry y="183" width="307" height="28" as="geometry" />
        </mxCell>
        <mxCell id="OhbVSFWdRjhHsJU15Zuy-79" value="&lt;span style=&quot;text-align: left;&quot;&gt;&lt;font&gt;gNMIc-3&lt;/font&gt;&lt;/span&gt;" style="shape=partialRectangle;html=1;whiteSpace=wrap;connectable=0;fillColor=none;top=0;left=0;bottom=0;right=0;overflow=hidden;fontColor=#66B2FF;fontFamily=Manrope;fontSource=https%3A%2F%2Ffonts.googleapis.com%2Fcss%3Ffamily%3DManrope;" parent="OhbVSFWdRjhHsJU15Zuy-78" vertex="1">
          <mxGeometry width="57" height="28" as="geometry" />
        </mxCell>
        <mxCell id="OhbVSFWdRjhHsJU15Zuy-80" value="&lt;span style=&quot;text-align: left;&quot;&gt;&lt;font&gt;gnmic/default-cluster/targets/R5&lt;/font&gt;&lt;/span&gt;" style="shape=partialRectangle;html=1;whiteSpace=wrap;connectable=0;fillColor=none;top=0;left=0;bottom=0;right=0;overflow=hidden;fontColor=#66B2FF;fontFamily=Manrope;fontSource=https%3A%2F%2Ffonts.googleapis.com%2Fcss%3Ffamily%3DManrope;" parent="OhbVSFWdRjhHsJU15Zuy-78" vertex="1">
          <mxGeometry x="57" width="191" height="28" as="geometry" />
        </mxCell>
        <mxCell id="OhbVSFWdRjhHsJU15Zuy-81" value="&lt;span style=&quot;&quot;&gt;10s&lt;/span&gt;" style="shape=partialRectangle;html=1;whiteSpace=wrap;connectable=0;fillColor=none;top=0;left=0;bottom=0;right=0;overflow=hidden;fontColor=#66B2FF;fontFamily=Manrope;fontSource=https%3A%2F%2Ffonts.googleapis.com%2Fcss%3Ffamily%3DManrope;" parent="OhbVSFWdRjhHsJU15Zuy-78" vertex="1">
          <mxGeometry x="248" width="59" height="28" as="geometry" />
        </mxCell>
        <mxCell id="OhbVSFWdRjhHsJU15Zuy-82" style="shape=partialRectangle;html=1;whiteSpace=wrap;collapsible=0;dropTarget=0;pointerEvents=0;fillColor=none;top=0;left=0;bottom=0;right=0;points=[[0,0.5],[1,0.5]];portConstraint=eastwest;fontColor=#66B2FF;fontFamily=Manrope;fontSource=https%3A%2F%2Ffonts.googleapis.com%2Fcss%3Ffamily%3DManrope;" parent="OhbVSFWdRjhHsJU15Zuy-41" vertex="1">
          <mxGeometry y="211" width="307" height="28" as="geometry" />
        </mxCell>
        <mxCell id="OhbVSFWdRjhHsJU15Zuy-83" value="&lt;span style=&quot;text-align: left;&quot;&gt;gNMIc-3&lt;/span&gt;" style="shape=partialRectangle;html=1;whiteSpace=wrap;connectable=0;fillColor=none;top=0;left=0;bottom=0;right=0;overflow=hidden;fontColor=#66B2FF;fontFamily=Manrope;fontSource=https%3A%2F%2Ffonts.googleapis.com%2Fcss%3Ffamily%3DManrope;" parent="OhbVSFWdRjhHsJU15Zuy-82" vertex="1">
          <mxGeometry width="57" height="28" as="geometry" />
        </mxCell>
        <mxCell id="OhbVSFWdRjhHsJU15Zuy-84" value="&lt;span style=&quot;text-align: left;&quot;&gt;&lt;font&gt;gnmic/default-cluster/targets/R6&lt;/font&gt;&lt;/span&gt;" style="shape=partialRectangle;html=1;whiteSpace=wrap;connectable=0;fillColor=none;top=0;left=0;bottom=0;right=0;overflow=hidden;fontColor=#66B2FF;fontFamily=Manrope;fontSource=https%3A%2F%2Ffonts.googleapis.com%2Fcss%3Ffamily%3DManrope;" parent="OhbVSFWdRjhHsJU15Zuy-82" vertex="1">
          <mxGeometry x="57" width="191" height="28" as="geometry" />
        </mxCell>
        <mxCell id="OhbVSFWdRjhHsJU15Zuy-85" value="&lt;font&gt;10s&lt;/font&gt;" style="shape=partialRectangle;html=1;whiteSpace=wrap;connectable=0;fillColor=none;top=0;left=0;bottom=0;right=0;overflow=hidden;fontColor=#66B2FF;fontFamily=Manrope;fontSource=https%3A%2F%2Ffonts.googleapis.com%2Fcss%3Ffamily%3DManrope;" parent="OhbVSFWdRjhHsJU15Zuy-82" vertex="1">
          <mxGeometry x="248" width="59" height="28" as="geometry" />
        </mxCell>
      </root>
    </mxGraphModel>
  </diagram>
</mxfile>
